<svg width="109" height="92" viewBox="0 0 109 92" fill="none" xmlns="http://www.w3.org/2000/svg">
<path fill-rule="evenodd" clip-rule="evenodd" d="M2.85301 15.4439C13.1067 10.8681 22.6981 4.98618 33.071 0.992925C36.0493 -0.154884 38.5652 4.7428 36.0059 6.70623C27.0955 13.5466 16.9654 18.6061 7.80208 25.0781C2.0762 29.1234 -3.53334 18.2031 2.85301 15.4439ZM56.531 33.5968C59.4443 30.1966 63.2717 25.7471 67.777 24.6408C71.1952 23.8068 74.5638 26.4313 77.6142 27.4057C78.3327 27.6284 78.1682 28.8581 77.3816 28.7849C72.6236 28.3399 63.7853 41.9964 61.8563 45.4649C56.2971 55.1544 53.0679 65.3692 49.5169 75.8734C46.7864 83.9401 34.7606 80.3673 37.3139 72.1685C41.1165 58.7242 47.2135 44.1653 56.531 33.5968ZM106.088 32.9388C106.518 32.6672 106.792 33.2745 106.582 33.6517C104.05 35.962 108.063 39.3171 107.98 42.284C108.323 47.5131 107.982 52.7727 107.543 57.9566C107.046 63.8243 106.463 69.6894 105.842 75.5513C105.368 80.0619 105.558 84.8112 103.034 88.4531C100.321 92.7002 93.4259 93.5719 91.3234 88.4426C88.8497 82.4095 90.5171 75.0156 91.4498 68.61C92.3794 62.2364 93.1274 55.677 94.8844 49.46C97.0366 41.859 99.8398 36.8684 106.088 32.9388Z" fill="#46DCC9"/>
</svg>
