<svg width="799" height="251" viewBox="0 0 799 251" fill="none" xmlns="http://www.w3.org/2000/svg">
<path fill-rule="evenodd" clip-rule="evenodd" d="M0 62.3609C7.63539 64.7471 15.548 65.3211 23.4594 65.895C29.9695 66.3672 36.4788 66.8394 42.832 68.3213C44.7735 65.4365 49.6639 66.7776 54.5927 68.1293C57.0056 68.791 59.4273 69.4552 61.5168 69.6274C62.6025 69.7173 63.6529 69.5293 64.6456 69.3516C66.8012 68.9656 68.6843 68.6285 70.063 71.2938C70.559 70.6251 71.0384 70.0167 71.519 69.4072C71.7323 69.1363 71.9461 68.8653 72.1614 68.5886C72.6101 71.313 74.018 70.9629 75.5835 70.5738C77.1578 70.1824 78.8918 69.7513 79.9698 72.368C83.9401 70.0663 88.3057 70.8466 92.8246 71.6543C97.0441 72.4085 101.397 73.1865 105.686 71.5017C105.909 72.0438 106.129 72.5918 106.348 73.142C106.535 73.6109 106.721 74.0813 106.907 74.5506C112.498 72.53 117.68 73.2052 122.863 73.8805C128.239 74.5809 133.616 75.2813 139.449 72.972C141.459 75.4287 143.919 74.9564 146.379 74.484C148.818 74.0158 151.257 73.5475 153.258 75.931C155.026 73.8567 156.406 74.2981 157.785 74.7393C159.069 75.1501 160.353 75.5608 161.949 73.939C169.224 77.5687 177.221 76.5292 185.279 75.0129C193.796 76.4078 202.586 76.0321 211.372 75.6566C220.044 75.2859 228.712 74.9154 237.109 76.2478C237.449 75.8067 237.789 75.3667 238.13 74.9266C238.487 74.4657 238.844 74.0048 239.2 73.5426C240.04 72.8757 239.771 74.838 239.282 75.7458C243.749 74.8887 247.571 74.6217 251.373 74.3561C255.627 74.059 259.856 73.7637 264.937 72.6456C265.17 73.1834 265.368 73.6963 265.558 74.2022C265.749 74.7139 265.931 75.2183 266.131 75.7339C266.87 75.5808 267.245 74.6661 267.587 73.8293C268.082 72.6215 268.51 71.576 269.871 73.2169C269.995 73.9954 269.769 74.096 269.402 74.2594C269.095 74.3958 268.691 74.5761 268.309 75.2315C269.311 76.2165 271.219 75.6289 271.523 73.4014C313.421 75.3768 355.222 71.7159 397.149 68.0441C423.022 65.7783 448.941 63.5083 474.96 62.5561L475.536 61.813C475.866 61.386 476.198 60.9562 476.528 60.5333C480.525 61.6513 484.811 60.8595 489.098 60.0676C494.306 59.1055 499.515 58.1434 504.204 60.6073C504.823 60.3146 505.481 59.5234 506.06 58.8272C507.112 57.5622 507.903 56.6106 507.721 59.5294C509.286 57.4935 513.271 56.144 515.417 58.9119C515.728 58.4695 516.052 58.0322 516.381 57.5977C516.737 57.1271 517.101 56.6598 517.462 56.1925C518.076 56.2542 518.682 56.3514 519.288 56.4486C521.825 56.8549 524.35 57.2597 527.285 55.0555C533.806 56.8417 540.716 56.1064 547.625 55.3711C556.496 54.4271 565.367 53.483 573.419 57.8743C573.685 57.5339 573.949 57.1926 574.217 56.8479C574.653 56.2869 575.095 55.7167 575.563 55.1262C577.578 58.7632 582.235 57.8568 583.982 54.6275C584.276 55.2535 584.286 55.8439 584.296 56.4334C584.306 57.0639 584.316 57.6934 584.674 58.3641C586.237 53.8453 587.159 55.5793 588.021 57.2001C588.181 57.4994 588.337 57.7949 588.496 58.0464C592.365 54.4582 596.224 54.7531 600.481 55.0786C601.361 55.146 602.26 55.2147 603.178 55.2505C603.724 56.5373 603.588 57.6915 603.044 58.9015C603.522 59.2021 603.957 58.4735 604.425 57.6875C605.139 56.4869 605.933 55.1526 607.088 57.1494C607.474 56.6319 607.301 56.0274 607.14 55.461C607.088 55.2813 607.038 55.1053 607.008 54.9372C607.582 54.4492 608.064 54.5906 608.546 54.7319C609.275 54.9459 610.003 55.1596 611.051 53.1893C611.76 54.2296 611.21 55.1533 610.607 56.0587C612.312 54.2096 615.373 52.1887 617.869 52.4636C618.256 54.7133 617.576 54.9273 616.653 55.2179C616.041 55.4103 615.323 55.6364 614.737 56.5099C618.184 54.4991 621.538 53.1959 624.88 51.8975C626.897 51.1138 628.909 50.332 630.934 49.3973C631.259 50.297 631.591 51.1479 631.924 52.0015C632.092 52.4336 632.261 52.8664 632.429 53.3065C631.567 56.5529 633.848 51.6051 632.043 50.3385C633.734 48.1898 635.12 47.6998 636.713 47.1367C637.78 46.7596 638.939 46.3495 640.346 45.3865C640.407 46.8268 641.1 47.3825 641.614 47.7944C642.22 48.281 642.576 48.5669 641.347 49.8727C641.824 50.3358 642.224 49.8421 642.656 49.3096C643.355 48.4459 644.137 47.48 645.469 50.3306C647.141 48.2962 646.075 47.969 645.142 47.6826C644.766 47.5674 644.411 47.4587 644.266 47.2479C645.945 45.513 647.368 45.4665 648.79 45.4199C650.317 45.3699 651.844 45.3199 653.69 43.184C653.89 43.943 653.387 44.6265 652.888 45.3062C652.726 45.5262 652.565 45.7458 652.427 45.9674C652.686 46.3099 653.017 46.193 653.347 46.076C653.904 45.8791 654.462 45.6817 654.682 47.6765C654.572 45.3847 655.118 45.1901 655.968 44.8879C656.63 44.6524 657.476 44.3516 658.338 42.9425C661.416 45.7041 665.327 43.8297 669.148 41.999C673.369 39.9761 677.479 38.0066 680.231 42.4028C681.896 37.6214 684.699 37.1359 687.18 36.7062C688.044 36.5566 688.869 36.4138 689.593 36.0987C689.179 38.6988 688.041 38.7008 686.789 38.703C685.828 38.7046 684.799 38.7065 683.979 39.8868C684.21 40.5822 684.515 40.7882 684.819 40.9942C685.147 41.2157 685.475 41.4371 685.711 42.2659C684.61 43.0511 683.417 44.2433 682.211 45.4482C680.596 47.0628 678.957 48.7002 677.486 49.4125C678.54 43.0832 673.362 47.2305 670.887 49.2148C670.432 49.5786 670.068 49.8698 669.851 50.0102C674.175 53.8625 682.428 51.6044 687.748 45.4101C687.93 46.3238 687.285 47.1398 686.639 47.9591C686.4 48.2611 686.161 48.5636 685.963 48.8716C686.442 48.7231 687.003 48.608 687.608 48.4839C690.44 47.9036 694.233 47.1263 695.012 41.8028C696.082 40.9933 696.109 42.1722 696.14 43.4581C696.161 44.3291 696.183 45.2491 696.53 45.6335C699.067 43.5649 701.078 42.4982 703.124 41.4138C705.428 40.1918 707.776 38.9471 710.965 36.2202C717.345 36.5534 723.765 36.6804 731.273 29.6415C734.865 30.8246 741.349 27.6693 744.444 23.0232C747.587 24.3535 752.125 22.2407 757.023 19.961C764.256 16.5936 772.273 12.8617 777.733 19.3219C777.008 14.4273 778.999 13.3436 781.108 12.1959C782.989 11.172 784.964 10.0971 785.187 6.21887C786.033 6.52966 787.107 5.38658 788.179 4.24509C789.795 2.52683 791.406 0.812265 792.23 4.06695C794.455 2.34131 796.624 0.985224 798.736 0V250.703H0V62.3609ZM658.761 53.9717C656.926 54.9817 655.09 55.9928 653.581 54.8827C654.14 54.5423 654.774 54.1116 655.446 53.6549C658.852 51.3389 663.245 48.353 663.923 53.0624C662.423 51.9552 660.593 52.9629 658.761 53.9717ZM664.669 50.9456C665.705 53.3089 667.187 52.7898 669.01 49.9616C667.716 49.3074 666.281 49.5649 664.669 50.9456Z" fill="white"/>
</svg>
