<svg width="54" height="147" viewBox="0 0 54 147" fill="none" xmlns="http://www.w3.org/2000/svg">
<path fill-rule="evenodd" clip-rule="evenodd" d="M52.4112 106.248C47.0112 124.148 27.2113 126.548 27.2113 126.548C27.2113 126.548 7.41126 124.148 2.01126 106.248C-3.38874 88.4483 17.7113 63.7483 17.6113 55.5483C17.6113 52.8483 16.6113 50.3483 15.2113 48.1483C12.4113 43.5483 8.11129 40.2483 8.11129 40.2483C8.11129 40.2483 18.0113 44.5483 27.2113 44.5483C36.3113 44.5483 46.3112 40.2483 46.3112 40.2483C46.3112 40.2483 42.0113 43.4483 39.2113 48.0483C37.9113 50.2483 36.9112 52.7483 36.8112 55.4483C36.7112 63.7483 57.8112 88.4483 52.4112 106.248Z" fill="url(#paint0_linear_248_11582)"/>
<path fill-rule="evenodd" clip-rule="evenodd" d="M8.21289 40.2485C8.21289 40.2485 26.5129 36.4485 46.3129 40.2485C46.3129 40.2485 39.5129 44.5485 27.2129 44.5485C15.0129 44.5485 8.21289 40.2485 8.21289 40.2485Z" fill="#FFE5C4"/>
<path fill-rule="evenodd" clip-rule="evenodd" d="M9.91211 40.2484C9.91211 40.2484 28.4121 36.7484 45.2121 40.4484C45.2121 40.5484 26.7121 48.9484 9.91211 40.2484Z" fill="url(#paint1_radial_248_11582)"/>
<path fill-rule="evenodd" clip-rule="evenodd" d="M52.2121 106.248C46.8121 124.148 27.0121 126.548 27.0121 126.548C27.0121 126.548 7.21204 124.148 1.81204 106.248C-3.58796 88.4484 17.5121 63.7484 17.4121 55.5484C17.4121 52.8484 16.4121 50.3484 15.0121 48.1484C15.3121 48.5484 21.912 57.8484 38.912 48.1484C37.612 50.3484 36.6121 52.8484 36.5121 55.5484C36.5121 63.7484 57.6121 88.4484 52.2121 106.248Z" fill="url(#paint2_linear_248_11582)"/>
<g opacity="0.38">
<path fill-rule="evenodd" clip-rule="evenodd" d="M19.112 59.7483L36.2119 84.2483C36.2119 84.2483 24.012 89.7483 16.912 79.4483C9.71196 69.2483 19.112 59.7483 19.112 59.7483Z" fill="url(#paint3_radial_248_11582)"/>
<path fill-rule="evenodd" clip-rule="evenodd" d="M19.612 60.4482C19.612 60.4482 10.312 69.0482 17.112 78.8482C23.912 88.6482 35.912 83.8482 35.912 83.8482L35.512 83.3482C35.512 83.3482 24.712 88.0482 17.712 78.0482C10.712 68.0482 19.812 60.9482 19.812 60.9482L19.612 60.4482Z" fill="url(#paint4_linear_248_11582)"/>
<path fill-rule="evenodd" clip-rule="evenodd" d="M19.9117 60.9482C19.9117 60.9482 25.9117 69.6482 25.7117 70.1482C25.5117 70.6482 15.0117 71.5482 15.0117 71.5482C15.0117 71.5482 25.9117 70.7482 26.4117 71.4482C26.7117 71.8482 19.0117 80.3482 19.0117 80.3482C19.0117 80.3482 26.7117 72.5482 27.5117 72.8482C28.3117 73.2482 27.0117 84.5482 27.0117 84.5482C27.0117 84.5482 28.0117 74.1482 28.7117 74.2482C29.4117 74.3482 35.7117 83.3482 35.7117 83.3482L19.9117 60.9482Z" fill="url(#paint5_linear_248_11582)"/>
<path opacity="0.2" fill-rule="evenodd" clip-rule="evenodd" d="M19.1114 59.7483L19.5113 60.3483C19.5113 60.3483 10.5114 67.9483 16.7114 78.1483C22.8114 88.3483 35.9113 83.7483 35.9113 83.7483L36.2114 84.1483C36.2114 84.1483 22.0114 89.6483 16.2114 78.3483C10.5114 67.1483 19.1114 59.7483 19.1114 59.7483Z" fill="#A4006D"/>
</g>
<path fill-rule="evenodd" clip-rule="evenodd" d="M15.3125 48.1483C15.3125 48.1483 21.5125 46.8483 26.5125 49.6483C31.5125 52.4483 39.2125 48.1483 39.2125 48.1483C39.2125 48.1483 31.5125 53.7483 24.8125 53.1483C18.0125 52.4483 15.3125 48.1483 15.3125 48.1483Z" fill="#FF9A8B"/>
<path fill-rule="evenodd" clip-rule="evenodd" d="M47.5121 143.548C47.5121 143.548 30.4121 144.348 28.8121 140.548C27.2121 136.848 33.6121 124.848 33.6121 124.848C29.8121 126.248 24.3121 126.248 20.5121 124.848C20.5121 124.848 26.9121 136.848 25.3121 140.548C23.7121 144.248 6.61212 143.548 6.61212 143.548L5.41211 146.148H26.9121H27.1121H48.6121L47.5121 143.548Z" fill="url(#paint6_linear_248_11582)"/>
<path opacity="0.8" fill-rule="evenodd" clip-rule="evenodd" d="M6.7113 143.448C6.7113 143.448 37.0114 145.348 47.5114 143.448L48.7113 146.048H5.61133L6.7113 143.448Z" fill="url(#paint7_radial_248_11582)"/>
<path fill-rule="evenodd" clip-rule="evenodd" d="M6.61133 115.148C6.61133 115.148 14.4113 124.248 27.2113 124.248C40.0113 124.248 48.9113 113.648 48.9113 113.648C48.9113 113.648 40.9113 125.848 27.1113 125.848C13.3113 125.848 6.61133 115.148 6.61133 115.148Z" fill="url(#paint8_linear_248_11582)"/>
<path fill-rule="evenodd" clip-rule="evenodd" d="M21.8125 124.848C21.8125 124.848 24.6125 126.348 32.7125 125.048C32.7125 125.048 27.1125 127.948 21.8125 124.848Z" fill="url(#paint9_radial_248_11582)"/>
<path opacity="0.5" fill-rule="evenodd" clip-rule="evenodd" d="M25.7122 135.948C25.7122 135.948 22.4123 127.548 22.6123 126.848C22.8123 126.148 30.5123 126.348 31.1123 127.148C31.7123 128.048 28.7122 135.948 28.7122 135.948C28.7122 135.948 31.2122 128.348 30.5122 127.548C29.9122 126.748 25.0122 126.248 24.0122 127.348C23.0122 128.448 25.7122 135.948 25.7122 135.948Z" fill="url(#paint10_radial_248_11582)"/>
<path opacity="0.5" fill-rule="evenodd" clip-rule="evenodd" d="M25.0117 141.148C25.0117 141.148 27.0118 143.148 29.6118 141.348C29.5118 141.448 27.1117 141.648 25.0117 141.148Z" fill="url(#paint11_radial_248_11582)"/>
<path fill-rule="evenodd" clip-rule="evenodd" d="M29.5125 144.348L27.8125 142.148L28.7125 141.848L36.1125 144.348H29.5125Z" fill="#FFD4D1"/>
<path fill-rule="evenodd" clip-rule="evenodd" d="M2.91138 95.6484L40.7114 110.848C40.7114 110.848 30.9114 126.148 15.1114 119.748C-0.688611 113.348 2.91138 95.6484 2.91138 95.6484Z" fill="url(#paint12_radial_248_11582)"/>
<path fill-rule="evenodd" clip-rule="evenodd" d="M3.91164 96.0483C3.91164 96.0483 -0.2884 112.848 14.8116 118.848C29.9116 124.848 40.0117 110.548 40.0117 110.548L39.2116 110.248C39.2116 110.248 30.3116 123.648 14.9116 117.448C-0.488362 111.248 4.61165 96.3483 4.61165 96.3483L3.91164 96.0483Z" fill="url(#paint13_linear_248_11582)"/>
<path fill-rule="evenodd" clip-rule="evenodd" d="M4.71094 96.3484C4.71094 96.3484 18.0109 101.848 18.2109 102.548C18.4109 103.248 7.01093 112.148 7.01093 112.148C7.01093 112.148 18.8109 103.148 19.9109 103.548C20.511 103.748 18.111 119.248 18.111 119.248C18.111 119.248 21.0109 104.648 22.2109 104.348C23.4109 104.148 30.3109 118.048 30.3109 118.048C30.3109 118.048 23.711 105.448 24.611 104.948C25.511 104.548 39.3109 110.148 39.3109 110.148L4.71094 96.3484Z" fill="url(#paint14_linear_248_11582)"/>
<path opacity="0.2" fill-rule="evenodd" clip-rule="evenodd" d="M2.91191 95.6484L3.91191 96.0484C3.91191 96.0484 -0.688119 111.448 14.0119 118.548C28.6119 125.648 40.1119 110.548 40.1119 110.548L40.8119 110.848C40.8119 110.848 28.6119 127.648 13.7119 119.148C-1.38811 110.448 2.91191 95.6484 2.91191 95.6484Z" fill="#A4006D"/>
<g opacity="0.5">
<path fill-rule="evenodd" clip-rule="evenodd" d="M20.8125 91.6483L50.7125 91.2483C50.7125 91.2483 48.4125 104.348 35.8125 104.548C23.3125 104.748 20.8125 91.6483 20.8125 91.6483Z" fill="url(#paint15_radial_248_11582)"/>
<path fill-rule="evenodd" clip-rule="evenodd" d="M21.6133 91.6484C21.6133 91.6484 23.5132 104.148 35.4132 104.048C47.3132 103.948 50.2133 91.3484 50.2133 91.3484H49.6133C49.6133 91.3484 47.4133 102.948 35.2133 103.048C23.0133 103.148 22.3132 91.6484 22.3132 91.6484H21.6133Z" fill="url(#paint16_linear_248_11582)"/>
<path fill-rule="evenodd" clip-rule="evenodd" d="M22.1133 91.6482C22.1133 91.6482 32.7133 91.6482 33.0133 92.0482C33.3133 92.4482 28.1133 101.748 28.1133 101.748C28.1133 101.748 33.6132 92.3482 34.4132 92.3482C34.9132 92.3482 37.6133 103.448 37.6133 103.448C37.6133 103.448 35.5133 92.7482 36.2133 92.2482C37.0133 91.7482 45.6133 99.2482 45.6133 99.2482C45.6133 99.2482 37.6133 92.5482 38.0133 92.0482C38.5133 91.5482 49.4132 91.4482 49.4132 91.4482L22.1133 91.6482Z" fill="url(#paint17_linear_248_11582)"/>
<path opacity="0.2" fill-rule="evenodd" clip-rule="evenodd" d="M20.8125 91.6484H21.6125C21.6125 91.6484 22.8125 103.348 34.7125 104.048C46.6125 104.748 50.1125 91.3484 50.1125 91.3484H50.6125C50.6125 91.3484 47.1126 106.148 34.5126 104.548C22.1126 102.948 20.8125 91.6484 20.8125 91.6484Z" fill="#A4006D"/>
</g>
<path fill-rule="evenodd" clip-rule="evenodd" d="M10.2129 92.3485L34.8129 62.9485C34.8129 62.9485 45.6129 76.2485 35.3129 88.5485C25.0129 100.848 10.2129 92.3485 10.2129 92.3485Z" fill="url(#paint18_radial_248_11582)"/>
<path fill-rule="evenodd" clip-rule="evenodd" d="M10.8125 91.5484C10.8125 91.5484 24.6125 100.248 34.4125 88.4484C44.3125 76.6484 34.3125 63.3484 34.3125 63.3484L33.8125 64.0484C33.8125 64.0484 43.2125 75.9484 33.2125 87.9484C23.2125 99.9484 11.3125 91.0484 11.3125 91.0484L10.8125 91.5484Z" fill="url(#paint19_linear_248_11582)"/>
<path fill-rule="evenodd" clip-rule="evenodd" d="M11.3125 91.0483C11.3125 91.0483 20.1125 80.7483 20.8125 80.7483C21.5125 80.8483 26.1125 93.6483 26.1125 93.6483C26.1125 93.6483 21.5125 80.4483 22.2125 79.5483C22.6125 79.0483 35.7125 85.7483 35.7125 85.7483C35.7125 85.7483 23.4125 78.8483 23.6125 77.7483C23.8125 76.5483 38.3125 74.4483 38.3125 74.4483C38.3125 74.4483 25.0125 76.6483 24.9125 75.7483C24.8125 74.8483 33.8125 64.0483 33.8125 64.0483L11.3125 91.0483Z" fill="url(#paint20_linear_248_11582)"/>
<path opacity="0.2" fill-rule="evenodd" clip-rule="evenodd" d="M10.2129 92.3484L10.8129 91.5484C10.8129 91.5484 23.2128 100.148 33.9128 89.0484C44.5128 78.0484 34.4128 63.3484 34.4128 63.3484L34.8129 62.8484C34.8129 62.8484 46.3129 78.6484 34.3129 89.5484C22.3129 100.548 10.2129 92.3484 10.2129 92.3484Z" fill="#A4006D"/>
<path fill-rule="evenodd" clip-rule="evenodd" d="M10.2129 92.3485L34.8129 62.9485C34.8129 62.9485 45.6129 76.2485 35.3129 88.5485C25.0129 100.848 10.2129 92.3485 10.2129 92.3485Z" fill="#FF50CF"/>
<g style="mix-blend-mode:screen">
<path fill-rule="evenodd" clip-rule="evenodd" d="M12.9117 120.048C12.9117 120.048 -6.78834 106.048 6.51166 80.4485C6.51166 80.4485 -0.188318 103.448 12.9117 120.048Z" fill="url(#paint21_linear_248_11582)"/>
</g>
<g style="mix-blend-mode:screen">
<path fill-rule="evenodd" clip-rule="evenodd" d="M41.4121 83.4485L47.5122 82.4485C47.5122 82.4485 53.3122 89.6485 53.0122 100.348L45.3121 101.048C45.3121 100.948 44.9121 92.0485 41.4121 83.4485Z" fill="url(#paint22_linear_248_11582)"/>
</g>
<g style="mix-blend-mode:screen">
<path fill-rule="evenodd" clip-rule="evenodd" d="M33.8125 84.4485L40.7125 83.4485C40.7125 83.4485 44.6125 91.3485 44.6125 101.348L35.8125 102.048C35.8125 102.048 35.9125 93.6485 33.8125 84.4485Z" fill="url(#paint23_linear_248_11582)"/>
</g>
<path fill-rule="evenodd" clip-rule="evenodd" d="M8.21289 79.1483C8.21289 79.1483 12.0129 70.9483 13.8129 67.5483H17.0129L10.9129 79.1483H8.21289Z" fill="white"/>
<path fill-rule="evenodd" clip-rule="evenodd" d="M18.5121 43.3483L3.41211 2.34834C3.41211 2.34834 5.11212 3.14834 6.61212 0.54834L21.1121 43.8483L18.5121 43.3483Z" fill="url(#paint24_linear_248_11582)"/>
<path fill-rule="evenodd" clip-rule="evenodd" d="M3.41211 2.24838C3.41211 2.24838 5.01212 0.248385 6.61212 0.448385C6.71212 0.448385 6.61211 3.94838 3.41211 2.24838Z" fill="#BF2274"/>
<path fill-rule="evenodd" clip-rule="evenodd" d="M18.7129 43.8484L21.4129 51.3484C21.4129 51.3484 22.6129 52.1484 24.0129 51.6484L21.3129 44.2484L18.7129 43.8484Z" fill="#EF699A"/>
<path opacity="0.3" fill-rule="evenodd" clip-rule="evenodd" d="M21.9121 52.5483L26.3121 69.4483L28.4121 68.7483L24.8121 53.1483L21.9121 52.5483Z" fill="url(#paint25_linear_248_11582)"/>
<path fill-rule="evenodd" clip-rule="evenodd" d="M22.9117 44.0483L17.0117 13.0483C17.0117 13.0483 19.1117 14.0483 22.9117 13.0483L25.6118 44.2483L22.9117 44.0483Z" fill="url(#paint26_linear_248_11582)"/>
<path fill-rule="evenodd" clip-rule="evenodd" d="M17.0117 12.9484C17.0117 12.9484 20.6117 11.3484 22.9117 12.9484C22.9117 12.9484 20.2117 15.0484 17.0117 12.9484Z" fill="#8127C9"/>
<path fill-rule="evenodd" clip-rule="evenodd" d="M22.9121 44.4485L24.0121 51.6485C24.0121 51.6485 25.4121 52.5485 26.3121 51.7485L25.6121 44.5485L22.9121 44.4485Z" fill="#BE63D3"/>
<path opacity="0.3" fill-rule="evenodd" clip-rule="evenodd" d="M26.3125 53.1484L27.2125 63.7484L24.8125 53.1484H26.3125Z" fill="url(#paint27_linear_248_11582)"/>
<path opacity="0.5" fill-rule="evenodd" clip-rule="evenodd" d="M23.312 16.7483C23.312 16.7483 19.912 22.7483 20.112 29.2483L20.512 31.3483C20.512 31.3483 21.012 23.4483 23.512 19.1483L23.312 16.7483Z" fill="white"/>
<path opacity="0.5" fill-rule="evenodd" clip-rule="evenodd" d="M21.5117 36.6484C21.5117 36.6484 22.0118 31.0484 24.1118 26.3484L24.3117 28.5484C24.3117 28.5484 22.0117 34.0484 21.9117 38.6484L21.5117 36.6484Z" fill="white"/>
<path opacity="0.5" fill-rule="evenodd" clip-rule="evenodd" d="M20.0113 13.8484C20.0113 13.8484 18.3113 15.6484 18.1113 18.6484L18.4113 20.2484C18.4113 20.2484 19.0113 16.1484 21.2113 13.6484L20.0113 13.8484Z" fill="white"/>
<path opacity="0.5" fill-rule="evenodd" clip-rule="evenodd" d="M25.1114 37.7483C25.1114 37.7483 22.7114 42.6483 23.1114 45.7483L23.2114 46.5483C23.2114 46.5483 23.8114 40.8483 25.1114 38.8483V37.7483Z" fill="white"/>
<defs>
<linearGradient id="paint0_linear_248_11582" x1="27.2296" y1="126.565" x2="27.2641" y2="40.2741" gradientUnits="userSpaceOnUse">
<stop stop-color="#FFA4E3"/>
<stop offset="0.2767" stop-color="#F8B2D4"/>
<stop offset="0.6434" stop-color="#F3BEC8"/>
<stop offset="1" stop-color="#F1C2C4"/>
</linearGradient>
<radialGradient id="paint1_radial_248_11582" cx="0" cy="0" r="1" gradientUnits="userSpaceOnUse" gradientTransform="translate(27.6089 41.4803) rotate(0.0229183) scale(12.6272 12.6272)">
<stop stop-color="#F1C2C4"/>
<stop offset="0.309" stop-color="#EEB8C2"/>
<stop offset="0.8348" stop-color="#E89DBE"/>
<stop offset="1" stop-color="#E593BD"/>
</radialGradient>
<linearGradient id="paint2_linear_248_11582" x1="26.9574" y1="126.565" x2="26.9888" y2="48.1237" gradientUnits="userSpaceOnUse">
<stop stop-color="#FFB029"/>
<stop offset="0.1066" stop-color="#FFAD2D"/>
<stop offset="0.2165" stop-color="#FFA33A"/>
<stop offset="0.328" stop-color="#FF934E"/>
<stop offset="0.4404" stop-color="#FF7C6B"/>
<stop offset="0.5527" stop-color="#FF5F90"/>
<stop offset="0.5559" stop-color="#FF5E91"/>
<stop offset="0.5877" stop-color="#FF508E"/>
<stop offset="0.6472" stop-color="#FF2C85"/>
<stop offset="0.6508" stop-color="#FF2A84"/>
<stop offset="0.9546" stop-color="#FF7A45"/>
<stop offset="1" stop-color="#FF863B"/>
</linearGradient>
<radialGradient id="paint3_radial_248_11582" cx="0" cy="0" r="1" gradientUnits="userSpaceOnUse" gradientTransform="translate(26.4777 72.8913) rotate(55.0338) scale(11.5376 11.5376)">
<stop stop-color="#FFB029"/>
<stop offset="0.4711" stop-color="#FFAE2D"/>
<stop offset="0.9557" stop-color="#FFA839"/>
<stop offset="1" stop-color="#FFA73B"/>
</radialGradient>
<linearGradient id="paint4_linear_248_11582" x1="14.4209" y1="64.0292" x2="30.7986" y2="87.4482" gradientUnits="userSpaceOnUse">
<stop stop-color="#FFD1C5"/>
<stop offset="0.168" stop-color="#FFD9B5"/>
<stop offset="0.4499" stop-color="#FFE2A0"/>
<stop offset="0.7291" stop-color="#FFE894"/>
<stop offset="1" stop-color="#FFEA90"/>
</linearGradient>
<linearGradient id="paint5_linear_248_11582" x1="15.0018" y1="64.3299" x2="30.6756" y2="86.7427" gradientUnits="userSpaceOnUse">
<stop stop-color="#FFD1C5"/>
<stop offset="0.168" stop-color="#FFD9B5"/>
<stop offset="0.4499" stop-color="#FFE2A0"/>
<stop offset="0.7291" stop-color="#FFE894"/>
<stop offset="1" stop-color="#FFEA90"/>
</linearGradient>
<linearGradient id="paint6_linear_248_11582" x1="27.1321" y1="146.093" x2="27.1406" y2="124.831" gradientUnits="userSpaceOnUse">
<stop stop-color="#E5A4D6"/>
<stop offset="0.2644" stop-color="#EAB2CE"/>
<stop offset="0.6374" stop-color="#EFBEC6"/>
<stop offset="1" stop-color="#F1C2C4"/>
</linearGradient>
<radialGradient id="paint7_radial_248_11582" cx="0" cy="0" r="1" gradientUnits="userSpaceOnUse" gradientTransform="translate(27.1318 144.796) rotate(0.0229184) scale(15.2739 15.2739)">
<stop stop-color="white"/>
<stop offset="1" stop-color="#D46893"/>
</radialGradient>
<linearGradient id="paint8_linear_248_11582" x1="27.7836" y1="125.872" x2="27.7885" y2="113.626" gradientUnits="userSpaceOnUse">
<stop stop-color="#F1C2C4"/>
<stop offset="0.3626" stop-color="#EFBEC6"/>
<stop offset="0.7356" stop-color="#EAB2CE"/>
<stop offset="1" stop-color="#E5A4D6"/>
</linearGradient>
<radialGradient id="paint9_radial_248_11582" cx="0" cy="0" r="1" gradientUnits="userSpaceOnUse" gradientTransform="translate(27.2979 125.543) rotate(0.0229183) scale(3.89171)">
<stop stop-color="#FFB029"/>
<stop offset="0.3052" stop-color="#FFAC2B"/>
<stop offset="0.6197" stop-color="#FF9F30"/>
<stop offset="0.9374" stop-color="#FF8B39"/>
<stop offset="1" stop-color="#FF863B"/>
</radialGradient>
<radialGradient id="paint10_radial_248_11582" cx="0" cy="0" r="1" gradientUnits="userSpaceOnUse" gradientTransform="translate(26.9546 131.199) rotate(0.0229183) scale(4.5563 4.5563)">
<stop stop-color="white"/>
<stop offset="1" stop-color="#D46893"/>
</radialGradient>
<radialGradient id="paint11_radial_248_11582" cx="0" cy="0" r="1" gradientUnits="userSpaceOnUse" gradientTransform="translate(27.2739 141.65) rotate(0.0229181) scale(1.65081 1.6508)">
<stop stop-color="white"/>
<stop offset="1" stop-color="#D46893"/>
</radialGradient>
<radialGradient id="paint12_radial_248_11582" cx="0" cy="0" r="1" gradientUnits="userSpaceOnUse" gradientTransform="translate(21.0949 105.092) rotate(21.8812) scale(15.7154 15.7154)">
<stop stop-color="#FFB029"/>
<stop offset="0.3052" stop-color="#FFAC2B"/>
<stop offset="0.6197" stop-color="#FF9F30"/>
<stop offset="0.9374" stop-color="#FF8B39"/>
<stop offset="1" stop-color="#FF863B"/>
</radialGradient>
<linearGradient id="paint13_linear_248_11582" x1="0.744743" y1="103.966" x2="36.8659" y2="118.473" gradientUnits="userSpaceOnUse">
<stop stop-color="#FFD1C5"/>
<stop offset="0.168" stop-color="#FFD9B5"/>
<stop offset="0.4499" stop-color="#FFE2A0"/>
<stop offset="0.7291" stop-color="#FFE894"/>
<stop offset="1" stop-color="#FFEA90"/>
</linearGradient>
<linearGradient id="paint14_linear_248_11582" x1="1.63083" y1="103.876" x2="36.1999" y2="117.76" gradientUnits="userSpaceOnUse">
<stop stop-color="#FFD1C5"/>
<stop offset="0.168" stop-color="#FFD9B5"/>
<stop offset="0.4499" stop-color="#FFE2A0"/>
<stop offset="0.7291" stop-color="#FFE894"/>
<stop offset="1" stop-color="#FFEA90"/>
</linearGradient>
<radialGradient id="paint15_radial_248_11582" cx="0" cy="0" r="1" gradientUnits="userSpaceOnUse" gradientTransform="translate(35.7669 92.9728) rotate(-0.676126) scale(11.5378 11.5378)">
<stop stop-color="#FFB029"/>
<stop offset="0.4711" stop-color="#FFAE2D"/>
<stop offset="0.9557" stop-color="#FFA839"/>
<stop offset="1" stop-color="#FFA73B"/>
</radialGradient>
<linearGradient id="paint16_linear_248_11582" x1="21.6532" y1="97.9416" x2="50.2289" y2="97.6044" gradientUnits="userSpaceOnUse">
<stop stop-color="#FFD1C5"/>
<stop offset="0.168" stop-color="#FFD9B5"/>
<stop offset="0.4499" stop-color="#FFE2A0"/>
<stop offset="0.7291" stop-color="#FFE894"/>
<stop offset="1" stop-color="#FFEA90"/>
</linearGradient>
<linearGradient id="paint17_linear_248_11582" x1="22.2292" y1="97.6309" x2="49.5769" y2="97.3082" gradientUnits="userSpaceOnUse">
<stop stop-color="#FFD1C5"/>
<stop offset="0.168" stop-color="#FFD9B5"/>
<stop offset="0.4499" stop-color="#FFE2A0"/>
<stop offset="0.7291" stop-color="#FFE894"/>
<stop offset="1" stop-color="#FFEA90"/>
</linearGradient>
<radialGradient id="paint18_radial_248_11582" cx="0" cy="0" r="1" gradientUnits="userSpaceOnUse" gradientTransform="translate(23.9867 78.8571) rotate(-50.0793) scale(14.8214 14.8214)">
<stop stop-color="#FFB029"/>
<stop offset="0.4711" stop-color="#FFAE2D"/>
<stop offset="0.9557" stop-color="#FFA839"/>
<stop offset="1" stop-color="#FFA73B"/>
</radialGradient>
<linearGradient id="paint19_linear_248_11582" x1="17.0339" y1="96.7777" x2="40.5924" y2="68.6227" gradientUnits="userSpaceOnUse">
<stop stop-color="#FFD1C5"/>
<stop offset="0.168" stop-color="#FFD9B5"/>
<stop offset="0.4499" stop-color="#FFE2A0"/>
<stop offset="0.7291" stop-color="#FFE894"/>
<stop offset="1" stop-color="#FFEA90"/>
</linearGradient>
<linearGradient id="paint20_linear_248_11582" x1="17.2123" y1="95.9561" x2="39.7585" y2="69.0109" gradientUnits="userSpaceOnUse">
<stop stop-color="#FFD1C5"/>
<stop offset="0.168" stop-color="#FFD9B5"/>
<stop offset="0.4499" stop-color="#FFE2A0"/>
<stop offset="0.7291" stop-color="#FFE894"/>
<stop offset="1" stop-color="#FFEA90"/>
</linearGradient>
<linearGradient id="paint21_linear_248_11582" x1="7.39316" y1="120.021" x2="7.40899" y2="80.4445" gradientUnits="userSpaceOnUse">
<stop stop-color="#FF9A61"/>
<stop offset="0.0995225" stop-color="#EE905B"/>
<stop offset="0.2966" stop-color="#C2754A"/>
<stop offset="0.5725" stop-color="#7B4A2F"/>
<stop offset="0.9137" stop-color="#1A100A"/>
<stop offset="1"/>
</linearGradient>
<linearGradient id="paint22_linear_248_11582" x1="47.2474" y1="100.986" x2="47.2548" y2="82.3869" gradientUnits="userSpaceOnUse">
<stop/>
<stop offset="0.0863116" stop-color="#1A0C04"/>
<stop offset="0.4275" stop-color="#7B3815"/>
<stop offset="0.7034" stop-color="#C25821"/>
<stop offset="0.9005" stop-color="#EE6C29"/>
<stop offset="1" stop-color="#FF742C"/>
</linearGradient>
<linearGradient id="paint23_linear_248_11582" x1="39.2324" y1="102.025" x2="39.2399" y2="83.4256" gradientUnits="userSpaceOnUse">
<stop/>
<stop offset="0.0863116" stop-color="#1A0C04"/>
<stop offset="0.4275" stop-color="#7B3815"/>
<stop offset="0.7034" stop-color="#C25821"/>
<stop offset="0.9005" stop-color="#EE6C29"/>
<stop offset="1" stop-color="#FF742C"/>
</linearGradient>
<linearGradient id="paint24_linear_248_11582" x1="12.2973" y1="43.7889" x2="12.3146" y2="0.468975" gradientUnits="userSpaceOnUse">
<stop stop-color="#AE0095"/>
<stop offset="1" stop-color="#FF2247"/>
</linearGradient>
<linearGradient id="paint25_linear_248_11582" x1="25.1636" y1="69.4664" x2="25.1704" y2="52.5536" gradientUnits="userSpaceOnUse">
<stop stop-color="white"/>
<stop offset="1" stop-color="#D468AE"/>
</linearGradient>
<linearGradient id="paint26_linear_248_11582" x1="21.3203" y1="44.1846" x2="21.3328" y2="12.9561" gradientUnits="userSpaceOnUse">
<stop stop-color="#902DD4"/>
<stop offset="1" stop-color="#B65BC9"/>
</linearGradient>
<linearGradient id="paint27_linear_248_11582" x1="26.0241" y1="63.7977" x2="26.0284" y2="53.1032" gradientUnits="userSpaceOnUse">
<stop stop-color="white"/>
<stop offset="1" stop-color="#D468AE"/>
</linearGradient>
</defs>
</svg>
