<svg width="87" height="87" viewBox="0 0 87 87" fill="none" xmlns="http://www.w3.org/2000/svg">
<path d="M59.7968 86H27.1804C12.7263 86 1 74.2737 1 59.8196L1 27.1804C1 12.7263 12.7263 1 27.1804 1L59.8196 1C74.2737 1 86 12.7263 86 27.1804V59.8196C86 74.2731 74.2742 86 59.7968 86Z" fill="white" stroke="#0087FD" stroke-width="2"/>
<path fill-rule="evenodd" clip-rule="evenodd" d="M59.797 8.67969L27.1806 8.67969C16.9937 8.67969 8.67969 16.9708 8.67969 27.1806L8.67969 59.8199C8.67969 70.0068 16.9708 78.3208 27.1806 78.3208H59.8199C70.0068 78.3208 78.3208 70.0296 78.3208 59.8199V27.1806C78.298 16.9708 70.0068 8.67969 59.797 8.67969ZM67.0832 58.7235L60.1168 58.8149C60.1168 58.8149 58.6322 59.1118 56.645 57.7642C54.0412 55.9827 51.5972 51.3232 49.6786 51.9399C47.7372 52.5566 47.8057 56.7364 47.8057 56.7364C47.8057 56.7364 47.8285 57.6272 47.3717 58.1068C46.8921 58.6322 45.9556 58.7235 45.9556 58.7235H42.8493C42.8493 58.7235 35.9743 59.1347 29.9215 52.8306C23.3205 45.9556 17.4962 32.3198 17.4962 32.3198C17.4962 32.3198 17.1536 31.429 17.519 30.995C17.9301 30.5153 19.0493 30.4697 19.0493 30.4697L26.4954 30.424C26.4954 30.424 27.2034 30.5382 27.7059 30.9036C28.1171 31.2006 28.3455 31.7716 28.3455 31.7716C28.3455 31.7716 29.556 34.8094 31.132 37.5731C34.2384 42.9406 35.7002 44.1284 36.7508 43.5573C38.2812 42.7122 37.8243 35.9514 37.8243 35.9514C37.8243 35.9514 37.8472 33.5075 37.0478 32.4111C36.4311 31.566 35.2434 31.3148 34.7409 31.2462C34.3297 31.2006 35.0149 30.2184 35.9057 29.7844C37.2533 29.1221 39.6059 29.0992 42.4153 29.1221C44.5852 29.1449 45.2247 29.2819 46.0698 29.4875C48.628 30.1042 47.76 32.5025 47.76 38.2355C47.76 40.0627 47.4174 42.6666 48.765 43.5117C49.336 43.8771 50.7293 43.5573 54.2239 37.6416C55.8684 34.8322 57.1247 31.5432 57.1247 31.5432C57.1247 31.5432 57.3988 30.9493 57.8099 30.6981C58.2439 30.4468 58.8149 30.5153 58.8149 30.5153L66.6492 30.4697C66.6492 30.4697 69.0018 30.1956 69.3901 31.2462C69.8012 32.3654 68.4993 34.9693 65.3016 39.2405C60.0483 46.2525 59.4544 45.5902 63.817 49.633C67.974 53.493 68.8419 55.3888 69.0018 55.6172C70.7149 58.4951 67.0832 58.7235 67.0832 58.7235Z" fill="#0087FD"/>
</svg>
