<svg width="23" height="23" viewBox="0 0 23 23" fill="none" xmlns="http://www.w3.org/2000/svg">
<path fill-rule="evenodd" clip-rule="evenodd" d="M17.6556 10.2839C16.1575 10.8746 14.7564 11.3055 13.6665 11.5369C14.7469 11.8043 16.1319 12.2812 17.6109 12.9232C20.7377 14.2813 23.0714 15.8451 22.8235 16.4167C22.5751 16.9884 19.839 16.3509 16.7122 14.9928C15.2332 14.3508 13.9393 13.6641 13.0063 13.0573C13.5813 14.0118 14.5846 15.3297 14.8139 16.8278C16.0652 19.9989 16.6091 22.7552 16.0296 22.9837C15.6774 23.2122 13.9662 20.8267 12.7149 17.6556C12.2211 16.1576 11.6937 14.7564 11.4619 13.6662C11.1945 14.7469 10.7177 16.1319 10.3625 17.6109C8.71758 20.7377 7.22082 23.0715 6.58212 22.9055C6.01049 22.5752 6.64794 19.8391 8.29289 16.7119C8.64804 15.2329 9.33475 13.9394 9.94157 13.0064C8.98705 13.5813 7.6691 14.2233 6.17151 14.814C2.99998 16.0649 0.243625 16.978 0.0151356 16.0297C-0.213353 15.4502 2.17212 13.9658 5.34323 12.7149C6.84124 12.1243 8.24239 11.6934 9.33268 11.462C8.25191 11.1946 6.86691 10.7177 5.38794 10.0757C2.26112 8.71763 -0.0726174 7.15381 0.175326 6.58217C0.423684 6.01054 3.15976 6.64799 6.28699 8.00609C7.76596 8.64809 9.0599 9.3348 9.9929 9.94162C9.41754 8.9871 8.77553 7.66915 8.18486 6.17114C6.93396 3.00003 6.38965 0.243675 6.96915 0.0151859C7.54906 -0.213717 9.033 2.17217 10.2839 5.34328C11.1614 6.84129 11.4843 8.24244 11.5369 9.33273C11.8043 8.25196 12.2811 6.86696 12.9231 5.38799C14.2812 2.26117 15.9009 -0.072567 16.4167 0.175377C16.9883 0.423734 16.3509 3.15981 14.9932 6.55113C14.3507 7.7656 13.6645 9.05954 13.0572 10.0819C14.0117 9.41759 15.3297 9.08852 16.8277 8.18491C20.1851 6.93401 22.7552 6.3897 22.9837 6.9692C23.2126 7.5487 21.0171 9.03305 17.6556 10.2839Z" fill="#019EE3"/>
</svg>
