<svg width="295" height="384" viewBox="0 0 295 384" fill="none" xmlns="http://www.w3.org/2000/svg">
<g clip-path="url(#clip0_367_8986)">
<g filter="url(#filter0_d_367_8986)">
<path d="M200.937 362.995H94.0664L97.3463 315.517L114.293 56.567V56.0213L116.752 19.4573H178.524L180.711 56.0213L180.984 56.567L197.93 315.517L200.937 362.995Z" fill="#B3B3B3"/>
<path opacity="0.5" d="M197.93 315.517C182.35 321.793 165.404 325.067 147.638 325.067C129.871 325.067 112.925 321.793 97.3457 315.517L98.1657 302.692L98.439 298.872L113.199 72.6661L113.472 68.846C124.405 65.8445 135.885 64.2073 147.638 64.2073C159.391 64.2073 170.87 65.8445 181.803 68.846L182.077 72.6661L196.836 298.599L197.11 302.419L197.93 315.517Z" fill="#D4D4D4"/>
<path d="M221.307 262.063C261.974 221.463 261.974 155.639 221.307 115.04C180.639 74.4406 114.704 74.4406 74.0358 115.04C33.3681 155.639 33.3681 221.463 74.0358 262.063C114.704 302.662 180.639 302.662 221.307 262.063Z" fill="#BD76C2"/>
<path d="M134.246 289.049C142.719 290.14 151.739 290.14 160.759 289.049L147.639 188.634L134.246 289.049Z" fill="#46F4FA"/>
<path d="M147.639 188.634L67.0078 250.302C72.4743 257.396 78.7608 263.672 85.594 269.13L147.639 188.634Z" fill="#EA3A3A"/>
<path d="M85.8652 268.857C92.9717 274.314 100.625 278.68 108.825 281.954L147.637 188.634L85.8652 268.857Z" fill="#46F4FA"/>
<path d="M53.8867 227.381C57.44 235.567 61.8132 243.207 67.2797 250.302L147.638 188.634L53.8867 227.381Z" fill="#46F4FA"/>
<path d="M147.638 188.634L108.826 282.227C117.026 285.502 125.499 287.957 134.519 289.049L147.638 188.634Z" fill="#EA3A3A"/>
<path d="M147.639 188.634L47.0547 201.732C48.148 210.736 50.6079 219.195 53.8878 227.381L147.639 188.634Z" fill="#EA3A3A"/>
<path d="M147.638 188.634L47.0544 175.264C45.961 183.723 45.961 192.727 47.0544 201.732L147.638 188.634Z" fill="#46F4FA"/>
<path d="M147.639 188.634L186.451 282.227C194.651 278.68 202.304 274.314 209.41 268.857L147.639 188.634Z" fill="#46F4FA"/>
<path d="M147.639 188.634L227.997 250.302C233.463 243.207 237.836 235.567 241.116 227.381L147.639 188.634Z" fill="#46F4FA"/>
<path d="M147.639 188.634L241.39 227.381C244.669 219.195 247.129 210.736 248.223 201.732L147.639 188.634Z" fill="#EA3A3A"/>
<path d="M160.758 289.049C169.778 287.957 178.251 285.502 186.451 282.227L147.639 188.634L160.758 289.049Z" fill="#EA3A3A"/>
<path d="M209.41 268.857C216.517 263.4 222.803 257.124 228.27 250.302L147.639 188.634L209.41 268.857Z" fill="#EA3A3A"/>
<path d="M147.639 188.634L53.8878 149.887C50.6079 158.073 48.148 166.532 47.0547 175.537L147.639 188.634Z" fill="#EA3A3A"/>
<path d="M147.639 188.634L85.8673 108.139C78.7608 113.596 72.4743 119.872 67.0078 126.966L147.639 188.634Z" fill="#EA3A3A"/>
<path d="M147.639 188.634L241.39 149.887C237.836 141.701 233.463 134.061 228.27 126.967L147.639 188.634Z" fill="#46F4FA"/>
<path d="M67.0064 126.967C61.5398 134.061 57.1666 141.701 53.8867 149.887L147.638 188.634L67.0064 126.967Z" fill="#46F4FA"/>
<path d="M147.639 188.634L209.41 108.139C202.304 102.682 194.651 98.3157 186.451 95.0413L147.639 188.634Z" fill="#46F4FA"/>
<path d="M147.639 188.634L248.223 175.537C247.129 166.532 244.669 158.073 241.39 149.887L147.639 188.634Z" fill="#EA3A3A"/>
<path d="M147.639 188.634L248.223 201.732C249.316 193.273 249.316 184.268 248.223 175.264L147.639 188.634Z" fill="#46F4FA"/>
<path d="M227.997 126.966C222.53 119.872 216.244 113.596 209.41 108.139L147.639 188.634L227.997 126.966Z" fill="#EA3A3A"/>
<path d="M186.451 95.0411C178.251 91.7667 169.778 89.3109 160.758 88.2195L147.639 188.634L186.451 95.0411Z" fill="#EA3A3A"/>
<path d="M108.825 95.0413C100.625 98.5885 92.9717 102.954 85.8652 108.412L147.637 188.634L108.825 95.0413Z" fill="#46F4FA"/>
<path d="M147.639 188.634L160.759 88.2195C152.286 87.128 143.266 87.128 134.246 88.2195L147.639 188.634Z" fill="#46F4FA"/>
<path d="M147.638 188.634L134.519 88.2195C125.499 89.3109 117.026 91.7667 108.826 95.0411L147.638 188.634Z" fill="#EA3A3A"/>
<path d="M147.638 67.7546C80.6732 67.7546 26.5547 121.782 26.5547 188.634C26.5547 255.486 80.6732 309.241 147.365 309.241C214.056 309.241 268.175 255.213 268.175 188.634C268.175 122.055 214.33 67.7546 147.638 67.7546ZM147.638 288.503C92.1529 288.503 47.6008 243.753 47.6008 188.634C47.6008 133.515 92.4263 88.7653 147.638 88.7653C202.85 88.7653 247.675 133.515 247.675 188.634C247.675 243.753 202.85 288.503 147.638 288.503Z" fill="#95219C"/>
<path d="M181.804 68.846C170.871 65.8445 159.392 64.2073 147.639 64.2073C135.886 64.2073 124.406 65.8445 113.473 68.846C61.2676 83.8536 23.002 131.605 23.002 188.634C23.002 239.933 53.8878 283.591 98.1666 302.692C107.46 306.785 117.299 309.514 127.412 311.151C129.052 311.424 130.419 311.697 132.059 311.697C135.886 312.242 139.712 312.515 143.539 312.515C144.905 312.515 146.272 312.515 147.365 312.515C148.732 312.515 150.099 312.515 151.192 312.515C155.018 312.515 158.845 311.969 162.672 311.697C164.311 311.424 165.678 311.151 167.318 311.151C177.704 309.514 187.271 306.512 196.564 302.692C240.843 283.591 271.729 239.66 271.729 188.634C272.002 131.605 234.01 83.8536 181.804 68.846ZM196.837 298.872C187.271 303.238 177.158 306.239 166.498 307.876C165.131 308.149 163.492 308.422 162.125 308.422C157.478 308.968 152.558 309.241 147.639 309.241C142.719 309.241 137.799 308.968 133.152 308.422C131.786 308.149 130.146 308.149 128.779 307.876C118.119 306.239 108.006 303.238 98.4399 298.872C56.0744 280.044 26.5552 237.75 26.5552 188.634C26.5552 133.788 62.9076 87.6737 113.2 72.939C124.133 69.6646 135.612 68.0274 147.639 68.0274C159.665 68.0274 171.145 69.6646 182.078 72.939C232.096 87.6737 268.449 133.788 268.449 188.634C268.449 237.75 238.93 280.044 196.837 298.872Z" fill="#B031B9"/>
<path opacity="0.5" d="M147.637 88.4924C92.1517 88.4924 47.5996 133.242 47.5996 188.634C47.5996 244.026 92.4251 288.503 147.637 288.503C202.849 288.503 247.674 243.753 247.674 188.634C247.674 133.515 202.849 88.4924 147.637 88.4924ZM147.637 282.5C95.705 282.5 53.3395 240.479 53.3395 188.361C53.3395 136.244 95.4317 94.2226 147.637 94.2226C199.569 94.4955 241.661 136.517 241.661 188.634C241.661 240.752 199.569 282.5 147.637 282.5Z" fill="#D4D4D4"/>
<path d="M146.817 372C208.859 372 259.154 367.969 259.154 362.996C259.154 358.022 208.859 353.991 146.817 353.991C84.7754 353.991 34.4805 358.022 34.4805 362.996C34.4805 367.969 84.7754 372 146.817 372Z" fill="#C5D3D4"/>
<path opacity="0.09" d="M153.925 76.7592C153.925 80.3065 151.191 83.0351 147.638 83.0351C144.085 83.0351 141.352 80.3065 141.352 76.7592C141.352 73.212 144.085 70.4833 147.638 70.4833C151.191 70.2105 153.925 73.212 153.925 76.7592Z" fill="white"/>
<path d="M147.912 81.9437C150.478 81.9437 152.559 79.8669 152.559 77.305C152.559 74.7431 150.478 72.6663 147.912 72.6663C145.346 72.6663 143.266 74.7431 143.266 77.305C143.266 79.8669 145.346 81.9437 147.912 81.9437Z" fill="#C4C4C4"/>
<path d="M152.012 76.7593C152.012 79.2151 149.825 81.398 147.365 81.398C144.905 81.398 142.719 79.2151 142.719 76.7593C142.719 76.4865 142.719 76.4865 142.719 76.2136C142.992 74.0307 144.905 72.1206 147.365 72.1206C149.279 72.1206 150.645 73.2121 151.465 74.5764C152.012 75.1221 152.012 75.9407 152.012 76.7593Z" fill="#EDD064"/>
<path d="M151.739 74.5764C151.465 76.7593 149.552 78.6694 147.366 78.6694C145.452 78.6694 144.086 77.5779 143.266 76.2136C143.539 74.0307 145.452 72.1206 147.912 72.1206C149.279 72.1206 150.919 73.2121 151.739 74.5764Z" fill="#FFD535"/>
<path d="M146.546 76.4863C147.452 76.4863 148.186 75.7533 148.186 74.8491C148.186 73.9449 147.452 73.2119 146.546 73.2119C145.64 73.2119 144.906 73.9449 144.906 74.8491C144.906 75.7533 145.64 76.4863 146.546 76.4863Z" fill="#FFF6D4"/>
<path opacity="0.09" d="M124.679 78.9421C125.499 82.2164 123.585 85.7637 120.305 86.5823C117.025 87.4009 113.472 85.4908 112.652 82.2164C111.832 78.9421 113.746 75.3948 117.026 74.5762C120.305 73.4847 123.859 75.3948 124.679 78.9421Z" fill="white"/>
<path d="M123.585 79.7605C124.131 82.2163 122.765 84.6721 120.305 85.4907C117.845 86.0365 115.385 84.6721 114.565 82.2163C114.018 79.7605 115.385 77.3047 117.845 76.4861C120.305 75.9404 122.765 77.3047 123.585 79.7605Z" fill="#C4C4C4"/>
<path d="M123.039 79.215C123.585 81.6708 122.219 84.1265 119.759 84.9451C117.299 85.7637 114.839 84.1265 114.019 81.6708C114.019 81.3979 114.019 81.3979 114.019 81.125C113.746 78.9421 115.112 76.7592 117.299 75.9406C118.939 75.3948 120.852 75.9406 121.945 77.3049C122.492 77.8506 122.765 78.6692 123.039 79.215Z" fill="#EDD064"/>
<path d="M121.945 77.305C122.219 79.4879 120.852 81.9437 118.666 82.4894C117.026 83.0351 115.112 82.4894 114.019 81.1251C113.746 78.9422 115.112 76.7592 117.299 75.9406C119.212 75.6678 120.852 76.2135 121.945 77.305Z" fill="#FFD535"/>
<path d="M118.666 78.3963C118.939 79.2149 118.393 80.3064 117.299 80.5792C116.479 80.8521 115.386 80.3064 115.113 79.2149C114.839 78.3963 115.386 77.3048 116.479 77.032C117.573 77.032 118.393 77.5777 118.666 78.3963Z" fill="#FFF6D4"/>
<path opacity="0.09" d="M97.0732 88.4924C98.7132 91.4939 97.8932 95.314 94.6133 97.2241C91.6067 98.8613 87.7801 98.0427 85.8669 94.7683C84.2269 91.7668 85.0469 87.9467 88.3268 86.0366C91.3334 84.3994 95.1599 85.4909 97.0732 88.4924Z" fill="white"/>
<path d="M95.9813 89.5838C97.3479 91.7667 96.528 94.4954 94.3414 95.8597C92.1547 97.224 89.4215 96.4054 88.0548 94.2225C86.6882 92.0396 87.5082 89.3109 89.6948 87.9466C91.8814 86.8551 94.888 87.4009 95.9813 89.5838Z" fill="#C4C4C4"/>
<path d="M95.4328 89.311C96.7994 91.494 95.9794 94.2226 93.7928 95.5869C91.6062 96.9513 88.873 96.1327 87.5063 93.9498C87.5063 93.6769 87.233 93.6769 87.233 93.404C86.413 91.2211 86.9597 88.7653 89.1463 87.6738C90.7863 86.8552 92.6995 86.8552 94.0662 87.9467C94.6128 88.2196 95.1595 88.7653 95.4328 89.311Z" fill="#EDD064"/>
<path d="M94.0662 87.9467C95.1595 90.1296 94.3395 92.5854 92.1529 93.6769C90.5129 94.4955 88.5996 94.4955 87.233 93.404C86.413 91.2211 86.9597 88.7653 89.1463 87.6738C90.7863 86.8552 92.6995 86.8552 94.0662 87.9467Z" fill="#FFD535"/>
<path d="M91.0605 89.5838C91.6072 90.4024 91.3338 91.4939 90.5139 92.0396C89.6939 92.5853 88.6006 92.3125 88.0539 91.4939C87.5073 90.6753 87.7806 89.5838 88.6006 89.0381C89.6939 88.4923 90.5139 88.7652 91.0605 89.5838Z" fill="#FFF6D4"/>
<path opacity="0.09" d="M68.3724 115.779C71.8444 115.779 74.6589 112.969 74.6589 109.503C74.6589 106.037 71.8444 103.227 68.3724 103.227C64.9005 103.227 62.0859 106.037 62.0859 109.503C62.0859 112.969 64.9005 115.779 68.3724 115.779Z" fill="white"/>
<path d="M72.1999 106.229C74.1131 108.139 74.1131 110.868 72.1999 112.778C70.2866 114.688 67.5533 114.688 65.64 112.778C63.7268 110.868 63.7268 108.139 65.64 106.229C67.5533 104.592 70.2866 104.592 72.1999 106.229Z" fill="#C4C4C4"/>
<path d="M71.6525 106.229C73.5657 108.139 73.5657 110.868 71.6525 112.778C69.7392 114.688 67.0059 114.688 65.0926 112.778L64.8193 112.505C63.4527 110.595 63.4527 108.139 65.0926 106.502C66.4593 105.137 68.0992 104.865 69.7392 105.41C70.2858 105.41 71.1058 105.683 71.6525 106.229Z" fill="#EDD064"/>
<path d="M69.7392 105.137C71.1058 107.047 71.1058 109.503 69.4659 111.14C68.0992 112.505 66.4593 112.778 64.8193 112.232C63.4527 110.322 63.4527 107.866 65.0926 106.229C66.1859 104.864 68.0992 104.592 69.7392 105.137Z" fill="#FFD535"/>
<path d="M66.1849 110.595C67.0906 110.595 67.8248 109.862 67.8248 108.958C67.8248 108.053 67.0906 107.32 66.1849 107.32C65.2792 107.32 64.5449 108.053 64.5449 108.958C64.5449 109.862 65.2792 110.595 66.1849 110.595Z" fill="#FFF6D4"/>
<path opacity="0.09" d="M53.6137 127.239C56.6203 128.877 57.7136 132.97 56.0736 135.971C54.4336 138.973 50.3338 140.064 47.3272 138.427C44.3206 136.79 43.2273 132.697 44.8672 129.695C46.7805 126.421 50.6071 125.329 53.6137 127.239Z" fill="white"/>
<path d="M53.3394 128.604C55.526 129.968 56.346 132.697 54.9793 134.88C53.6127 137.063 50.8795 137.881 48.6929 136.517C46.5062 135.153 45.6863 132.424 47.0529 130.241C48.4195 128.058 51.1528 127.239 53.3394 128.604Z" fill="#C4C4C4"/>
<path d="M52.7928 128.604C54.9794 129.968 55.7994 132.697 54.4328 134.88C53.0662 137.063 50.3329 137.881 48.1463 136.517C47.873 136.517 47.873 136.244 47.5996 136.244C45.6864 134.88 45.1397 132.424 46.233 130.241C47.053 128.604 48.6929 127.785 50.6062 128.058C51.4262 128.058 52.2462 128.331 52.7928 128.604Z" fill="#EDD064"/>
<path d="M50.6062 128.058C52.5195 129.422 53.0662 131.878 51.9729 134.061C51.1529 135.698 49.5129 136.517 47.5996 136.244C45.6864 134.88 45.1397 132.424 46.233 130.241C47.3263 128.877 48.9663 128.058 50.6062 128.058Z" fill="#FFD535"/>
<path d="M49.2404 131.06C50.0604 131.605 50.3337 132.697 49.7871 133.515C49.2404 134.334 48.1471 134.607 47.3271 134.061C46.5072 133.515 46.2338 132.424 46.7805 131.605C47.3271 130.787 48.4205 130.514 49.2404 131.06Z" fill="#FFF6D4"/>
<path opacity="0.09" d="M41.2848 165.658C44.6023 164.636 46.4616 161.123 45.4377 157.811C44.4138 154.499 40.8945 152.643 37.5771 153.665C34.2596 154.687 32.4003 158.201 33.4242 161.513C34.4481 164.824 37.9674 166.681 41.2848 165.658Z" fill="white"/>
<path d="M41.0392 155.072C43.4991 155.618 44.8657 158.346 44.3191 160.802C43.7724 163.258 41.0392 164.622 38.5792 164.076C36.1193 163.531 34.7527 160.802 35.2993 158.346C36.1193 155.89 38.5792 154.253 41.0392 155.072Z" fill="#C4C4C4"/>
<path d="M40.4944 155.072C42.9543 155.618 44.321 158.346 43.7743 160.802C43.2276 163.258 40.4944 164.622 38.0345 164.076C37.7611 164.076 37.7611 164.076 37.4878 163.803C35.3012 162.985 34.2079 160.802 34.7545 158.346C35.3012 156.709 36.6678 155.345 38.3078 155.072C39.1278 155.072 39.6744 155.072 40.4944 155.072Z" fill="#EDD064"/>
<path d="M38.3078 155.072C40.4944 155.89 41.5877 158.346 41.041 160.529C40.4944 162.166 39.1278 163.531 37.4878 163.803C35.3012 162.985 34.2079 160.802 34.7545 158.346C35.3012 156.709 36.6678 155.345 38.3078 155.072Z" fill="#FFD535"/>
<path d="M37.7608 158.619C38.5808 158.892 39.1275 159.71 39.1275 160.802C38.8541 161.62 38.0342 162.166 36.9408 162.166C36.1209 161.893 35.5742 161.075 35.5742 159.983C35.8475 158.892 36.6675 158.346 37.7608 158.619Z" fill="#FFF6D4"/>
<path opacity="0.09" d="M35.5733 182.085C39.1266 182.085 41.8598 184.814 41.8598 188.361C41.8598 191.909 39.1266 194.637 35.5733 194.637C32.0201 194.637 29.2868 191.909 29.2868 188.361C29.0135 185.087 32.0201 182.085 35.5733 182.085Z" fill="white"/>
<path d="M36.1192 183.723C38.5791 183.723 40.7657 185.906 40.7657 188.361C40.7657 190.817 38.5791 193 36.1192 193C33.6593 193 31.4727 190.817 31.4727 188.361C31.4727 185.633 33.3859 183.723 36.1192 183.723Z" fill="#C4C4C4"/>
<path d="M35.5743 183.996C38.0342 183.996 40.2208 186.179 40.2208 188.634C40.2208 191.09 38.0342 193.273 35.5743 193.273C35.301 193.273 35.301 193.273 35.0276 193.273C32.841 193 30.9277 191.09 30.9277 188.634C30.9277 186.724 32.021 185.36 33.3877 184.541C33.9343 184.268 34.7543 183.996 35.5743 183.996Z" fill="#EDD064"/>
<path d="M33.3877 184.541C35.5743 184.814 37.4876 186.724 37.4876 188.907C37.4876 190.817 36.3943 192.181 35.0276 193C32.841 192.727 30.9277 190.817 30.9277 188.361C30.9277 186.724 32.021 185.087 33.3877 184.541Z" fill="#FFD535"/>
<path d="M33.6595 191.363C34.5652 191.363 35.2994 190.63 35.2994 189.726C35.2994 188.822 34.5652 188.089 33.6595 188.089C32.7538 188.089 32.0195 188.822 32.0195 189.726C32.0195 190.63 32.7538 191.363 33.6595 191.363Z" fill="#FFF6D4"/>
<path opacity="0.09" d="M37.7602 211.282C41.0402 210.463 44.5934 212.373 45.4134 215.921C46.2333 219.195 44.3201 222.742 41.0402 223.561C37.7602 224.38 34.207 222.47 33.387 219.195C32.2937 215.921 34.207 212.374 37.7602 211.282Z" fill="white"/>
<path d="M38.5792 212.646C41.0392 212.101 43.4991 213.465 44.3191 215.921C44.8657 218.376 43.4991 220.832 41.0392 221.378C38.5792 221.924 36.1193 220.559 35.2993 218.104C34.7527 215.648 36.1193 213.192 38.5792 212.646Z" fill="#C4C4C4"/>
<path d="M38.0343 213.192C40.4942 212.646 42.9542 214.011 43.7742 216.467C44.3208 218.922 42.9542 221.378 40.4942 222.197C40.2209 222.197 40.2209 222.197 39.9476 222.197C37.761 222.47 35.5744 221.105 34.7544 218.922C34.2077 217.285 34.7544 215.375 36.121 214.284C36.6677 213.738 37.4877 213.192 38.0343 213.192Z" fill="#EDD064"/>
<path d="M36.1199 214.011C38.3065 213.738 40.7664 215.102 41.3131 217.285C41.8597 218.922 41.3131 220.832 39.9464 221.924C37.7598 222.197 35.5732 220.832 34.7532 218.649C34.4799 217.012 35.0266 215.102 36.1199 214.011Z" fill="#FFD535"/>
<path d="M37.2143 217.285C38.3076 217.012 39.1276 217.558 39.4009 218.649C39.6742 219.468 39.1276 220.56 38.0343 220.832C37.2143 221.105 36.121 220.56 35.8477 219.468C35.8477 218.649 36.3943 217.558 37.2143 217.285Z" fill="#FFF6D4"/>
<path opacity="0.09" d="M47.3272 239.114C50.3338 237.477 54.1603 238.296 56.0736 241.57C57.7136 244.572 56.8936 248.392 53.6137 250.302C50.6071 251.939 46.7805 251.12 44.8672 247.846C43.2273 244.572 44.3206 240.751 47.3272 239.114Z" fill="white"/>
<path d="M48.4214 239.933C50.608 238.569 53.3412 239.387 54.7079 241.57C56.0745 243.753 55.2545 246.482 53.0679 247.846C50.8813 249.21 48.148 248.392 46.7814 246.209C45.4148 244.026 46.2348 241.297 48.4214 239.933Z" fill="#C4C4C4"/>
<path d="M48.1463 240.479C50.3329 239.114 53.0662 239.933 54.4328 242.116C55.7994 244.299 54.9795 247.027 52.7929 248.392C52.5195 248.392 52.5195 248.665 52.2462 248.665C50.0596 249.483 47.5997 248.937 46.5064 246.754C45.6864 245.117 45.6864 243.207 46.7797 241.843C47.053 241.297 47.5997 241.024 48.1463 240.479Z" fill="#EDD064"/>
<path d="M46.7797 242.116C48.9663 241.024 51.4262 241.843 52.5195 244.026C53.3395 245.663 53.3395 247.573 52.2462 248.938C50.0596 249.756 47.5997 249.21 46.5064 247.027C45.6864 245.117 45.6864 243.48 46.7797 242.116Z" fill="#FFD535"/>
<path d="M48.4209 244.844C49.2409 244.299 50.3342 244.572 50.8808 245.39C51.4275 246.209 51.1542 247.3 50.3342 247.846C49.5142 248.392 48.4209 248.119 47.8742 247.3C47.3276 246.482 47.6009 245.39 48.4209 244.844Z" fill="#FFF6D4"/>
<path opacity="0.09" d="M63.7258 263.127C66.1857 260.671 70.2856 260.671 72.7456 263.127C75.2055 265.582 75.2055 269.675 72.7456 272.131C70.2856 274.587 66.1857 274.587 63.7258 272.131C61.2659 269.675 61.2659 265.582 63.7258 263.127Z" fill="white"/>
<path d="M68.3731 271.585C70.9393 271.585 73.0196 269.508 73.0196 266.947C73.0196 264.385 70.9393 262.308 68.3731 262.308C65.8069 262.308 63.7266 264.385 63.7266 266.947C63.7266 269.508 65.8069 271.585 68.3731 271.585Z" fill="#C4C4C4"/>
<path d="M65.0918 264.491C67.005 262.581 69.7383 262.581 71.6516 264.491C73.5649 266.401 73.5649 269.13 71.6516 271.04L71.3783 271.313C69.465 272.677 67.005 272.677 65.3651 271.04C63.9984 269.675 63.7251 268.038 64.2718 266.401C64.2718 265.582 64.5451 265.037 65.0918 264.491Z" fill="#EDD064"/>
<path d="M63.9983 266.401C65.9116 265.037 68.3716 265.037 70.0115 266.674C71.3781 268.038 71.6515 269.675 71.1048 271.312C69.1915 272.677 66.7316 272.677 65.0916 271.04C63.725 269.675 63.4517 267.765 63.9983 266.401Z" fill="#FFD535"/>
<path d="M67.8255 271.312C68.7312 271.312 69.4655 270.579 69.4655 269.675C69.4655 268.771 68.7312 268.038 67.8255 268.038C66.9198 268.038 66.1855 268.771 66.1855 269.675C66.1855 270.579 66.9198 271.312 67.8255 271.312Z" fill="#FFF6D4"/>
<path opacity="0.09" d="M85.8653 282.227C87.5052 279.226 91.6051 278.134 94.6117 279.771C97.6183 281.409 98.7116 285.502 97.0716 288.503C95.4317 291.505 91.3318 292.596 88.3252 290.959C85.3186 289.322 84.2253 285.229 85.8653 282.227Z" fill="white"/>
<path d="M87.506 282.5C88.8727 280.317 91.6059 279.499 93.7925 280.863C95.9791 282.227 96.7991 284.956 95.4325 287.139C94.0658 289.322 91.3326 290.14 89.146 288.776C86.9594 287.412 86.1394 284.683 87.506 282.5Z" fill="#C4C4C4"/>
<path d="M87.5047 283.319C88.8713 281.136 91.6046 280.317 93.7912 281.682C95.9778 283.046 96.7978 285.775 95.4312 287.958C95.4312 288.23 95.1578 288.23 95.1578 288.503C93.7912 290.413 91.3313 290.959 89.1447 289.868C87.5047 289.049 86.6847 287.412 86.958 285.502C86.958 284.41 87.2314 283.865 87.5047 283.319Z" fill="#EDD064"/>
<path d="M86.9582 285.229C88.3248 283.319 90.7847 282.773 92.9714 283.864C94.6113 284.683 95.4313 286.32 95.158 288.23C93.7913 290.14 91.3314 290.686 89.1448 289.595C87.7782 288.503 86.6849 286.866 86.9582 285.229Z" fill="#FFD535"/>
<path d="M89.966 286.866C90.5127 286.047 91.606 285.775 92.426 286.32C93.246 286.866 93.5193 287.957 92.9726 288.776C92.426 289.595 91.3327 289.868 90.5127 289.322C89.6927 288.776 89.4194 287.685 89.966 286.866Z" fill="#FFF6D4"/>
<path opacity="0.09" d="M112.379 295.052C113.199 291.777 116.752 289.595 120.032 290.686C123.312 291.505 125.498 295.052 124.405 298.326C123.585 301.601 120.032 303.784 116.752 302.692C113.472 301.874 111.559 298.326 112.379 295.052Z" fill="white"/>
<path d="M114.018 294.779C114.565 292.323 117.298 290.959 119.758 291.505C122.218 292.05 123.584 294.779 123.038 297.235C122.491 299.691 119.758 301.055 117.298 300.509C114.838 299.691 113.198 297.235 114.018 294.779Z" fill="#C4C4C4"/>
<path d="M114.02 295.598C114.566 293.142 117.299 291.778 119.759 292.323C122.219 292.869 123.586 295.598 123.039 298.053C123.039 298.326 123.039 298.326 122.766 298.599C121.946 300.782 119.759 301.874 117.299 301.328C115.659 300.782 114.293 299.418 114.02 297.781C114.02 296.962 114.02 296.143 114.02 295.598Z" fill="#EDD064"/>
<path d="M114.02 297.508C114.84 295.325 117.299 294.233 119.486 294.779C121.126 295.325 122.493 296.689 122.766 298.326C121.946 300.509 119.759 301.601 117.299 301.055C115.659 300.509 114.293 299.145 114.02 297.508Z" fill="#FFD535"/>
<path d="M117.299 298.326C117.572 297.508 118.392 296.962 119.485 296.962C120.579 296.962 120.852 298.053 120.852 299.145C120.579 299.963 119.759 300.509 118.665 300.509C117.845 300.236 117.299 299.145 117.299 298.326Z" fill="#FFF6D4"/>
<path opacity="0.09" d="M170.324 298.326C169.504 295.052 171.417 291.505 174.697 290.686C177.977 289.868 181.531 291.778 182.35 295.052C183.17 298.326 181.257 301.874 177.977 302.692C174.697 303.784 171.417 301.601 170.324 298.326Z" fill="white"/>
<path d="M171.69 297.508C171.143 295.052 172.51 292.596 174.97 291.778C177.43 291.232 179.89 292.596 180.71 295.052C181.256 297.508 179.89 299.964 177.43 300.782C174.697 301.328 172.237 299.964 171.69 297.508Z" fill="#C4C4C4"/>
<path d="M172.237 297.781C171.69 295.325 173.057 292.869 175.517 292.051C177.977 291.232 180.437 292.869 181.257 295.325C181.257 295.598 181.257 295.598 181.257 295.871C181.53 298.054 180.163 300.237 177.977 301.055C176.337 301.601 174.423 301.055 173.33 299.691C172.783 299.145 172.237 298.599 172.237 297.781Z" fill="#EDD064"/>
<path d="M173.058 299.691C172.785 297.508 174.151 295.052 176.338 294.506C177.978 293.961 179.891 294.506 180.985 295.871C181.258 298.054 179.891 300.236 177.705 301.055C176.065 301.601 174.151 301.055 173.058 299.691Z" fill="#FFD535"/>
<path d="M176.337 298.599C176.064 297.781 176.611 296.689 177.704 296.416C178.524 296.143 179.617 296.689 179.89 297.781C180.164 298.599 179.617 299.691 178.524 299.963C177.704 300.236 176.611 299.691 176.337 298.599Z" fill="#FFF6D4"/>
<path opacity="0.09" d="M198.203 288.776C196.563 285.774 197.383 281.954 200.663 280.044C203.669 278.407 207.496 279.226 209.409 282.5C211.049 285.502 210.229 289.322 206.949 291.232C203.669 293.142 199.843 291.777 198.203 288.776Z" fill="white"/>
<path d="M199.024 287.411C197.657 285.228 198.477 282.5 200.664 281.136C202.85 279.771 205.583 280.59 206.95 282.773C208.317 284.956 207.497 287.684 205.31 289.049C203.123 290.413 200.39 289.594 199.024 287.411Z" fill="#C4C4C4"/>
<path d="M199.569 287.684C198.202 285.501 199.022 282.773 201.208 281.408C203.395 280.044 206.128 280.863 207.495 283.046C207.495 283.319 207.768 283.319 207.768 283.591C208.588 285.774 208.042 288.23 205.855 289.322C204.215 290.14 202.302 290.14 200.935 289.049C200.388 289.049 200.115 288.503 199.569 287.684Z" fill="#EDD064"/>
<path d="M201.209 289.322C200.115 287.139 200.935 284.683 203.122 283.591C204.762 282.773 206.675 282.773 208.042 283.864C208.862 286.047 208.315 288.503 206.129 289.594C204.215 290.413 202.575 290.14 201.209 289.322Z" fill="#FFD535"/>
<path d="M203.943 287.412C203.396 286.593 203.669 285.502 204.489 284.956C205.309 284.41 206.403 284.683 206.949 285.502C207.496 286.32 207.223 287.412 206.403 287.957C205.583 288.503 204.489 288.23 203.943 287.412Z" fill="#FFF6D4"/>
<path opacity="0.09" d="M226.904 274.041C230.376 274.041 233.19 271.231 233.19 267.765C233.19 264.299 230.376 261.489 226.904 261.489C223.432 261.489 220.617 264.299 220.617 267.765C220.617 271.231 223.432 274.041 226.904 274.041Z" fill="white"/>
<path d="M222.804 270.767C220.891 268.857 220.891 266.128 222.804 264.218C224.717 262.308 227.451 262.308 229.364 264.218C231.277 266.128 231.277 268.857 229.364 270.767C227.724 272.677 224.717 272.677 222.804 270.767Z" fill="#C4C4C4"/>
<path d="M223.622 271.04C221.709 269.13 221.709 266.401 223.622 264.491C225.536 262.581 228.269 262.581 230.182 264.491L230.456 264.764C231.822 266.674 231.822 269.13 230.182 270.767C228.816 272.131 227.176 272.404 225.536 271.858C224.716 271.858 224.169 271.585 223.622 271.04Z" fill="#EDD064"/>
<path d="M225.265 272.131C223.898 270.221 223.898 267.765 225.538 266.128C226.905 264.764 228.545 264.491 230.185 265.036C231.551 266.947 231.551 269.402 229.911 271.04C228.818 272.131 226.905 272.677 225.265 272.131Z" fill="#FFD535"/>
<path d="M228.816 269.948C229.721 269.948 230.456 269.215 230.456 268.311C230.456 267.407 229.721 266.674 228.816 266.674C227.91 266.674 227.176 267.407 227.176 268.311C227.176 269.215 227.91 269.948 228.816 269.948Z" fill="#FFF6D4"/>
<path opacity="0.09" d="M241.388 250.029C238.381 248.392 237.288 244.299 238.928 241.297C240.568 238.296 244.668 237.204 247.674 238.842C250.681 240.479 251.774 244.572 250.134 247.573C248.494 250.848 244.394 251.666 241.388 250.029Z" fill="white"/>
<path d="M241.66 248.392C239.473 247.028 238.653 244.299 240.02 242.116C241.386 239.933 244.12 239.114 246.306 240.479C248.493 241.843 249.313 244.572 247.946 246.755C246.58 248.938 243.846 249.756 241.66 248.392Z" fill="#C4C4C4"/>
<path d="M242.208 248.392C240.022 247.028 239.202 244.299 240.569 242.116C241.935 239.933 244.668 239.114 246.855 240.479C247.128 240.479 247.128 240.752 247.402 240.752C249.315 242.116 249.862 244.572 248.768 246.755C247.948 248.392 246.308 249.21 244.395 248.938C243.575 248.938 243.028 248.938 242.208 248.392Z" fill="#EDD064"/>
<path d="M244.395 248.938C242.481 247.573 241.935 245.118 243.028 242.935C243.848 241.297 245.488 240.479 247.401 240.752C249.314 242.116 249.861 244.572 248.768 246.755C247.674 248.392 246.035 249.211 244.395 248.938Z" fill="#FFD535"/>
<path d="M246.034 245.936C245.214 245.39 244.941 244.299 245.488 243.48C246.034 242.662 247.127 242.389 247.947 242.935C248.767 243.48 249.041 244.572 248.494 245.39C247.947 246.209 246.854 246.482 246.034 245.936Z" fill="#FFF6D4"/>
<path opacity="0.09" d="M254.236 223.561C250.956 222.742 248.769 219.195 249.863 215.921C250.683 212.646 254.236 210.463 257.516 211.555C260.796 212.374 262.982 215.921 261.889 219.195C261.069 222.47 257.516 224.652 254.236 223.561Z" fill="white"/>
<path d="M253.962 222.197C251.502 221.651 250.135 218.922 250.682 216.467C251.229 214.011 253.962 212.646 256.422 213.192C258.882 213.738 260.249 216.467 259.702 218.922C258.882 221.378 256.422 222.743 253.962 222.197Z" fill="#C4C4C4"/>
<path d="M254.782 221.924C252.322 221.378 250.956 218.649 251.502 216.194C252.049 213.738 254.782 212.374 257.242 212.919C257.516 212.919 257.516 212.919 257.789 213.192C259.976 214.011 261.069 216.194 260.522 218.649C259.976 220.287 258.609 221.651 256.969 221.924C256.149 222.197 255.329 222.197 254.782 221.924Z" fill="#EDD064"/>
<path d="M256.695 221.924C254.508 221.105 253.415 218.649 253.962 216.467C254.508 214.829 255.875 213.465 257.515 213.192C259.701 214.011 260.795 216.194 260.248 218.649C259.701 220.56 258.335 221.651 256.695 221.924Z" fill="#FFD535"/>
<path d="M257.515 218.649C256.695 218.376 256.148 217.558 256.148 216.466C256.422 215.648 257.242 215.102 258.335 215.102C259.155 215.375 259.702 216.194 259.702 217.285C259.428 218.376 258.335 218.922 257.515 218.649Z" fill="#FFF6D4"/>
<path opacity="0.09" d="M259.701 194.91C256.147 194.91 253.414 192.182 253.414 188.634C253.414 185.087 256.147 182.358 259.701 182.358C263.254 182.358 265.987 185.087 265.987 188.634C265.987 192.182 263.254 194.91 259.701 194.91Z" fill="white"/>
<path d="M259.154 193.546C256.694 193.546 254.508 191.363 254.508 188.907C254.508 186.451 256.694 184.269 259.154 184.269C261.614 184.269 263.801 186.451 263.801 188.907C263.801 191.363 261.614 193.546 259.154 193.546Z" fill="#C4C4C4"/>
<path d="M259.701 193.273C257.241 193.273 255.055 191.09 255.055 188.634C255.055 186.179 257.241 183.996 259.701 183.996C259.975 183.996 259.975 183.996 260.248 183.996C262.434 184.268 264.348 186.179 264.348 188.634C264.348 190.544 263.254 191.909 261.888 192.727C261.068 193 260.521 193.273 259.701 193.273Z" fill="#EDD064"/>
<path d="M261.614 192.727C259.427 192.455 257.514 190.544 257.514 188.362C257.514 186.451 258.607 185.087 259.974 184.269C262.16 184.541 264.073 186.451 264.073 188.907C264.347 190.272 263.254 191.909 261.614 192.727Z" fill="#FFD535"/>
<path d="M261.615 189.18C262.52 189.18 263.255 188.447 263.255 187.543C263.255 186.639 262.52 185.906 261.615 185.906C260.709 185.906 259.975 186.639 259.975 187.543C259.975 188.447 260.709 189.18 261.615 189.18Z" fill="#FFF6D4"/>
<path opacity="0.09" d="M257.514 165.713C254.234 166.532 250.681 164.622 249.861 161.348C249.041 158.073 250.955 154.526 254.234 153.707C257.514 152.889 261.068 154.799 261.888 158.073C262.981 161.348 260.794 164.895 257.514 165.713Z" fill="white"/>
<path d="M256.693 164.622C254.234 165.168 251.774 163.803 250.954 161.348C250.407 158.892 251.774 156.436 254.234 155.617C256.693 155.072 259.153 156.436 259.973 158.892C260.52 161.348 258.88 163.803 256.693 164.622Z" fill="#C4C4C4"/>
<path d="M256.967 164.076C254.507 164.622 252.047 163.258 251.227 160.802C250.407 158.346 252.047 155.89 254.507 155.072C254.78 155.072 254.78 155.072 255.054 155.072C257.24 154.799 259.427 156.163 260.247 158.346C260.793 159.983 260.247 161.893 258.88 162.985C258.333 163.531 257.787 163.803 256.967 164.076Z" fill="#EDD064"/>
<path d="M258.881 162.985C256.695 163.258 254.235 161.893 253.688 159.71C253.141 158.073 253.688 156.163 255.055 155.072C257.241 154.799 259.428 156.163 260.248 158.346C260.794 160.256 260.248 161.893 258.881 162.985Z" fill="#FFD535"/>
<path d="M257.788 159.71C256.968 159.983 255.874 159.437 255.601 158.346C255.328 157.527 255.874 156.436 256.968 156.163C257.788 155.89 258.881 156.436 259.154 157.527C259.427 158.619 258.881 159.437 257.788 159.71Z" fill="#FFF6D4"/>
<path opacity="0.09" d="M247.949 138.154C244.943 139.791 241.116 138.973 239.203 135.698C237.563 132.697 238.383 128.877 241.663 126.967C244.669 125.329 248.496 126.148 250.409 129.422C251.776 132.424 250.956 136.244 247.949 138.154Z" fill="white"/>
<path d="M246.584 137.063C244.397 138.427 241.664 137.608 240.297 135.425C238.93 133.242 239.75 130.514 241.937 129.149C244.124 127.785 246.857 128.604 248.223 130.787C249.59 133.242 248.77 135.971 246.584 137.063Z" fill="#C4C4C4"/>
<path d="M246.855 136.517C244.668 137.881 241.935 137.062 240.569 134.88C239.202 132.697 240.022 129.968 242.208 128.604C242.482 128.604 242.482 128.331 242.755 128.331C244.942 127.512 247.402 128.058 248.495 130.241C249.315 131.878 249.315 133.788 248.222 135.152C247.948 135.698 247.675 136.244 246.855 136.517Z" fill="#EDD064"/>
<path d="M248.496 135.152C246.31 136.244 243.85 135.425 242.756 133.242C241.936 131.605 241.936 129.695 243.03 128.331C245.216 127.512 247.676 128.058 248.77 130.241C249.59 131.878 249.316 133.788 248.496 135.152Z" fill="#FFD535"/>
<path d="M246.582 132.151C245.762 132.697 244.669 132.424 244.122 131.605C243.576 130.787 243.849 129.695 244.669 129.149C245.489 128.604 246.582 128.877 247.129 129.695C247.676 130.787 247.402 131.878 246.582 132.151Z" fill="#FFF6D4"/>
<path opacity="0.09" d="M226.904 115.779C230.376 115.779 233.19 112.969 233.19 109.503C233.19 106.037 230.376 103.227 226.904 103.227C223.432 103.227 220.617 106.037 220.617 109.503C220.617 112.969 223.432 115.779 226.904 115.779Z" fill="white"/>
<path d="M229.909 113.323C227.996 115.233 225.262 115.233 223.349 113.323C221.436 111.413 221.436 108.685 223.349 106.775C225.262 104.865 227.996 104.865 229.909 106.775C231.822 108.685 231.822 111.413 229.909 113.323Z" fill="#C4C4C4"/>
<path d="M230.182 112.778C228.269 114.688 225.536 114.688 223.622 112.778C221.709 110.868 221.709 108.139 223.622 106.229L223.896 105.956C225.809 104.592 228.269 104.592 229.909 106.229C231.276 107.593 231.549 109.23 231.002 110.868C231.002 111.413 230.729 112.232 230.182 112.778Z" fill="#EDD064"/>
<path d="M231.277 110.868C229.363 112.232 226.903 112.232 225.264 110.595C223.897 109.23 223.624 107.593 224.17 105.956C226.083 104.592 228.543 104.592 230.183 106.229C231.277 107.593 231.823 109.23 231.277 110.868Z" fill="#FFD535"/>
<path d="M227.451 108.957C228.356 108.957 229.09 108.225 229.09 107.32C229.09 106.416 228.356 105.683 227.451 105.683C226.545 105.683 225.811 106.416 225.811 107.32C225.811 108.225 226.545 108.957 227.451 108.957Z" fill="#FFF6D4"/>
<path opacity="0.09" d="M209.136 94.7683C207.496 97.7698 203.396 98.8613 200.39 97.2241C197.383 95.5869 196.29 91.4939 197.93 88.4924C199.57 85.4909 203.67 84.3994 206.676 86.0366C209.956 87.9467 210.776 91.7668 209.136 94.7683Z" fill="white"/>
<path d="M207.497 94.4954C206.13 96.6783 203.397 97.4969 201.21 96.1326C199.024 94.7683 198.204 92.0396 199.57 89.8567C200.937 87.6738 203.67 86.8552 205.857 88.2195C208.044 89.5838 208.864 92.3125 207.497 94.4954Z" fill="#C4C4C4"/>
<path d="M207.497 93.9498C206.13 96.1327 203.397 96.9513 201.21 95.587C199.024 94.2227 198.204 91.494 199.57 89.3111C199.57 89.0382 199.844 89.0382 199.844 88.7653C201.21 86.8553 203.67 86.3095 205.857 87.401C207.497 88.2196 208.317 89.8568 208.044 91.7669C208.044 92.5855 208.044 93.4041 207.497 93.9498Z" fill="#EDD064"/>
<path d="M208.043 91.7669C206.676 93.6769 204.216 94.2227 202.029 93.1312C200.389 92.3126 199.569 90.6754 199.843 88.7653C201.209 86.8553 203.669 86.3095 205.856 87.401C207.496 88.4925 208.316 90.1297 208.043 91.7669Z" fill="#FFD535"/>
<path d="M205.037 90.4026C204.49 91.2212 203.397 91.494 202.577 90.9483C201.757 90.4026 201.484 89.3111 202.03 88.4925C202.577 87.6739 203.67 87.401 204.49 87.9468C205.31 88.4925 205.584 89.584 205.037 90.4026Z" fill="#FFF6D4"/>
<path opacity="0.09" d="M182.623 82.2164C181.803 85.4908 178.25 87.6737 174.97 86.5823C171.69 85.7637 169.504 82.2164 170.597 78.942C171.417 75.6676 174.97 73.4847 178.25 74.5762C181.53 75.6676 183.717 78.6691 182.623 82.2164Z" fill="white"/>
<path d="M181.257 82.2163C180.71 84.6721 177.977 86.0365 175.517 85.4907C173.057 84.945 171.69 82.2163 172.237 79.7605C172.783 77.3047 175.517 75.9404 177.977 76.4861C180.437 77.3047 181.803 79.7605 181.257 82.2163Z" fill="#C4C4C4"/>
<path d="M180.983 81.6708C180.437 84.1266 177.703 85.4909 175.243 84.9452C172.783 84.3994 171.417 81.6708 171.963 79.215C171.963 78.9421 171.963 78.9421 172.237 78.6692C173.057 76.4863 175.243 75.3949 177.703 75.9406C179.343 76.4863 180.71 77.8506 180.983 79.4878C181.256 80.3064 181.256 80.8522 180.983 81.6708Z" fill="#EDD064"/>
<path d="M180.985 79.4878C180.165 81.6708 177.705 82.7622 175.518 82.2165C173.878 81.6708 172.512 80.3064 172.238 78.6692C173.058 76.4863 175.245 75.3949 177.705 75.9406C179.618 76.4863 180.711 77.8506 180.985 79.4878Z" fill="#FFD535"/>
<path d="M177.704 78.942C177.43 79.7606 176.61 80.3063 175.517 80.3063C174.697 80.0334 174.15 79.2148 174.15 78.1234C174.424 77.3048 175.244 76.759 176.337 76.759C177.43 77.0319 177.977 77.8505 177.704 78.942Z" fill="#FFF6D4"/>
<path opacity="0.5" d="M180.983 56.567L148.183 60.66L114.291 56.567V56.0213L116.751 19.4573H178.523L180.709 56.0213L180.983 56.567Z" fill="#D4D4D4"/>
<path opacity="0.5" d="M149.551 211.828C159.665 211.828 167.864 203.643 167.864 193.546C167.864 183.449 159.665 175.264 149.551 175.264C139.437 175.264 131.238 183.449 131.238 193.546C131.238 203.643 139.437 211.828 149.551 211.828Z" fill="#D4D4D4"/>
<path d="M165.95 188.634C165.95 198.73 157.75 206.916 147.637 206.916C137.524 206.916 129.324 198.73 129.324 188.634C129.324 178.538 137.524 170.352 147.637 170.352C157.75 170.352 165.95 178.538 165.95 188.634Z" fill="#7933FF"/>
<path d="M226.63 342.258H67.0078V362.996H226.63V342.258Z" fill="#C7C7C7"/>
<path opacity="0.5" d="M167.589 311.151C165.949 311.424 164.583 311.697 162.943 311.697C159.116 312.242 155.29 312.515 151.463 312.515C150.096 312.515 148.73 312.515 147.636 312.515C146.27 312.515 144.903 312.515 143.81 312.515C139.983 312.515 135.883 311.969 132.33 311.697C130.69 311.424 129.324 311.151 127.684 311.151L128.777 308.149L129.05 307.604L147.09 254.395L166.769 307.604L167.043 308.149L167.589 311.151Z" fill="#D4D4D4"/>
<path d="M162.944 311.969C158.024 312.515 152.831 312.788 147.365 312.788C142.172 312.788 136.978 312.515 131.785 311.969L132.605 308.422L146.545 254.395L161.578 308.422L162.944 311.969Z" fill="#FFD535"/>
<path opacity="0.5" d="M152.557 300.782C152.557 302.965 150.644 304.875 148.457 304.875C146.271 304.875 144.357 302.965 144.357 300.782C144.357 298.599 146.271 296.689 148.457 296.689C150.644 296.962 152.557 298.599 152.557 300.782Z" fill="#D4D4D4"/>
<path d="M151.463 299.964C151.463 302.147 149.55 304.057 147.364 304.057C145.177 304.057 143.264 302.147 143.264 299.964C143.264 297.781 145.177 295.871 147.364 295.871C149.823 295.871 151.463 297.781 151.463 299.964Z" fill="#B031B9"/>
<path d="M147.911 298.326C147.911 299.145 147.364 299.691 146.544 299.691C145.724 299.691 145.178 299.145 145.178 298.326C145.178 297.508 145.724 296.962 146.544 296.962C147.364 296.962 147.911 297.508 147.911 298.326Z" fill="#B031B9"/>
<path d="M147.639 174.172L151.739 182.631L161.305 184.268L154.472 190.817L155.839 200.095L147.639 195.729L139.166 200.095L140.806 190.817L133.973 184.268L143.266 182.631L147.639 174.172Z" fill="#D9D9D9"/>
<path d="M145.178 192.182C150.159 192.182 154.198 188.15 154.198 183.177C154.198 178.204 150.159 174.172 145.178 174.172C140.196 174.172 136.158 178.204 136.158 183.177C136.158 188.15 140.196 192.182 145.178 192.182Z" fill="#B031B9"/>
<path d="M217.882 46.471L148.184 55.2027L77.3926 46.471V14H217.882V46.471Z" fill="#D9D9D9"/>
<path d="M82.8594 41.8323V19.4573H212.416V41.8323L148.184 49.7454L82.8594 41.8323Z" fill="#BABABA"/>
<path opacity="0.5" d="M212.415 19.4573L208.042 22.7317H147.91V19.4573H212.415Z" fill="#D4D4D4"/>
<path d="M208.043 22.7317V42.378L212.416 41.8323V19.4573L208.043 22.7317Z" fill="#E8E8E8"/>
<path opacity="0.5" d="M82.8594 19.4573L86.9593 22.7317H147.911V19.4573H82.8594Z" fill="#D4D4D4"/>
<path d="M86.9593 22.7317V42.378L82.8594 41.8323V19.4573L86.9593 22.7317Z" fill="#E8E8E8"/>
<path opacity="0.51" d="M66.7326 215.102C64.546 208.826 63.1794 202.55 62.6327 195.729C62.3594 192.454 62.6327 189.18 62.3594 185.633C62.3594 182.358 62.906 179.084 63.1794 175.537C65.0926 162.166 70.5592 149.614 78.4856 138.7C82.3122 133.243 87.232 128.331 92.1519 123.692C97.3451 119.599 102.812 115.506 108.825 112.505C120.851 106.502 133.971 103.227 147.09 103.5C134.244 105.683 121.944 110.322 111.011 116.871C100.078 123.419 90.512 131.878 83.4055 142.247C76.0257 152.343 70.5592 164.076 67.8259 176.355C67.2792 179.357 66.4593 182.631 66.1859 185.633C65.9126 188.907 65.366 191.909 65.366 195.183C65.6393 202.278 65.9126 208.826 66.7326 215.102Z" fill="#B031B9"/>
</g>
</g>
<defs>
<filter id="filter0_d_367_8986" x="22.002" y="14" width="268.729" height="379" filterUnits="userSpaceOnUse" color-interpolation-filters="sRGB">
<feFlood flood-opacity="0" result="BackgroundImageFix"/>
<feColorMatrix in="SourceAlpha" type="matrix" values="0 0 0 0 0 0 0 0 0 0 0 0 0 0 0 0 0 0 127 0" result="hardAlpha"/>
<feOffset dx="9" dy="11"/>
<feGaussianBlur stdDeviation="5"/>
<feComposite in2="hardAlpha" operator="out"/>
<feColorMatrix type="matrix" values="0 0 0 0 0 0 0 0 0 0 0 0 0 0 0 0 0 0 0.25 0"/>
<feBlend mode="normal" in2="BackgroundImageFix" result="effect1_dropShadow_367_8986"/>
<feBlend mode="normal" in="SourceGraphic" in2="effect1_dropShadow_367_8986" result="shape"/>
</filter>
<clipPath id="clip0_367_8986">
<rect width="295" height="384" fill="white"/>
</clipPath>
</defs>
</svg>
