<svg width="1920" height="429" viewBox="0 0 1920 429" fill="none" xmlns="http://www.w3.org/2000/svg">
<path fill-rule="evenodd" clip-rule="evenodd" d="M-161 241.779C-137.1 251.031 -112.332 253.256 -87.5685 255.481C-67.191 257.312 -46.8159 259.143 -26.9294 264.888C-20.8521 253.704 -5.54456 258.903 9.88329 264.144C17.436 266.71 25.0163 269.285 31.5569 269.952C34.9553 270.301 38.2431 269.572 41.3503 268.883C48.0979 267.386 53.9922 266.08 58.3077 276.413C59.8601 273.82 61.3608 271.462 62.8651 269.098C63.533 268.048 64.2021 266.997 64.876 265.925C66.2804 276.487 70.6873 275.13 75.5876 273.621C80.5156 272.104 85.9431 270.433 89.3174 280.578C101.745 271.654 115.41 274.679 129.555 277.811C142.763 280.735 156.388 283.751 169.814 277.219C170.51 279.321 171.201 281.446 171.887 283.579C172.471 285.397 173.054 287.22 173.634 289.04C191.135 281.206 207.356 283.824 223.578 286.442C240.407 289.157 257.237 291.873 275.496 282.92C281.788 292.445 289.488 290.613 297.189 288.782C304.822 286.967 312.456 285.151 318.719 294.392C324.254 286.35 328.573 288.061 332.89 289.771C336.91 291.364 340.929 292.956 345.925 286.669C368.698 300.741 393.729 296.711 418.952 290.832C445.609 296.241 473.123 294.784 500.625 293.328C527.769 291.891 554.902 290.454 581.187 295.62C582.25 293.91 583.317 292.204 584.383 290.498C585.501 288.711 586.619 286.924 587.733 285.132C590.36 282.546 589.52 290.154 587.988 293.674C601.971 290.351 613.934 289.316 625.836 288.286C639.152 287.134 652.389 285.989 668.291 281.654C669.022 283.739 669.643 285.728 670.235 287.689C670.834 289.673 671.405 291.629 672.03 293.628C674.343 293.034 675.516 289.488 676.588 286.244C678.137 281.561 679.477 277.507 683.736 283.869C684.124 286.888 683.416 287.277 682.268 287.911C681.309 288.44 680.043 289.139 678.848 291.68C681.985 295.499 687.955 293.221 688.907 284.584C820.054 292.243 950.899 278.049 1082.14 263.814C1163.12 255.029 1244.25 246.228 1325.7 242.536L1327.5 239.655C1328.53 237.999 1329.57 236.333 1330.6 234.693C1343.11 239.028 1356.53 235.958 1369.95 232.888C1386.25 229.158 1402.56 225.428 1417.24 234.98C1419.17 233.845 1421.23 230.778 1423.04 228.079C1426.34 223.174 1428.81 219.485 1428.24 230.801C1433.14 222.908 1445.61 217.676 1452.33 228.407C1453.31 226.692 1454.32 224.996 1455.35 223.312C1456.46 221.487 1457.6 219.675 1458.73 217.864C1460.65 218.103 1462.55 218.48 1464.45 218.857C1472.39 220.432 1480.29 222.002 1489.48 213.456C1509.89 220.381 1531.52 217.53 1553.15 214.679C1580.91 211.019 1608.68 207.359 1633.89 224.384C1634.72 223.064 1635.55 221.741 1636.39 220.405C1637.75 218.23 1639.13 216.019 1640.6 213.73C1646.91 227.831 1661.48 224.316 1666.95 211.796C1667.87 214.223 1667.9 216.512 1667.93 218.798C1667.97 221.242 1668 223.683 1669.12 226.283C1674.01 208.763 1676.89 215.486 1679.6 221.77C1680.09 222.931 1680.58 224.077 1681.08 225.052C1693.19 211.14 1705.27 212.283 1718.6 213.545C1721.35 213.806 1724.16 214.073 1727.04 214.212C1728.75 219.201 1728.32 223.676 1726.62 228.367C1728.11 229.533 1729.47 226.707 1730.94 223.66C1733.18 219.005 1735.66 213.832 1739.28 221.574C1740.49 219.567 1739.94 217.224 1739.44 215.028C1739.28 214.331 1739.12 213.649 1739.03 212.997C1740.82 211.105 1742.33 211.653 1743.84 212.201C1746.12 213.031 1748.4 213.859 1751.68 206.22C1753.9 210.254 1752.18 213.835 1750.29 217.345C1755.63 210.176 1765.21 202.341 1773.02 203.407C1774.23 212.129 1772.11 212.958 1769.22 214.085C1767.3 214.831 1765.05 215.708 1763.22 219.094C1774.01 211.299 1784.51 206.246 1794.97 201.212C1801.28 198.173 1807.58 195.142 1813.92 191.518C1814.93 195.006 1815.97 198.306 1817.02 201.615C1817.54 203.29 1818.07 204.968 1818.6 206.675C1815.9 219.261 1823.04 200.078 1817.39 195.167C1822.68 186.837 1827.02 184.937 1832.01 182.753C1835.35 181.291 1838.98 179.702 1843.38 175.968C1843.57 181.552 1845.74 183.707 1847.35 185.304C1849.24 187.19 1850.36 188.299 1846.51 193.361C1848.01 195.157 1849.26 193.243 1850.61 191.178C1852.8 187.829 1855.25 184.084 1859.42 195.137C1864.65 187.249 1861.31 185.98 1858.39 184.87C1857.21 184.423 1856.1 184.002 1855.65 183.185C1860.91 176.458 1865.36 176.278 1869.81 176.097C1874.59 175.904 1879.37 175.71 1885.15 167.429C1885.77 170.371 1884.2 173.021 1882.64 175.657C1882.13 176.51 1881.63 177.361 1881.19 178.22C1882.01 179.548 1883.04 179.095 1884.08 178.641C1885.82 177.878 1887.56 177.112 1888.25 184.846C1887.91 175.961 1889.62 175.206 1892.28 174.035C1894.35 173.122 1897 171.955 1899.7 166.492C1909.33 177.199 1921.57 169.932 1933.53 162.834C1946.75 154.991 1959.61 147.355 1968.23 164.4C1973.44 145.862 1982.21 143.979 1989.98 142.313C1992.68 141.733 1995.26 141.18 1997.53 139.958C1996.23 150.039 1992.67 150.047 1988.75 150.055C1985.74 150.062 1982.52 150.069 1979.96 154.645C1980.68 157.341 1981.63 158.14 1982.59 158.939C1983.61 159.797 1984.64 160.656 1985.38 163.869C1981.93 166.913 1978.2 171.536 1974.42 176.207C1969.37 182.467 1964.24 188.816 1959.63 191.577C1962.93 167.038 1946.73 183.117 1938.98 190.811C1937.55 192.221 1936.41 193.35 1935.73 193.894C1949.27 208.83 1975.1 200.075 1991.76 176.059C1992.33 179.602 1990.31 182.766 1988.28 185.942C1987.54 187.113 1986.79 188.286 1986.17 189.48C1987.67 188.904 1989.42 188.458 1991.32 187.977C2000.18 185.727 2012.05 182.713 2014.49 162.074C2017.84 158.935 2017.93 163.506 2018.02 168.491C2018.09 171.868 2018.16 175.435 2019.24 176.926C2027.18 168.905 2033.48 164.77 2039.88 160.565C2047.1 155.827 2054.44 151.002 2064.43 140.429C2084.4 141.721 2104.49 142.213 2127.99 114.923C2139.24 119.51 2159.53 107.276 2169.22 89.2632C2179.06 94.4207 2193.27 86.2294 2208.59 77.3906C2231.24 64.335 2256.33 49.8659 2273.42 74.913C2271.15 55.9359 2277.38 51.7343 2283.98 47.2848C2289.87 43.3148 2296.05 39.1473 2296.75 24.1112C2299.4 25.3161 2302.76 20.8843 2306.12 16.4586C2311.18 9.79677 2316.22 3.14923 2318.8 15.768C2325.76 9.0775 2332.55 3.81981 2339.16 0V428.5H-161V241.779ZM1901.02 209.253C1895.28 213.17 1889.53 217.09 1884.81 212.786C1886.56 211.466 1888.54 209.796 1890.64 208.025C1901.31 199.046 1915.06 187.469 1917.18 205.728C1912.48 201.435 1906.76 205.342 1901.02 209.253ZM1919.51 197.521C1922.76 206.684 1927.39 204.671 1933.1 193.706C1929.05 191.17 1924.56 192.168 1919.51 197.521Z" fill="url(#paint0_linear_367_9251)"/>
<defs>
<linearGradient id="paint0_linear_367_9251" x1="-7.99999" y1="320.5" x2="1927" y2="303" gradientUnits="userSpaceOnUse">
<stop stop-color="#C3B0DF"/>
<stop offset="0.182292" stop-color="#D1C1E8"/>
<stop offset="0.302083" stop-color="#D3C5E9"/>
<stop offset="0.552078" stop-color="#C9BAE5"/>
<stop offset="1" stop-color="#C9BAE5"/>
</linearGradient>
</defs>
</svg>
