<svg width="2029" height="318" viewBox="0 0 2029 318" fill="none" xmlns="http://www.w3.org/2000/svg">
<path fill-rule="evenodd" clip-rule="evenodd" d="M0 173.323C19.3945 179.955 39.4932 181.55 59.5889 183.145C76.125 184.458 92.6592 185.77 108.797 189.889C113.729 181.871 126.15 185.598 138.67 189.355C144.799 191.194 150.95 193.04 156.258 193.519C159.016 193.769 161.684 193.246 164.205 192.752C169.681 191.679 174.464 190.743 177.966 198.15C179.226 196.292 180.443 194.601 181.664 192.907C182.206 192.154 182.749 191.401 183.296 190.632C184.436 198.204 188.012 197.231 191.988 196.149C195.987 195.061 200.392 193.863 203.13 201.136C213.215 194.739 224.304 196.907 235.782 199.152C246.5 201.249 257.557 203.411 268.452 198.728C269.017 200.235 269.577 201.758 270.134 203.287C270.608 204.59 271.081 205.898 271.552 207.202C285.754 201.586 298.917 203.463 312.081 205.34C325.737 207.286 339.395 209.233 354.212 202.815C359.317 209.643 365.566 208.33 371.815 207.017C378.01 205.716 384.204 204.414 389.287 211.039C393.778 205.274 397.283 206.5 400.786 207.727C404.049 208.868 407.31 210.01 411.364 205.502C429.844 215.591 450.156 212.701 470.625 208.487C492.257 212.364 514.584 211.32 536.901 210.276C558.929 209.246 580.946 208.216 602.276 211.919C603.14 210.693 604.005 209.47 604.87 208.247C605.777 206.966 606.685 205.685 607.589 204.401C609.721 202.547 609.039 208.001 607.796 210.524C619.143 208.142 628.851 207.4 638.509 206.662C649.314 205.836 660.057 205.015 672.961 201.907C673.554 203.402 674.058 204.828 674.538 206.234C675.024 207.656 675.487 209.058 675.995 210.491C677.872 210.065 678.823 207.523 679.693 205.198C680.95 201.841 682.038 198.935 685.494 203.495C685.809 205.659 685.234 205.939 684.303 206.393C683.524 206.772 682.497 207.273 681.527 209.095C684.073 211.832 688.918 210.199 689.69 204.008C796.114 209.499 902.294 199.323 1008.79 189.118C1074.51 182.821 1140.35 176.512 1206.44 173.865L1207.9 171.8C1208.74 170.613 1209.58 169.418 1210.42 168.243C1220.57 171.351 1231.46 169.15 1242.35 166.949C1255.58 164.275 1268.81 161.601 1280.72 168.449C1282.29 167.635 1283.96 165.436 1285.43 163.501C1288.11 159.986 1290.12 157.341 1289.65 165.453C1293.63 159.794 1303.75 156.044 1309.2 163.737C1309.99 162.507 1310.81 161.292 1311.65 160.084C1312.55 158.776 1313.48 157.477 1314.4 156.178C1315.96 156.35 1317.5 156.62 1319.04 156.89C1325.48 158.02 1331.89 159.145 1339.35 153.019C1355.91 157.983 1373.46 155.939 1391.01 153.896C1413.54 151.272 1436.08 148.648 1456.53 160.853C1457.21 159.907 1457.88 158.958 1458.56 158C1459.67 156.441 1460.79 154.856 1461.98 153.215C1467.1 163.323 1478.93 160.804 1483.36 151.829C1484.11 153.569 1484.13 155.21 1484.16 156.848C1484.19 158.601 1484.21 160.35 1485.12 162.214C1489.09 149.655 1491.43 154.474 1493.62 158.979C1494.03 159.811 1494.43 160.632 1494.83 161.331C1504.66 151.358 1514.46 152.178 1525.27 153.083C1527.51 153.27 1529.79 153.461 1532.12 153.561C1533.51 157.137 1533.16 160.345 1531.78 163.708C1533 164.543 1534.1 162.518 1535.29 160.334C1537.1 156.997 1539.12 153.288 1542.05 158.838C1543.04 157.4 1542.6 155.72 1542.19 154.146C1542.05 153.646 1541.93 153.157 1541.85 152.69C1543.31 151.333 1544.53 151.726 1545.76 152.119C1547.61 152.714 1549.46 153.308 1552.12 147.832C1553.92 150.723 1552.52 153.29 1550.99 155.807C1555.32 150.667 1563.1 145.051 1569.44 145.815C1570.42 152.067 1568.7 152.662 1566.35 153.47C1564.79 154.005 1562.97 154.633 1561.48 157.061C1570.24 151.472 1578.76 147.85 1587.25 144.241C1592.37 142.063 1597.48 139.89 1602.62 137.292C1603.45 139.793 1604.29 142.158 1605.14 144.53C1605.57 145.731 1605.99 146.934 1606.42 148.157C1604.23 157.18 1610.03 143.429 1605.44 139.908C1609.74 133.936 1613.26 132.574 1617.3 131.009C1620.01 129.961 1622.96 128.822 1626.53 126.145C1626.69 130.148 1628.45 131.693 1629.75 132.837C1631.29 134.19 1632.2 134.984 1629.07 138.614C1630.29 139.901 1631.3 138.529 1632.4 137.049C1634.17 134.648 1636.16 131.963 1639.54 139.886C1643.79 134.232 1641.08 133.323 1638.71 132.527C1637.76 132.206 1636.86 131.904 1636.49 131.318C1640.75 126.497 1644.37 126.367 1647.98 126.238C1651.86 126.099 1655.74 125.96 1660.43 120.023C1660.94 122.133 1659.66 124.033 1658.39 125.922C1657.98 126.533 1657.57 127.144 1657.22 127.76C1657.88 128.711 1658.72 128.386 1659.56 128.061C1660.97 127.514 1662.39 126.965 1662.95 132.51C1662.67 126.14 1664.05 125.599 1666.21 124.759C1667.89 124.105 1670.04 123.269 1672.23 119.352C1680.05 127.028 1689.99 121.818 1699.69 116.73C1710.41 111.108 1720.85 105.634 1727.84 117.852C1732.07 104.563 1739.19 103.214 1745.49 102.019C1747.69 101.604 1749.79 101.207 1751.62 100.331C1750.57 107.557 1747.68 107.563 1744.5 107.569C1742.06 107.574 1739.45 107.579 1737.36 110.859C1737.95 112.792 1738.72 113.365 1739.5 113.937C1740.33 114.553 1741.16 115.168 1741.76 117.472C1738.96 119.654 1735.94 122.968 1732.87 126.316C1728.77 130.804 1724.61 135.355 1720.87 137.334C1723.55 119.743 1710.4 131.27 1704.11 136.785C1702.95 137.796 1702.03 138.605 1701.48 138.996C1712.46 149.703 1733.42 143.427 1746.94 126.21C1747.4 128.75 1745.76 131.018 1744.12 133.295C1743.51 134.135 1742.91 134.975 1742.4 135.831C1743.62 135.418 1745.04 135.099 1746.58 134.754C1753.78 133.141 1763.41 130.98 1765.39 116.185C1768.11 113.935 1768.18 117.211 1768.25 120.785C1768.31 123.206 1768.36 125.763 1769.24 126.832C1775.69 121.082 1780.8 118.117 1785.99 115.104C1791.85 111.707 1797.81 108.248 1805.91 100.668C1822.12 101.595 1838.42 101.948 1857.49 82.384C1866.62 85.6724 1883.09 76.9026 1890.95 63.9895C1898.93 67.6868 1910.46 61.8147 1922.9 55.4785C1941.27 46.1194 1961.64 35.7471 1975.51 53.7024C1973.66 40.0984 1978.72 37.0864 1984.08 33.8967C1988.86 31.0508 1993.87 28.0632 1994.44 17.2844C1996.59 18.1482 1999.32 14.9712 2002.04 11.7986C2006.14 7.02295 2010.24 2.25757 2012.33 11.3035C2017.98 6.50732 2023.49 2.73828 2028.86 0V317.089H0L0 173.323ZM1673.31 150.006C1668.65 152.813 1663.98 155.624 1660.15 152.538C1661.57 151.592 1663.18 150.395 1664.89 149.126C1673.54 142.689 1684.7 134.39 1686.42 147.479C1682.61 144.402 1677.96 147.202 1673.31 150.006ZM1688.31 141.596C1690.95 148.164 1694.71 146.721 1699.34 138.861C1696.05 137.042 1692.41 137.758 1688.31 141.596Z" fill="white"/>
</svg>
