<svg width="88" height="125" viewBox="0 0 88 125" fill="none" xmlns="http://www.w3.org/2000/svg">
<path fill-rule="evenodd" clip-rule="evenodd" d="M6.34442 0.488438C17.985 2.67949 29.798 3.34617 41.2071 6.1117C44.4836 6.90462 43.8658 12.6404 40.4864 12.8027C28.7181 13.3715 16.9069 11.6721 5.1292 11.7713C-2.23101 11.8343 -0.85332 -0.954693 6.34442 0.488438ZM42.9855 48.3152C47.5047 47.1244 53.4317 45.5753 58.0246 47.3187C61.5062 48.6461 62.9486 52.93 65.0638 55.5985C65.566 56.2211 64.7119 57.1843 64.0638 56.6499C60.1442 53.4157 44.5061 59.913 40.8115 61.7522C30.3407 66.7884 21.6118 73.6738 12.4336 80.6164C5.38211 85.9458 -3.11186 75.6575 3.8603 70.1078C14.9559 60.7775 28.7086 51.8591 42.9855 48.3152ZM86.8638 77.4316C87.3976 77.4545 87.2885 78.1435 86.8863 78.3433C83.3306 78.8213 84.9171 84.122 83.1318 86.6337C80.4161 91.3544 77.0816 95.6914 73.7045 99.9039C69.8822 104.673 65.9867 109.388 62.0593 114.077C59.04 117.688 56.466 121.902 52.1496 123.535C47.3172 125.577 40.7621 122.199 41.8764 116.511C43.1864 109.82 48.9166 104.435 53.4315 99.4628C57.9253 94.5165 62.3669 89.301 67.4965 84.9855C73.7716 79.7118 79.112 77.0819 86.8638 77.4316Z" fill="#3AB8FC"/>
</svg>
