<svg width="91" height="214" viewBox="0 0 91 214" fill="none" xmlns="http://www.w3.org/2000/svg">
<path d="M-22.9903 59.1716L-11.8267 49.7081L-10.4531 49.1184L35.4388 47.1906C35.4388 47.1906 65.6151 32.9451 84.2474 50.0176C84.2474 50.0176 60.4108 69.5093 26.8158 72.5829C-6.66844 75.8176 -22.9903 59.1716 -22.9903 59.1716Z" fill="url(#paint0_linear_248_11420)"/>
<path fill-rule="evenodd" clip-rule="evenodd" d="M81.6635 49.5408L75.6918 45.3464C75.6918 45.3464 4.62311 45.8586 -6.26647 50.0321C-17.0201 54.2307 -20.8779 59.1402 -20.8779 59.1402L-22.9919 59.1716C-22.9919 59.1716 -14.4149 50.7765 -7.43534 47.9893L53.53 44.3469L74.3975 43.9831C74.3975 43.9831 81.6614 45.7458 84.3817 50.0427L81.6635 49.5408Z" fill="url(#paint1_linear_248_11420)"/>
<path fill-rule="evenodd" clip-rule="evenodd" d="M-18.2991 61.1624C-18.2991 61.1624 -12.9128 25.8968 27.8917 17.2675C68.6712 8.77418 73.2691 50.0994 73.2691 50.0994C73.2691 50.0994 79.061 47.6551 78.7306 50.9671C78.7306 50.9671 51.6802 74.925 25.0543 74.5068C-1.48591 74.3855 -18.2991 61.1624 -18.2991 61.1624Z" fill="url(#paint2_linear_248_11420)"/>
<path fill-rule="evenodd" clip-rule="evenodd" d="M-4.14685 185.485L-22.9902 59.1719L-16.2282 63.6527L3.64821 64.0898L46.0523 71.9183L-4.14685 185.485Z" fill="url(#paint3_linear_248_11420)"/>
<path fill-rule="evenodd" clip-rule="evenodd" d="M-23.6188 86.1805L0.899481 79.7446L7.42317 80.949L25.4366 70.923C25.4366 70.923 63.4037 64.7213 84.52 50.0681C84.52 50.0681 7.27464 204.318 -0.744088 202.838C-7.13188 201.659 -23.6188 86.1805 -23.6188 86.1805Z" fill="url(#paint4_radial_248_11420)"/>
<path fill-rule="evenodd" clip-rule="evenodd" d="M-23.6214 86.1804L-19.36 82.8914L-19.1175 84.6226L0.428527 79.2364L9.25646 78.6175L26.1532 70.0719C26.1532 70.0719 64.34 60.3972 81.6132 49.8129L84.3314 50.3147C84.3314 50.3147 60.7498 66.902 25.2479 71.1696L7.23448 81.1956L0.710785 79.9912L-23.6214 86.1804Z" fill="url(#paint5_linear_248_11420)"/>
<path fill-rule="evenodd" clip-rule="evenodd" d="M-22.9904 59.1717L-20.8765 59.1403L-15.967 62.9981L2.16766 62.973L10.866 64.5788L31.6603 68.4178L29.7429 68.9071L3.64805 64.0896L-16.2284 63.6525L-22.9904 59.1717Z" fill="url(#paint6_linear_248_11420)"/>
<path d="M-4.1818 197.847C-4.58954 197.771 -4.94707 197.424 -5.14362 196.966C-13.5366 164.779 -20.3801 85.3734 -20.3655 84.5328C-20.3759 83.8282 -20.0038 83.3347 -19.274 83.1884C-18.5694 83.1779 -18.076 83.5501 -17.9296 84.2798C-17.8083 85.1455 -11.0505 164.254 -2.76835 196.281C-2.5969 196.874 -3.01921 197.64 -3.61304 197.811C-3.77404 197.922 -3.90999 197.897 -4.1818 197.847Z" fill="url(#paint7_linear_248_11420)"/>
<path d="M4.98056 197.711C4.57283 197.635 4.2153 197.288 4.01876 196.83C-7.52735 160.406 -0.474535 80.3342 -0.459897 79.4936C-0.334441 78.8141 0.17364 78.3457 0.878284 78.3352C1.55784 78.4607 2.0262 78.9688 2.03666 79.6735C2.02202 80.514 -5.06635 160.018 6.41911 196.009C6.59057 196.603 6.30416 197.393 5.57442 197.539C5.38833 197.786 5.11648 197.736 4.98056 197.711Z" fill="url(#paint8_linear_248_11420)"/>
<path d="M14.7013 182.359C14.1577 182.259 13.8001 181.912 13.7646 181.343C8.2341 146.592 17.3401 75.1906 17.4656 74.511C17.591 73.8315 18.0991 73.3631 18.7787 73.4886C19.4582 73.614 19.9266 74.1221 19.8012 74.8017C19.6757 75.4812 10.6449 146.475 16.0897 180.929C16.236 181.659 15.7028 182.263 15.1341 182.299C14.9731 182.409 14.8372 182.384 14.7013 182.359Z" fill="url(#paint9_linear_248_11420)"/>
<path d="M29.3339 156.39C28.7902 156.289 28.4578 155.806 28.4223 155.238C26.0993 122.906 34.2539 69.5994 34.3543 69.0557C34.4797 68.3762 35.1237 67.9329 35.6673 68.0332C36.3469 68.1587 36.7902 68.8027 36.6898 69.3464C36.5895 69.89 28.5101 122.788 30.7223 154.96C30.7327 155.664 30.2246 156.133 29.6308 156.304C29.6057 156.44 29.4698 156.415 29.3339 156.39Z" fill="url(#paint10_linear_248_11420)"/>
<path d="M48.17 121.358C47.6263 121.258 47.2688 120.911 47.2333 120.342C43.0577 96.5222 45.9955 66.1452 46.0457 65.8733C46.1711 65.1938 46.6792 64.7254 47.3588 64.8509C48.0383 64.9763 48.5067 65.4844 48.3813 66.164C48.3311 66.4358 45.4434 96.541 49.5333 120.064C49.6796 120.794 49.1464 121.398 48.5777 121.434C48.4669 121.273 48.3059 121.383 48.17 121.358Z" fill="url(#paint11_linear_248_11420)"/>
<path d="M64.9324 89.1768C64.5246 89.1015 64.0312 88.7294 63.9705 88.2965C61.1394 74.7034 61.1624 61.6371 61.0516 61.4761C61.0411 60.7715 61.5492 60.3031 62.2539 60.2927C62.9585 60.2822 63.4269 60.7903 63.4373 61.495C63.4122 61.6309 63.4395 74.4253 66.1597 87.8574C66.3312 88.4513 65.9088 89.2165 65.2042 89.227C65.2042 89.227 65.0683 89.2019 64.9324 89.1768Z" fill="url(#paint12_linear_248_11420)"/>
<path d="M77.0733 65.2775C76.5297 65.1771 76.0613 64.669 76.0257 64.1003L76.1512 54.2855C76.1407 53.5808 76.6488 53.1125 77.3535 53.102C78.0581 53.0915 78.5265 53.5996 78.5369 54.3043L78.4115 64.1191C78.422 64.8238 77.9138 65.2921 77.2092 65.3026C77.2092 65.3026 77.2092 65.3026 77.0733 65.2775Z" fill="url(#paint13_linear_248_11420)"/>
<path d="M-22.5112 96.9258C-23.0548 96.8254 -23.4124 96.4783 -23.4479 95.9096C-23.5943 95.1799 -23.0611 94.5756 -22.4924 94.54C-21.9236 94.5045 33.99 84.7294 79.5305 57.2985C80.1495 56.9911 80.8289 57.1166 81.1363 57.7355C81.4437 58.3544 81.3183 59.034 80.6993 59.3414C34.7009 86.9688 -21.6455 96.8045 -22.2143 96.8401C-22.2394 96.976 -22.3753 96.9509 -22.5112 96.9258Z" fill="url(#paint14_linear_248_11420)"/>
<path d="M-20.229 111.963C-20.7726 111.863 -21.1051 111.38 -21.1657 110.947C-21.1762 110.243 -20.8039 109.749 -20.0742 109.603C-19.5055 109.567 40.8346 103.982 70.2332 75.6796C70.7413 75.2112 71.4459 75.2008 71.9143 75.7089C72.3827 76.217 72.3931 76.9216 71.885 77.39C41.8173 106.272 -19.2274 111.867 -19.7961 111.903C-19.9571 112.014 -20.0931 111.989 -20.229 111.963Z" fill="url(#paint15_linear_248_11420)"/>
<path d="M-18.1011 125.567C-18.6448 125.467 -18.9773 124.984 -19.0129 124.415C-19.0233 123.711 -18.5152 123.242 -17.9213 123.071C-17.4885 123.01 30.5715 119.234 58.1029 100.284C58.5859 99.9514 59.4013 100.102 59.7338 100.585C60.0663 101.068 59.9157 101.883 59.4327 102.216C31.4184 121.498 -17.2356 125.446 -17.7792 125.346C-17.8294 125.618 -17.9652 125.592 -18.1011 125.567Z" fill="url(#paint16_linear_248_11420)"/>
<path d="M-15.901 138.763C-16.4446 138.663 -16.913 138.154 -16.9235 137.45C-16.9339 136.745 -16.29 136.302 -15.5853 136.291C-15.3135 136.342 14.5597 138.203 42.62 129.329C43.2138 129.157 44.0042 129.444 44.1506 130.173C44.322 130.767 44.0356 131.558 43.3059 131.704C14.7876 140.774 -15.4933 138.838 -15.7651 138.788C-15.901 138.763 -15.901 138.763 -15.901 138.763Z" fill="url(#paint17_linear_248_11420)"/>
<path d="M-13.1631 155.15C-13.7067 155.05 -14.175 154.542 -14.1855 153.837C-14.196 153.132 -13.552 152.689 -12.8473 152.679C-12.5755 152.729 15.3196 154.646 33.5902 145.511C34.2091 145.203 34.8636 145.465 35.1709 146.084C35.4783 146.703 35.2169 147.357 34.598 147.665C15.8444 157.132 -11.7789 155.265 -13.1631 155.15C-13.0272 155.175 -13.0272 155.175 -13.1631 155.15Z" fill="url(#paint18_linear_248_11420)"/>
<path d="M-9.71516 173.776C-10.2588 173.676 -10.7272 173.167 -10.7377 172.463C-10.6122 171.783 -10.1041 171.315 -9.39947 171.304C-9.26356 171.329 10.4121 172.854 22.3723 165.927C22.9912 165.619 23.6708 165.745 23.9781 166.364C24.2855 166.982 24.16 167.662 23.5411 167.969C11.0478 175.501 -8.73869 173.816 -9.71516 173.776C-9.57925 173.801 -9.57925 173.801 -9.71516 173.776Z" fill="url(#paint19_linear_248_11420)"/>
<path d="M0.691371 188.205C-3.52186 187.428 -7.09108 186.206 -7.33781 186.02C-7.99227 185.759 -8.29965 185.14 -8.03829 184.486C-7.77692 183.831 -7.158 183.524 -6.50354 183.785C-6.36763 183.81 4.58678 187.66 10.9328 186.02C11.5266 185.849 12.2919 186.271 12.4633 186.865C12.6348 187.459 12.2124 188.224 11.6186 188.396C8.37762 189.203 4.22505 188.858 0.691371 188.205Z" fill="url(#paint20_linear_248_11420)"/>
<path opacity="0.2" d="M0.343709 106.345L1.07551 91.7235L15.9211 87.4371C15.9211 87.4371 5.3285 91.5249 3.5073 93.0157C1.82201 94.5316 0.343709 106.345 0.343709 106.345Z" fill="#A4006D"/>
<path opacity="0.2" d="M16.9309 102.521L18.4573 86.6403L32.5627 81.7956C32.5627 81.7956 22.2565 85.093 20.2095 87.807C18.0015 90.6319 16.9309 102.521 16.9309 102.521Z" fill="#A4006D"/>
<path opacity="0.2" d="M33.225 97.2372L35.1236 80.8631L45.1224 76.9468C45.1224 76.9468 37.7958 80.0916 36.1063 83.1527C34.3918 86.3497 33.225 97.2372 33.225 97.2372Z" fill="#A4006D"/>
<path opacity="0.2" d="M47.4211 91.1441L47.6846 76.0141L61.3362 69.8208L62.1914 78.1301C62.1914 78.1301 61.1418 73.1579 58.917 73.0283C56.6923 72.8986 52.063 75.1359 50.685 77.2708C49.3071 79.4056 47.4211 91.1441 47.4211 91.1441Z" fill="#A4006D"/>
<path opacity="0.2" d="M-2.10315 105.894L-1.41103 92.2484L-16.8609 96.0016L-15.4747 109.047C-15.4747 109.047 -16.3759 99.4641 -15.2948 97.415C-14.2138 95.3659 -3.962 93.8855 -3.16117 94.8766C-2.33526 95.7318 -2.10315 105.894 -2.10315 105.894Z" fill="#A4006D"/>
<path opacity="0.2" d="M-0.065787 120.746L0.300152 108.867L8.78514 107.061C8.78514 107.061 2.73609 108.614 2.06281 110.738C1.25361 112.838 -0.065787 120.746 -0.065787 120.746Z" fill="#A4006D"/>
<path opacity="0.2" d="M15.6911 117.611L16.5902 105.129L30.2732 101.049L29.4724 109.193C29.4724 109.193 29.1275 104.211 27.8185 103.688C26.4845 103.301 18.6184 104.8 17.7381 105.762C16.9937 106.749 15.6911 117.611 15.6911 117.611Z" fill="#A4006D"/>
<path opacity="0.2" d="M31.7401 112.141L32.8608 99.9806L43.3427 95.7318C43.3427 95.7318 35.6188 99.5059 34.4771 101.122C33.4965 102.628 31.7401 112.141 31.7401 112.141Z" fill="#A4006D"/>
<path opacity="0.2" d="M47.9972 106.289L47.4368 94.0987L63.125 84.4867L63.6749 86.8369C63.6749 86.8369 62.0691 86.3999 60.5594 86.9645C59.1857 87.5541 51.0248 92.9341 49.2391 94.9936C47.5643 97.2142 47.9972 106.289 47.9972 106.289Z" fill="#A4006D"/>
<path opacity="0.2" d="M-0.270031 136.308L-0.247036 123.242L13.0242 120.632C13.0242 120.632 2.79316 123.522 1.24378 125.063C-0.169692 126.629 -0.270031 136.308 -0.270031 136.308Z" fill="#A4006D"/>
<path opacity="0.2" d="M14.7041 135.137L15.5112 120.108L28.9831 116.411L28.2952 128.511C28.2952 128.511 27.9983 119.462 26.8504 118.828C25.7025 118.195 18.6518 119.844 16.9414 121.496C15.4171 122.901 14.7041 135.137 14.7041 135.137Z" fill="#A4006D"/>
<path opacity="0.2" d="M30.5228 132.436L31.5453 115.479L43.3256 111.048C43.3256 111.048 35.4051 114.364 34.0272 116.499C32.6493 118.634 30.5228 132.436 30.5228 132.436Z" fill="#A4006D"/>
<path opacity="0.2" d="M30.4456 147.319L30.4791 134.958L39.4722 132.683C39.4722 132.683 33.7555 134.719 32.478 136.311C31.3363 137.927 30.4456 147.319 30.4456 147.319Z" fill="#A4006D"/>
<path opacity="0.2" d="M14.3762 151.38L14.6857 137.523L28.1533 135.372L28.1199 147.733C28.1199 147.733 28.3709 137.239 26.1461 137.109C23.9214 136.98 18.4556 137.657 17.0171 139.359C15.5534 141.197 14.3762 151.38 14.3762 151.38Z" fill="#A4006D"/>
<path opacity="0.2" d="M48.7443 114.437L48.0919 108.836L54.4923 105.38C54.6282 105.405 49.5514 108.543 48.7443 114.437Z" fill="#A4006D"/>
<path opacity="0.2" d="M0.194398 152.837L-0.150561 138.719L10.5195 138.019C10.5195 138.019 2.96486 138.592 1.85876 140.777C0.72756 143.098 0.194398 152.837 0.194398 152.837Z" fill="#A4006D"/>
<path opacity="0.2" d="M1.55162 171.359L0.309618 155.248L11.8954 154.155L12.0669 163.884C12.0669 163.884 11.2974 155.871 10.2603 155.399C9.22323 154.926 3.10304 155.342 1.73975 156.637C0.512371 157.956 1.55162 171.359 1.55162 171.359Z" fill="#A4006D"/>
<path opacity="0.2" d="M14.8848 169.182L14.3329 153.902L28.1623 150.552L28.2898 153.667C28.2898 153.667 27.3427 151.947 26.3411 152.043C25.3395 152.139 18.0923 153.331 16.7646 155.194C15.326 156.896 14.8848 169.182 14.8848 169.182Z" fill="#A4006D"/>
<path opacity="0.2" d="M15.5168 177.169L14.9753 171.729L20.6919 169.692C20.6919 169.692 16.9784 171.536 16.2341 172.523C15.6507 173.399 15.5168 177.169 15.5168 177.169Z" fill="#A4006D"/>
<path opacity="0.2" d="M3.75057 186.1C3.75057 186.1 2.32247 179.371 1.80601 173.795L12.3297 172.365L13.1681 177.719C13.1681 177.719 11.5957 174.056 10.8304 173.634C10.0651 173.211 3.91988 173.763 3.28633 174.911C2.81377 175.948 3.75057 186.1 3.75057 186.1Z" fill="#A4006D"/>
<path opacity="0.2" d="M-5.62796 184.369L-7.38012 174.067L-0.630605 174.048L0.132564 179.81C0.132564 179.81 -0.820914 175.84 -2.12984 175.317C-3.41367 174.658 -5.11987 174.765 -5.65306 175.369C-6.16116 175.838 -5.62796 184.369 -5.62796 184.369Z" fill="#A4006D"/>
<path d="M2.89001 78.8473L3.51103 64.0644C3.51103 64.0644 6.22293 62.3164 7.04467 64.7167L4.46026 78.7155L2.89001 78.8473Z" fill="url(#paint21_linear_248_11420)"/>
<path d="M-21.3021 70.5864C-21.3021 70.5864 -22.655 72.5853 -20.8275 73.3443C-19.0252 74.2392 -6.85797 77.6098 13.1836 76.3908L17.33 74.486C17.33 74.486 -3.12984 74.9251 -12.2358 73.2439C-19.6001 72.0249 -21.3021 70.5864 -21.3021 70.5864Z" fill="url(#paint22_linear_248_11420)"/>
<path opacity="0.2" d="M-9.75168 81.854L-10.0319 75.7589L3.01977 76.6225C3.01977 76.6225 -7.37422 75.828 -8.39042 76.7647C-9.40661 77.7014 -9.75168 81.854 -9.75168 81.854Z" fill="#A4006D"/>
<path opacity="0.2" fill-rule="evenodd" clip-rule="evenodd" d="M74.1876 53.5014C74.1876 53.5014 50.2443 62.1516 40.3145 63.4103C30.3846 64.6691 9.77431 56.7883 2.66724 56.46C2.66724 56.46 8.9087 56.9096 19.8485 61.5996C30.7882 66.2895 40.7243 67.2806 74.1876 53.5014Z" fill="#A4006D"/>
<path opacity="0.2" fill-rule="evenodd" clip-rule="evenodd" d="M3.67003 51.0234C3.67003 51.0234 12.7301 51.4312 16.3244 52.5164C16.3244 52.5164 9.84664 52.5854 3.67003 51.0234Z" fill="#A4006D"/>
<path opacity="0.2" fill-rule="evenodd" clip-rule="evenodd" d="M41.1154 55.2662C41.1154 55.2662 55.1644 57.5788 73.2698 50.0996C73.2698 50.0996 55.0829 55.7367 41.1154 55.2662Z" fill="#A4006D"/>
<path fill-rule="evenodd" clip-rule="evenodd" d="M32.7114 13.2382C21.0042 13.4661 7.294 23.0217 -0.984005 25.9908C-4.46123 27.3164 -2.38497 32.0566 -2.05251 32.5396C-0.758223 33.9029 9.31387 25.7838 12.697 27.2516C16.055 28.8554 2.39077 57.9549 -0.47172 60.5184C-3.33421 63.0818 -5.39798 62.8414 -6.47899 64.8905C-7.56 66.9396 -7.01427 70.835 -7.98447 73.0451C-8.95466 75.2552 -4.63478 77.7393 -3.20667 75.3326C-1.77856 72.9259 -2.35149 65.3714 -2.15076 64.2841C-1.95003 63.1968 1.33692 63.6631 2.30293 62.9982C3.24385 62.4692 11.48 38.4109 16.6865 33.0477C21.8929 27.6845 24.1218 44.5395 30.3026 44.5562C36.5085 44.437 43.5654 26.7665 48.8492 24.7906C54.133 22.8147 56.5521 37.8778 56.366 47.2598C56.205 56.5059 54.7979 60.3218 55.6844 61.6099C56.5459 63.0338 59.5548 61.2 60.3054 62.463C61.0561 63.7259 58.8668 73.3003 57.4115 81.1831C56.0921 89.091 61.2986 92.863 63.1741 89.5552C65.0497 86.2473 63.331 81.8543 63.5589 75.2908C63.7617 68.8633 66.5719 62.7766 66.4695 59.5252C66.367 56.2738 64.6106 56.6523 63.9102 55.1175C63.2097 53.5828 62.3901 36.7069 64.7445 34.6118C67.0989 32.5166 69.0706 39.3456 69.079 45.3905C69.0873 51.4354 71.9561 51.1218 72.5645 50.1097C73.1479 49.2336 71.0988 48.1526 70.1851 43.2055C69.1354 38.2333 69.2755 36.7131 69.2755 36.7131C69.2755 36.7131 71.3769 41.3174 72.0732 44.3973C72.0732 44.3973 75.7177 45.2107 76.8384 42.1851C77.9591 39.1595 74.5468 39.3728 70.8354 35.8768C66.9881 32.3556 64.4015 24.2888 60.9724 21.5476C60.9724 21.5476 62.1747 20.3641 61.4993 18.6935C60.824 17.0228 53.8298 11.5153 44.5733 10.6497C30.2128 9.26335 32.7114 13.2382 32.7114 13.2382Z" fill="url(#paint23_linear_248_11420)"/>
<path opacity="0.8" fill-rule="evenodd" clip-rule="evenodd" d="M64.0497 86.3436C64.0497 86.3436 62.2202 90.9249 58.8161 88.0477C55.4121 85.1706 62.6279 63.5943 62.3247 61.4302C61.8856 59.241 56.5516 61.4887 56.1627 59.0277C55.7738 56.5666 58.0843 47.8579 56.4826 36.7404C55.0169 25.648 51.4059 21.6083 49.4174 20.9602C47.429 20.312 35.6445 44.5584 30.1223 43.2578C24.6002 41.9573 21.5787 30.156 19.0466 29.4075C16.5145 28.6589 11.4168 39.5234 8.04826 46.3503C4.81567 53.2023 2.65573 61.0956 1.63954 62.0323C0.734165 63.13 -2.0948 62.4672 -3.13608 63.5399C-4.15228 64.4766 -2.36663 71.5523 -3.55846 73.4404C-4.75029 75.3285 -7.0002 75.3348 -8.19412 73.4279C-8.19412 73.4279 -7.81985 76.7295 -4.59354 76.7629C-1.34214 76.6605 -1.63485 66.0657 -0.679289 64.6961C0.276268 63.3266 2.74778 63.6423 4.5439 62.2874C6.3651 60.7966 14.5594 33.9197 18.6869 34.4006C22.8144 34.8815 22.8354 45.4261 30.1097 47.8934C37.4092 50.2248 44.5727 25.1253 49.798 26.5116C55.0483 27.762 52.2067 59.1406 53.5721 61.6413C54.9374 64.1421 58.2181 62.3585 59.226 64.5122C60.2338 66.6659 53.5449 85.3881 57.388 90.4544C61.206 95.6566 64.1877 90.1638 64.0497 86.3436Z" fill="url(#paint24_radial_248_11420)"/>
<path opacity="0.5" fill-rule="evenodd" clip-rule="evenodd" d="M61.5251 18.5576C61.5251 18.5576 61.3202 21.1901 53.3015 19.7097C45.2827 18.2293 32.5762 13.2131 32.5762 13.2131C32.5762 13.2131 41.4166 17.0939 48.9377 19.7473C56.4588 22.4007 60.9982 21.4117 60.9982 21.4117C60.9982 21.4117 62.2611 20.6611 61.5251 18.5576Z" fill="url(#paint25_radial_248_11420)"/>
<path opacity="0.8" fill-rule="evenodd" clip-rule="evenodd" d="M-3.06543 28.1363C-3.06543 28.1363 -2.36495 29.6711 3.67367 27.4129C9.84819 25.1797 12.6354 23.024 13.9443 23.5467C15.3891 24.0946 12.3887 31.9732 12.3887 31.9732C12.3887 31.9732 13.2877 28.6256 9.95061 28.4311C6.58839 28.3726 -5.04973 35.0782 -5.04973 35.0782L-2.29801 32.3537C-2.02619 32.4039 -3.58816 29.4452 -3.06543 28.1363Z" fill="url(#paint26_radial_248_11420)"/>
<path opacity="0.8" fill-rule="evenodd" clip-rule="evenodd" d="M72.5909 49.9739C72.5909 49.9739 71.0457 49.9697 69.766 47.7659C68.4864 45.562 70.2909 41.1167 68.9046 37.2067C67.6542 33.3217 65.6197 31.4001 64.8649 31.6824C64.11 31.9647 63.5246 38.181 63.5246 38.181C63.5246 38.181 64.1017 35.0551 65.3751 35.0091C66.6485 34.9631 68.6787 38.4299 68.6411 43.2014C68.6892 48.2698 69.7138 53.3779 72.5909 49.9739Z" fill="url(#paint27_radial_248_11420)"/>
<path opacity="0.8" fill-rule="evenodd" clip-rule="evenodd" d="M76.9758 42.2101C76.9758 42.2101 75.9993 42.1704 73.3459 40.5562C70.8536 38.8312 68.334 33.447 68.334 33.447L69.277 36.7131L72.0747 44.3972C72.0747 44.3972 75.2863 45.2712 76.9758 42.2101Z" fill="url(#paint28_radial_248_11420)"/>
<path opacity="0.5" fill-rule="evenodd" clip-rule="evenodd" d="M-1.9004 26.3839C-1.9004 26.3839 -0.309216 27.6615 6.38386 25.6646C13.0769 23.6678 18.7517 18.8126 20.2112 18.5199C21.5347 18.2021 16.4391 23.7263 16.5311 26.2731C16.598 28.9558 22.4296 25.535 30.2518 26.5575C38.074 27.5799 43.8993 21.9093 46.4858 20.8409C49.0723 19.7724 52.2443 21.6229 53.5532 22.1456C54.8621 22.6684 58.6467 21.9616 58.6467 21.9616C58.6467 21.9616 53.135 21.3657 47.3661 19.879C41.5972 18.3924 32.6606 13.5101 32.6606 13.5101C32.6606 13.5101 23.8076 14.2649 17.9655 16.981C12.1234 19.6971 1.12936 25.9595 -1.9004 26.3839Z" fill="url(#paint29_radial_248_11420)"/>
<path opacity="0.5" fill-rule="evenodd" clip-rule="evenodd" d="M33.9524 11.0784C33.9524 11.0784 35.761 14.2231 42.9643 15.553C50.1424 17.0187 49.8434 13.3094 52.3651 13.3533C54.8867 13.3972 58.9348 15.8311 58.9348 15.8311C58.9348 15.8311 51.1043 8.76373 33.9524 11.0784Z" fill="url(#paint30_radial_248_11420)"/>
<path opacity="0.5" fill-rule="evenodd" clip-rule="evenodd" d="M53.7705 24.0129C53.7705 24.0129 55.5039 27.5654 56.4281 33.2172C57.4882 38.8941 56.1625 53.6874 58.3977 54.5217C60.7689 55.3811 61.6345 46.1245 62.2388 37.5224C62.8431 28.9203 67.5456 31.6155 67.5456 31.6155C67.5456 31.6155 64.6079 25.4515 61.4652 21.9199C61.4903 21.784 57.7475 25.3093 53.7705 24.0129Z" fill="url(#paint31_radial_248_11420)"/>
<path fill-rule="evenodd" clip-rule="evenodd" d="M29.8528 41.6626C29.8528 41.6626 32.4351 42.1393 34.5427 39.8581C34.5678 39.7222 33.5538 44.454 29.8528 41.6626Z" fill="#FFD4D1"/>
<path fill-rule="evenodd" clip-rule="evenodd" d="M37.1355 13.6334C37.1355 13.6334 40.2865 14.0746 42.0136 15.3773C42.1496 15.4024 40.4538 16.2136 37.1355 13.6334Z" fill="#FFD4D1"/>
<path fill-rule="evenodd" clip-rule="evenodd" d="M-1.18797 28.6231L4.42826 27.1302C4.42826 27.1302 2.19516 30.091 -1.18797 28.6231Z" fill="#FFD4D1"/>
<path fill-rule="evenodd" clip-rule="evenodd" d="M57.9316 85.2146C57.9316 85.2146 58.9855 88.6416 61.0241 89.018C61.0241 89.018 57.687 88.8235 57.9316 85.2146Z" fill="#FFD4D1"/>
<path fill-rule="evenodd" clip-rule="evenodd" d="M63.3405 33.0875C63.3405 33.0875 64.0933 29.0102 66.7069 31.6009C66.7069 31.6009 64.7937 30.5449 63.3405 33.0875Z" fill="#FFD4D1"/>
<path fill-rule="evenodd" clip-rule="evenodd" d="M71.9141 39.1677C71.9141 39.1677 73.8629 40.7924 75.7761 41.8483C75.912 41.8734 73.4258 42.3982 71.9141 39.1677Z" fill="#FFD4D1"/>
<path opacity="0.5" fill-rule="evenodd" clip-rule="evenodd" d="M-6.13105 64.533C-6.13105 64.533 -4.9685 64.326 -2.67893 63.3432C-0.389361 62.3605 0.994853 62.4755 1.34195 62.118C1.68904 61.7604 -0.707215 61.0369 -0.707215 61.0369C-0.707215 61.0369 -2.29211 62.0092 -3.18285 62.2664C-4.8535 62.9418 -6.03068 63.9893 -6.13105 64.533Z" fill="#ECBDD0"/>
<path opacity="0.5" fill-rule="evenodd" clip-rule="evenodd" d="M57.1115 59.2032C56.11 59.2994 61.7931 60.4891 63.3634 60.3574C64.7978 60.2006 65.9791 57.6078 65.9791 57.6078C65.9791 57.6078 65.2285 56.3449 64.0555 55.8473C62.7215 55.4604 61.9583 58.8331 57.1115 59.2032Z" fill="#ECBDD0"/>
<defs>
<linearGradient id="paint0_linear_248_11420" x1="26.7934" y1="75.9151" x2="34.1593" y2="36.0165" gradientUnits="userSpaceOnUse">
<stop stop-color="#D6523B"/>
<stop offset="1" stop-color="#C93129"/>
</linearGradient>
<linearGradient id="paint1_linear_248_11420" x1="28.1432" y1="68.5951" x2="34.0606" y2="36.5427" gradientUnits="userSpaceOnUse">
<stop stop-color="#FFB53B"/>
<stop offset="0.1924" stop-color="#FFBE43"/>
<stop offset="0.6019" stop-color="#FFCA4D"/>
<stop offset="1" stop-color="#FFCE51"/>
</linearGradient>
<linearGradient id="paint2_linear_248_11420" x1="26.5954" y1="76.1258" x2="37.8055" y2="15.4043" gradientUnits="userSpaceOnUse">
<stop stop-color="#FFA4E3"/>
<stop offset="0.1122" stop-color="#FFB3D2"/>
<stop offset="0.3379" stop-color="#FFCBB5"/>
<stop offset="0.5628" stop-color="#FFDCA1"/>
<stop offset="0.7847" stop-color="#FFE794"/>
<stop offset="1" stop-color="#FFEA90"/>
</linearGradient>
<linearGradient id="paint3_linear_248_11420" x1="-10.355" y1="184.308" x2="11.5722" y2="65.5358" gradientUnits="userSpaceOnUse">
<stop stop-color="#FF7E29"/>
<stop offset="0.3213" stop-color="#FF822B"/>
<stop offset="0.6523" stop-color="#FF8E31"/>
<stop offset="0.9868" stop-color="#FFA33B"/>
<stop offset="1" stop-color="#FFA43B"/>
</linearGradient>
<radialGradient id="paint4_radial_248_11420" cx="0" cy="0" r="1" gradientUnits="userSpaceOnUse" gradientTransform="translate(23.0549 96.0119) rotate(10.46) scale(68.3778 68.3778)">
<stop stop-color="#FFB029"/>
<stop offset="0.3052" stop-color="#FFAC2B"/>
<stop offset="0.6197" stop-color="#FF9F30"/>
<stop offset="0.9374" stop-color="#FF8B39"/>
<stop offset="1" stop-color="#FF863B"/>
</radialGradient>
<linearGradient id="paint5_linear_248_11420" x1="25.3703" y1="95.218" x2="35.377" y2="41.0157" gradientUnits="userSpaceOnUse">
<stop stop-color="#FFB53B"/>
<stop offset="0.1924" stop-color="#FFBE43"/>
<stop offset="0.6019" stop-color="#FFCA4D"/>
<stop offset="1" stop-color="#FFCE51"/>
</linearGradient>
<linearGradient id="paint6_linear_248_11420" x1="3.69024" y1="67.2937" x2="4.42283" y2="63.3255" gradientUnits="userSpaceOnUse">
<stop stop-color="#FFB53B"/>
<stop offset="0.1924" stop-color="#FFBE43"/>
<stop offset="0.6019" stop-color="#FFCA4D"/>
<stop offset="1" stop-color="#FFCE51"/>
</linearGradient>
<linearGradient id="paint7_linear_248_11420" x1="-21.5361" y1="194.662" x2="-1.57052" y2="86.5156" gradientUnits="userSpaceOnUse">
<stop stop-color="#FFAC57"/>
<stop offset="0.0262918" stop-color="#FFAE55"/>
<stop offset="0.3563" stop-color="#FFC245"/>
<stop offset="0.683" stop-color="#FFCF3B"/>
<stop offset="1" stop-color="#FFD338"/>
</linearGradient>
<linearGradient id="paint8_linear_248_11420" x1="-7.59381" y1="195.402" x2="13.5528" y2="80.8583" gradientUnits="userSpaceOnUse">
<stop stop-color="#FFAC57"/>
<stop offset="0.0262918" stop-color="#FFAE55"/>
<stop offset="0.3563" stop-color="#FFC245"/>
<stop offset="0.683" stop-color="#FFCF3B"/>
<stop offset="1" stop-color="#FFD338"/>
</linearGradient>
<linearGradient id="paint9_linear_248_11420" x1="6.95673" y1="180.901" x2="26.5256" y2="74.9036" gradientUnits="userSpaceOnUse">
<stop stop-color="#FFAC57"/>
<stop offset="0.0262918" stop-color="#FFAE55"/>
<stop offset="0.3563" stop-color="#FFC245"/>
<stop offset="0.683" stop-color="#FFCF3B"/>
<stop offset="1" stop-color="#FFD338"/>
</linearGradient>
<linearGradient id="paint10_linear_248_11420" x1="24.5682" y1="155.501" x2="40.5355" y2="69.0113" gradientUnits="userSpaceOnUse">
<stop stop-color="#FFAC57"/>
<stop offset="0.0262918" stop-color="#FFAE55"/>
<stop offset="0.3563" stop-color="#FFC245"/>
<stop offset="0.683" stop-color="#FFCF3B"/>
<stop offset="1" stop-color="#FFD338"/>
</linearGradient>
<linearGradient id="paint11_linear_248_11420" x1="42.7654" y1="120.293" x2="52.8366" y2="65.7405" gradientUnits="userSpaceOnUse">
<stop stop-color="#FFAC57"/>
<stop offset="0.0262918" stop-color="#FFAE55"/>
<stop offset="0.3563" stop-color="#FFC245"/>
<stop offset="0.683" stop-color="#FFCF3B"/>
<stop offset="1" stop-color="#FFD338"/>
</linearGradient>
<linearGradient id="paint12_linear_248_11420" x1="61.1596" y1="88.4646" x2="66.25" y2="60.8917" gradientUnits="userSpaceOnUse">
<stop stop-color="#FFAC57"/>
<stop offset="0.0262918" stop-color="#FFAE55"/>
<stop offset="0.3563" stop-color="#FFC245"/>
<stop offset="0.683" stop-color="#FFCF3B"/>
<stop offset="1" stop-color="#FFD338"/>
</linearGradient>
<linearGradient id="paint13_linear_248_11420" x1="76.2219" y1="65.1882" x2="78.4208" y2="53.2777" gradientUnits="userSpaceOnUse">
<stop stop-color="#FFAC57"/>
<stop offset="0.0262918" stop-color="#FFAE55"/>
<stop offset="0.3563" stop-color="#FFC245"/>
<stop offset="0.683" stop-color="#FFCF3B"/>
<stop offset="1" stop-color="#FFD338"/>
</linearGradient>
<linearGradient id="paint14_linear_248_11420" x1="23.7368" y1="105.474" x2="34.222" y2="48.6794" gradientUnits="userSpaceOnUse">
<stop stop-color="#FFD338"/>
<stop offset="0.317" stop-color="#FFCF3B"/>
<stop offset="0.6437" stop-color="#FFC245"/>
<stop offset="0.9737" stop-color="#FFAE55"/>
<stop offset="1" stop-color="#FFAC57"/>
</linearGradient>
<linearGradient id="paint15_linear_248_11420" x1="20.7334" y1="119.493" x2="30.2838" y2="67.7618" gradientUnits="userSpaceOnUse">
<stop stop-color="#FFD338"/>
<stop offset="0.317" stop-color="#FFCF3B"/>
<stop offset="0.6437" stop-color="#FFC245"/>
<stop offset="0.9737" stop-color="#FFAE55"/>
<stop offset="1" stop-color="#FFAC57"/>
</linearGradient>
<linearGradient id="paint16_linear_248_11420" x1="16.9327" y1="132.015" x2="23.9996" y2="93.737" gradientUnits="userSpaceOnUse">
<stop stop-color="#FFD338"/>
<stop offset="0.317" stop-color="#FFCF3B"/>
<stop offset="0.6437" stop-color="#FFC245"/>
<stop offset="0.9737" stop-color="#FFAE55"/>
<stop offset="1" stop-color="#FFAC57"/>
</linearGradient>
<linearGradient id="paint17_linear_248_11420" x1="11.7917" y1="143.818" x2="15.4242" y2="124.142" gradientUnits="userSpaceOnUse">
<stop stop-color="#FFD338"/>
<stop offset="0.317" stop-color="#FFCF3B"/>
<stop offset="0.6437" stop-color="#FFC245"/>
<stop offset="0.9737" stop-color="#FFAE55"/>
<stop offset="1" stop-color="#FFAC57"/>
</linearGradient>
<linearGradient id="paint18_linear_248_11420" x1="9.00263" y1="159.226" x2="12.2837" y2="141.454" gradientUnits="userSpaceOnUse">
<stop stop-color="#FFD338"/>
<stop offset="0.317" stop-color="#FFCF3B"/>
<stop offset="0.6437" stop-color="#FFC245"/>
<stop offset="0.9737" stop-color="#FFAE55"/>
<stop offset="1" stop-color="#FFAC57"/>
</linearGradient>
<linearGradient id="paint19_linear_248_11420" x1="5.50373" y1="176.6" x2="7.99402" y2="163.111" gradientUnits="userSpaceOnUse">
<stop stop-color="#FFD338"/>
<stop offset="0.317" stop-color="#FFCF3B"/>
<stop offset="0.6437" stop-color="#FFC245"/>
<stop offset="0.9737" stop-color="#FFAE55"/>
<stop offset="1" stop-color="#FFAC57"/>
</linearGradient>
<linearGradient id="paint20_linear_248_11420" x1="1.74474" y1="188.393" x2="2.49987" y2="184.303" gradientUnits="userSpaceOnUse">
<stop stop-color="#FFD338"/>
<stop offset="0.317" stop-color="#FFCF3B"/>
<stop offset="0.6437" stop-color="#FFC245"/>
<stop offset="0.9737" stop-color="#FFAE55"/>
<stop offset="1" stop-color="#FFAC57"/>
</linearGradient>
<linearGradient id="paint21_linear_248_11420" x1="2.74792" y1="78.838" x2="5.59593" y2="63.4114" gradientUnits="userSpaceOnUse">
<stop stop-color="#FF863B"/>
<stop offset="0.2322" stop-color="#FF9F34"/>
<stop offset="0.4924" stop-color="#FFB32E"/>
<stop offset="0.75" stop-color="#FFC02A"/>
<stop offset="1" stop-color="#FFC429"/>
</linearGradient>
<linearGradient id="paint22_linear_248_11420" x1="-2.91114" y1="77.1448" x2="-1.77159" y2="70.9723" gradientUnits="userSpaceOnUse">
<stop stop-color="#FF863B"/>
<stop offset="0.0645328" stop-color="#FF8F39"/>
<stop offset="0.3009" stop-color="#FFAC32"/>
<stop offset="0.5365" stop-color="#FFC02D"/>
<stop offset="0.7689" stop-color="#FFCD2A"/>
<stop offset="0.9944" stop-color="#FFD129"/>
</linearGradient>
<linearGradient id="paint23_linear_248_11420" x1="27.8947" y1="84.3911" x2="41.6598" y2="9.83068" gradientUnits="userSpaceOnUse">
<stop stop-color="#A52731"/>
<stop offset="1" stop-color="#7C2C5B"/>
</linearGradient>
<radialGradient id="paint24_radial_248_11420" cx="0" cy="0" r="1" gradientUnits="userSpaceOnUse" gradientTransform="translate(33.0478 52.7557) rotate(10.46) scale(35.5031 35.5031)">
<stop stop-color="white"/>
<stop offset="1" stop-color="#D46893"/>
</radialGradient>
<radialGradient id="paint25_radial_248_11420" cx="0" cy="0" r="1" gradientUnits="userSpaceOnUse" gradientTransform="translate(46.9925 17.871) rotate(10.46) scale(10.6493 10.6493)">
<stop stop-color="white"/>
<stop offset="1" stop-color="#D46893"/>
</radialGradient>
<radialGradient id="paint26_radial_248_11420" cx="0" cy="0" r="1" gradientUnits="userSpaceOnUse" gradientTransform="translate(4.96517 29.4633) rotate(10.46) scale(8.0058)">
<stop stop-color="white"/>
<stop offset="1" stop-color="#D46893"/>
</radialGradient>
<radialGradient id="paint27_radial_248_11420" cx="0" cy="0" r="1" gradientUnits="userSpaceOnUse" gradientTransform="translate(68.4753 41.5499) rotate(10.46) scale(7.45257 7.45255)">
<stop stop-color="white"/>
<stop offset="1" stop-color="#D46893"/>
</radialGradient>
<radialGradient id="paint28_radial_248_11420" cx="0" cy="0" r="1" gradientUnits="userSpaceOnUse" gradientTransform="translate(72.3366 39.2527) rotate(10.46) scale(5.04401 5.04401)">
<stop stop-color="white"/>
<stop offset="1" stop-color="#D46893"/>
</radialGradient>
<radialGradient id="paint29_radial_248_11420" cx="0" cy="0" r="1" gradientUnits="userSpaceOnUse" gradientTransform="translate(28.6122 22.5228) rotate(10.46) scale(21.7689)">
<stop stop-color="white"/>
<stop offset="1" stop-color="#D46893"/>
</radialGradient>
<radialGradient id="paint30_radial_248_11420" cx="0" cy="0" r="1" gradientUnits="userSpaceOnUse" gradientTransform="translate(46.4311 13.5838) rotate(10.46) scale(9.17626 9.17628)">
<stop stop-color="white"/>
<stop offset="1" stop-color="#D46893"/>
</radialGradient>
<radialGradient id="paint31_radial_248_11420" cx="0" cy="0" r="1" gradientUnits="userSpaceOnUse" gradientTransform="translate(58.7721 37.933) rotate(10.46) scale(12.7055 12.7055)">
<stop stop-color="white"/>
<stop offset="1" stop-color="#D46893"/>
</radialGradient>
</defs>
</svg>
