<svg width="63" height="76" viewBox="0 0 63 76" fill="none" xmlns="http://www.w3.org/2000/svg">
<path fill-rule="evenodd" clip-rule="evenodd" d="M39.2598 23.7377C39.2598 23.7377 43.2598 18.8377 43.2598 13.6377C43.2598 13.6377 46.3598 12.0377 50.0598 13.5377C50.0598 13.5377 45.6597 21.7377 40.1597 24.3377L39.2598 23.7377Z" fill="url(#paint0_linear_248_11509)"/>
<path fill-rule="evenodd" clip-rule="evenodd" d="M15.3589 14.9376C-1.34114 13.5376 -4.4411 61.7376 7.9589 72.6376C20.3589 83.5376 56.5589 58.1376 59.5589 47.8376C62.6589 37.6376 34.9589 16.6376 15.3589 14.9376Z" fill="url(#paint1_linear_248_11509)"/>
<path fill-rule="evenodd" clip-rule="evenodd" d="M29.9598 18.9377C29.9598 18.9377 20.9598 13.7377 19.2598 0.637695C19.2598 0.637695 23.9598 13.9377 35.9598 21.9377L29.9598 18.9377Z" fill="url(#paint2_radial_248_11509)"/>
<path fill-rule="evenodd" clip-rule="evenodd" d="M49.3589 30.9377C49.3589 30.9377 58.4589 29.7376 61.6589 20.8376C61.6589 20.8376 53.159 26.8376 38.959 23.5376L49.3589 30.9377Z" fill="url(#paint3_linear_248_11509)"/>
<path fill-rule="evenodd" clip-rule="evenodd" d="M49.3594 30.9377C49.3594 30.9377 56.7594 36.1377 62.5594 36.1377C62.5594 36.1377 59.8594 38.1377 54.4594 35.8377C54.4594 35.8377 52.8594 33.6377 49.3594 30.9377Z" fill="url(#paint4_radial_248_11509)"/>
<path fill-rule="evenodd" clip-rule="evenodd" d="M29.9587 18.9377C29.9587 18.9377 26.4586 10.3376 33.1586 4.83765C33.1586 4.83765 30.8587 18.1376 38.8587 23.5376L29.9587 18.9377Z" fill="url(#paint5_linear_248_11509)"/>
<path opacity="0.5" fill-rule="evenodd" clip-rule="evenodd" d="M18.3594 22.3376C18.3594 22.3376 12.4594 22.5377 14.3594 28.4377C14.3594 28.5377 19.0594 27.2376 18.3594 22.3376Z" fill="#A4006D"/>
<path fill-rule="evenodd" clip-rule="evenodd" d="M16.8585 24.1377C16.8585 24.1377 14.9585 24.9377 15.0585 26.8377C15.0585 26.7377 17.1585 25.9377 16.8585 24.1377Z" fill="url(#paint6_linear_248_11509)"/>
<path opacity="0.5" fill-rule="evenodd" clip-rule="evenodd" d="M23.959 30.7378C23.959 30.7378 18.059 30.9378 19.959 36.8378C19.859 36.9378 24.559 35.6378 23.959 30.7378Z" fill="#A4006D"/>
<path fill-rule="evenodd" clip-rule="evenodd" d="M22.3585 32.5378C22.3585 32.5378 20.4585 33.3379 20.5585 35.2379C20.5585 35.1379 22.6585 34.3378 22.3585 32.5378Z" fill="url(#paint7_linear_248_11509)"/>
<path opacity="0.5" fill-rule="evenodd" clip-rule="evenodd" d="M20.5586 46.1377C20.5586 46.1377 14.6586 46.3377 16.5586 52.2377C16.4586 52.2377 21.1586 50.9377 20.5586 46.1377Z" fill="#A4006D"/>
<path fill-rule="evenodd" clip-rule="evenodd" d="M18.9582 47.8376C18.9582 47.8376 17.0581 48.6376 17.1581 50.5376C17.2581 50.5376 19.3582 49.7376 18.9582 47.8376Z" fill="url(#paint8_linear_248_11509)"/>
<path opacity="0.5" fill-rule="evenodd" clip-rule="evenodd" d="M43.8588 57.2377C43.8588 57.2377 38.0588 56.2377 38.6588 62.4377C38.6588 62.4377 43.4588 62.1377 43.8588 57.2377Z" fill="#A4006D"/>
<path fill-rule="evenodd" clip-rule="evenodd" d="M41.9583 58.6377C41.9583 58.6377 39.9582 58.9377 39.6582 60.9377C39.6582 60.8377 41.9583 60.5377 41.9583 58.6377Z" fill="url(#paint9_linear_248_11509)"/>
<path opacity="0.5" fill-rule="evenodd" clip-rule="evenodd" d="M15.7588 64.6377C15.7588 64.6377 12.7588 64.7377 13.7588 67.7377C13.7588 67.6377 16.0588 67.0377 15.7588 64.6377Z" fill="#A4006D"/>
<path fill-rule="evenodd" clip-rule="evenodd" d="M14.9586 65.4377C14.9586 65.4377 14.0586 65.8378 14.0586 66.7378C14.0586 66.8378 15.1586 66.4377 14.9586 65.4377Z" fill="url(#paint10_linear_248_11509)"/>
<path opacity="0.5" fill-rule="evenodd" clip-rule="evenodd" d="M20.2588 68.7376C20.2588 68.7376 17.3587 68.4376 17.8587 71.5376C17.8587 71.5376 20.2588 71.1376 20.2588 68.7376Z" fill="#A4006D"/>
<path fill-rule="evenodd" clip-rule="evenodd" d="M19.358 69.4375C19.358 69.4375 18.358 69.7375 18.358 70.6375C18.258 70.6375 19.358 70.4375 19.358 69.4375Z" fill="url(#paint11_linear_248_11509)"/>
<path opacity="0.5" fill-rule="evenodd" clip-rule="evenodd" d="M8.05858 62.8376C8.05858 62.8376 5.25858 63.8376 7.05858 66.3376C7.05858 66.4376 9.05858 65.0376 8.05858 62.8376Z" fill="#A4006D"/>
<path fill-rule="evenodd" clip-rule="evenodd" d="M7.5589 63.9375C7.5589 63.9375 6.75887 64.5375 7.15887 65.4375C7.15887 65.4375 7.9589 64.7375 7.5589 63.9375Z" fill="url(#paint12_linear_248_11509)"/>
<path opacity="0.5" fill-rule="evenodd" clip-rule="evenodd" d="M13.2582 38.8376C13.2582 38.8376 7.55815 40.4377 10.8581 45.7377C10.8581 45.7377 15.0582 43.4376 13.2582 38.8376Z" fill="#A4006D"/>
<path fill-rule="evenodd" clip-rule="evenodd" d="M12.1577 40.9377C12.1577 40.9377 10.5577 42.1377 11.0577 43.9377C11.1577 43.9377 12.9577 42.6377 12.1577 40.9377Z" fill="url(#paint13_linear_248_11509)"/>
<path opacity="0.5" fill-rule="evenodd" clip-rule="evenodd" d="M7.45934 30.7378C7.45934 30.7378 1.75932 32.3378 5.05932 37.6378C5.05932 37.6378 9.25934 35.3378 7.45934 30.7378Z" fill="#A4006D"/>
<path fill-rule="evenodd" clip-rule="evenodd" d="M6.35887 32.8379C6.35887 32.8379 4.7589 34.0379 5.2589 35.8379C5.2589 35.8379 7.15887 34.5379 6.35887 32.8379Z" fill="url(#paint14_linear_248_11509)"/>
<path opacity="0.5" fill-rule="evenodd" clip-rule="evenodd" d="M36.0586 33.2378C36.0586 33.2378 30.1586 33.4378 32.0586 39.3378C32.0586 39.3378 36.7586 38.0378 36.0586 33.2378Z" fill="#A4006D"/>
<path fill-rule="evenodd" clip-rule="evenodd" d="M34.5577 34.9377C34.5577 34.9377 32.6577 35.7377 32.7577 37.6377C32.7577 37.6377 34.8577 36.8377 34.5577 34.9377Z" fill="url(#paint15_linear_248_11509)"/>
<path opacity="0.5" fill-rule="evenodd" clip-rule="evenodd" d="M43.4586 28.3377C43.4586 28.3377 38.0586 27.8377 40.4586 32.9377C40.4586 32.9377 44.6586 32.4377 43.4586 28.3377Z" fill="#A4006D"/>
<path fill-rule="evenodd" clip-rule="evenodd" d="M42.1578 29.6377C42.1578 29.6377 40.4578 30.0377 40.8578 31.6377C40.8578 31.6377 42.7578 31.1377 42.1578 29.6377Z" fill="url(#paint16_linear_248_11509)"/>
<path opacity="0.5" fill-rule="evenodd" clip-rule="evenodd" d="M28.359 20.9378C28.359 20.9378 22.959 20.4377 25.359 25.5377C25.359 25.5377 29.559 24.9378 28.359 20.9378Z" fill="#A4006D"/>
<path fill-rule="evenodd" clip-rule="evenodd" d="M27.1598 22.1377C27.1598 22.1377 25.4598 22.5377 25.8598 24.1377C25.7598 24.1377 27.6598 23.7377 27.1598 22.1377Z" fill="url(#paint17_linear_248_11509)"/>
<path opacity="0.5" fill-rule="evenodd" clip-rule="evenodd" d="M45.4587 42.4377C45.4587 42.4377 39.5587 42.0378 40.7587 48.1378C40.7587 48.0378 45.5587 47.3377 45.4587 42.4377Z" fill="#A4006D"/>
<path fill-rule="evenodd" clip-rule="evenodd" d="M43.6582 43.9377C43.6582 43.9377 41.6582 44.4377 41.6582 46.4377C41.6582 46.4377 43.8582 45.8377 43.6582 43.9377Z" fill="url(#paint18_linear_248_11509)"/>
<path opacity="0.5" fill-rule="evenodd" clip-rule="evenodd" d="M31.1582 50.4377C31.1582 50.4377 25.2582 50.6378 27.1582 56.5378C27.0582 56.5378 31.7582 55.2377 31.1582 50.4377Z" fill="#A4006D"/>
<path fill-rule="evenodd" clip-rule="evenodd" d="M29.5577 52.1377C29.5577 52.1377 27.6577 52.9377 27.7577 54.8377C27.7577 54.8377 29.8577 54.0377 29.5577 52.1377Z" fill="url(#paint19_linear_248_11509)"/>
<path opacity="0.5" fill-rule="evenodd" clip-rule="evenodd" d="M31.2591 63.3377C31.2591 63.3377 26.3591 62.5377 26.9591 67.7377C26.9591 67.7377 30.9591 67.4377 31.2591 63.3377Z" fill="#A4006D"/>
<path fill-rule="evenodd" clip-rule="evenodd" d="M29.6597 64.5376C29.6597 64.5376 27.9598 64.8376 27.7598 66.4376C27.7598 66.4376 29.6597 66.1376 29.6597 64.5376Z" fill="url(#paint20_linear_248_11509)"/>
<path opacity="0.5" fill-rule="evenodd" clip-rule="evenodd" d="M20.9583 56.7378C20.9583 56.7378 16.0582 57.1378 17.8582 62.0378C17.8582 62.0378 21.6583 60.7378 20.9583 56.7378Z" fill="#A4006D"/>
<path fill-rule="evenodd" clip-rule="evenodd" d="M19.6587 58.2378C19.6587 58.2378 18.1587 58.9378 18.2587 60.5378C18.3587 60.5378 20.0587 59.7378 19.6587 58.2378Z" fill="url(#paint21_linear_248_11509)"/>
<path opacity="0.5" fill-rule="evenodd" clip-rule="evenodd" d="M11.9587 52.5376C11.9587 52.5376 7.25872 54.1376 10.2587 58.4376C10.1587 58.4376 13.6587 56.2376 11.9587 52.5376Z" fill="#A4006D"/>
<path fill-rule="evenodd" clip-rule="evenodd" d="M11.1586 54.3376C11.1586 54.3376 9.85861 55.4376 10.3586 56.9376C10.3586 56.8376 11.8586 55.7376 11.1586 54.3376Z" fill="url(#paint22_linear_248_11509)"/>
<path opacity="0.5" fill-rule="evenodd" clip-rule="evenodd" d="M4.35912 48.0376C4.35912 48.0376 -0.340888 49.6376 2.65911 53.9376C2.65911 53.9376 6.05912 51.7376 4.35912 48.0376Z" fill="#A4006D"/>
<path fill-rule="evenodd" clip-rule="evenodd" d="M3.55898 49.8376C3.55898 49.8376 2.259 50.9376 2.759 52.4376C2.759 52.4376 4.25898 51.2376 3.55898 49.8376Z" fill="url(#paint23_linear_248_11509)"/>
<path opacity="0.5" fill-rule="evenodd" clip-rule="evenodd" d="M58.5581 47.9376C58.5581 47.9376 52.7581 46.6377 53.0581 52.7377C53.0581 52.7377 57.8581 52.8376 58.5581 47.9376Z" fill="#A4006D"/>
<path fill-rule="evenodd" clip-rule="evenodd" d="M56.5582 49.2375C56.5582 49.2375 54.5582 49.4376 54.1582 51.3376C54.1582 51.3376 56.3582 51.0375 56.5582 49.2375Z" fill="url(#paint24_linear_248_11509)"/>
<g style="mix-blend-mode:screen" opacity="0.42">
<path fill-rule="evenodd" clip-rule="evenodd" d="M40.4586 34.6377C40.4586 34.6377 35.0586 40.4377 31.6586 40.2377C31.6586 40.2377 30.1586 36.5377 31.9586 32.8377C33.7586 29.1377 38.3586 29.9377 38.3586 29.9377L40.1586 24.4377L32.0586 21.1377C32.0586 21.2377 28.3586 26.7376 25.4586 27.0377C25.4586 27.0377 22.6586 22.9377 24.6586 19.5377C24.6586 19.5377 21.7586 16.1377 16.4586 16.0377C11.0586 15.9377 5.55862 18.5377 3.45862 30.2377C3.45862 30.2377 7.05858 28.0377 8.85858 29.0377C10.6586 29.9376 9.05861 36.4377 6.25861 39.6377C3.45861 42.8377 2.35858 42.5377 2.35858 42.5377L2.05859 48.1377C2.05859 48.1377 4.45857 45.6377 6.15857 47.0377C7.85857 48.4377 6.75861 52.7377 6.75861 52.7377L8.15857 53.6377C8.15857 53.6377 17.8586 42.9377 22.8586 45.0377L22.2586 49.3377L25.6586 51.2377C25.6586 51.2377 29.2586 48.1376 31.5586 48.5377C31.5586 48.5377 39.0586 44.5377 42.1586 40.2377L40.4586 34.6377ZM13.1586 30.8377C10.3586 20.6377 19.1586 20.9377 19.1586 20.9377C21.5586 28.1377 13.1586 30.8377 13.1586 30.8377ZM10.7586 46.9376C6.35861 38.5376 14.1586 37.1377 14.1586 37.1377C17.4586 43.0377 10.7586 46.9376 10.7586 46.9376ZM18.8586 38.2377C16.0586 28.0377 24.8586 28.3377 24.8586 28.3377C27.1586 35.4377 18.8586 38.2377 18.8586 38.2377Z" fill="white"/>
</g>
<g style="mix-blend-mode:multiply" opacity="0.78">
<path fill-rule="evenodd" clip-rule="evenodd" d="M3.55914 57.9377C3.55914 57.9377 2.75915 67.9378 11.2592 72.7378C19.7592 77.6378 32.8592 69.1377 35.7592 65.4377C38.6592 61.7377 39.7591 52.6378 36.6591 49.8378C33.5591 47.0378 24.5591 53.1377 24.5591 53.1377L25.4592 51.0377L22.6591 49.6377C22.6591 49.6377 17.9591 53.4378 16.5591 53.8378C15.1591 54.2378 14.4592 49.7378 14.4592 49.7378C14.4592 49.7378 10.9591 51.4377 9.15911 53.4377C7.35911 55.6377 3.55914 57.9377 3.55914 57.9377Z" fill="url(#paint25_linear_248_11509)"/>
</g>
<g style="mix-blend-mode:screen">
<path fill-rule="evenodd" clip-rule="evenodd" d="M57.9581 51.1376C57.9581 51.1376 54.7581 53.9376 51.2581 53.4376C51.2581 53.4376 53.3581 49.2376 55.9581 46.3376C55.9581 46.3376 47.7581 55.3376 41.6581 55.4376L45.4581 56.3376C45.4581 56.3376 45.7581 62.6376 36.9581 63.5376L37.7581 61.4376L33.1581 63.2376C33.1581 63.2376 31.3581 69.6376 25.8581 69.2376L25.7581 67.0376L22.5581 68.2376C22.5581 68.2376 23.1581 68.8376 15.7581 75.4376C15.6581 75.2376 40.2581 72.9376 57.9581 51.1376Z" fill="url(#paint26_linear_248_11509)"/>
</g>
<path opacity="0.3" fill-rule="evenodd" clip-rule="evenodd" d="M56.0582 28.1378L47.0582 24.5378L39.1582 23.7378L49.3582 30.9378C49.3582 30.9378 53.5582 30.3378 56.0582 28.1378Z" fill="#A4006D"/>
<path opacity="0.3" fill-rule="evenodd" clip-rule="evenodd" d="M29.0586 14.1377L34.0586 16.7377C34.0586 16.7377 34.5586 20.3377 38.9586 23.5377L29.9586 18.9377C29.9586 18.9377 29.0586 15.7377 29.0586 14.1377Z" fill="#A4006D"/>
<path fill-rule="evenodd" clip-rule="evenodd" d="M25.9594 54.3376C25.9594 54.3376 25.9594 57.1376 26.7594 57.4376C27.5594 57.7376 30.5594 56.1376 30.5594 56.1376C30.5594 56.1376 26.9594 59.1376 25.7594 59.0376C24.5594 58.9376 25.9594 54.3376 25.9594 54.3376Z" fill="white"/>
<path fill-rule="evenodd" clip-rule="evenodd" d="M16.6586 59.4377C16.6586 59.4377 16.6587 62.2378 17.4587 62.5378C18.2587 62.8378 21.2587 61.2378 21.2587 61.2378C21.2587 61.2378 17.6587 64.2378 16.4587 64.1378C15.2587 63.9378 16.6586 59.4377 16.6586 59.4377Z" fill="white"/>
<path fill-rule="evenodd" clip-rule="evenodd" d="M40.1582 48.0377C40.1582 48.0377 41.6582 49.2377 44.8582 46.6377C44.8582 46.6377 41.4582 52.6377 40.1582 48.0377Z" fill="white"/>
<path fill-rule="evenodd" clip-rule="evenodd" d="M9.25865 57.8378L10.1586 59.2378C10.1586 59.2378 11.6586 58.2378 12.8586 56.2378C12.8586 56.2378 12.2587 58.9378 9.95866 60.1378C9.95866 60.1378 9.15865 59.6378 9.25865 57.8378Z" fill="white"/>
<defs>
<linearGradient id="paint0_linear_248_11509" x1="39.7398" y1="24.1391" x2="47.6893" y2="12.0272" gradientUnits="userSpaceOnUse">
<stop stop-color="#8DA73B"/>
<stop offset="1" stop-color="#708B2D"/>
</linearGradient>
<linearGradient id="paint1_linear_248_11509" x1="7.89591" y1="72.6561" x2="39.8415" y2="23.9837" gradientUnits="userSpaceOnUse">
<stop stop-color="#FE3A0B"/>
<stop offset="1" stop-color="#E80044"/>
</linearGradient>
<radialGradient id="paint2_radial_248_11509" cx="0" cy="0" r="1" gradientUnits="userSpaceOnUse" gradientTransform="translate(26.3772 8.17015) rotate(33.2785) scale(10.2865 10.2865)">
<stop stop-color="#8DA73B"/>
<stop offset="1" stop-color="#708B2D"/>
</radialGradient>
<linearGradient id="paint3_linear_248_11509" x1="46.1882" y1="28.8181" x2="54.5474" y2="16.082" gradientUnits="userSpaceOnUse">
<stop stop-color="#4A6D3B"/>
<stop offset="1" stop-color="#708B2D"/>
</linearGradient>
<radialGradient id="paint4_radial_248_11509" cx="0" cy="0" r="1" gradientUnits="userSpaceOnUse" gradientTransform="translate(54.929 32.406) rotate(33.2784) scale(5.41821 5.41821)">
<stop stop-color="#8DA73B"/>
<stop offset="1" stop-color="#708B2D"/>
</radialGradient>
<linearGradient id="paint5_linear_248_11509" x1="31.8345" y1="20.1256" x2="39.2924" y2="8.7628" gradientUnits="userSpaceOnUse">
<stop stop-color="#4A6D3B"/>
<stop offset="1" stop-color="#708B2D"/>
</linearGradient>
<linearGradient id="paint6_linear_248_11509" x1="15.0863" y1="26.7995" x2="16.8447" y2="24.1204" gradientUnits="userSpaceOnUse">
<stop stop-color="#FF9072"/>
<stop offset="0.2371" stop-color="#FFAA75"/>
<stop offset="0.4937" stop-color="#FFBE78"/>
<stop offset="0.7478" stop-color="#FFCB79"/>
<stop offset="0.9944" stop-color="#FFCF7A"/>
</linearGradient>
<linearGradient id="paint7_linear_248_11509" x1="20.6343" y1="35.194" x2="22.3928" y2="32.5148" gradientUnits="userSpaceOnUse">
<stop stop-color="#FF9072"/>
<stop offset="0.2371" stop-color="#FFAA75"/>
<stop offset="0.4937" stop-color="#FFBE78"/>
<stop offset="0.7478" stop-color="#FFCB79"/>
<stop offset="0.9944" stop-color="#FFCF7A"/>
</linearGradient>
<linearGradient id="paint8_linear_248_11509" x1="17.2411" y1="50.567" x2="18.9996" y2="47.8878" gradientUnits="userSpaceOnUse">
<stop stop-color="#FF9072"/>
<stop offset="0.2371" stop-color="#FFAA75"/>
<stop offset="0.4937" stop-color="#FFBE78"/>
<stop offset="0.7478" stop-color="#FFCB79"/>
<stop offset="0.9944" stop-color="#FFCF7A"/>
</linearGradient>
<linearGradient id="paint9_linear_248_11509" x1="39.7266" y1="60.8907" x2="42.0054" y2="58.6375" gradientUnits="userSpaceOnUse">
<stop stop-color="#FF9072"/>
<stop offset="0.2371" stop-color="#FFAA75"/>
<stop offset="0.4937" stop-color="#FFBE78"/>
<stop offset="0.7478" stop-color="#FFCB79"/>
<stop offset="0.9944" stop-color="#FFCF7A"/>
</linearGradient>
<linearGradient id="paint10_linear_248_11509" x1="14.1037" y1="66.8295" x2="14.983" y2="65.4899" gradientUnits="userSpaceOnUse">
<stop stop-color="#FF9072"/>
<stop offset="0.2371" stop-color="#FFAA75"/>
<stop offset="0.4937" stop-color="#FFBE78"/>
<stop offset="0.7478" stop-color="#FFCB79"/>
<stop offset="0.9944" stop-color="#FFCF7A"/>
</linearGradient>
<linearGradient id="paint11_linear_248_11509" x1="18.3196" y1="70.6913" x2="19.3639" y2="69.4761" gradientUnits="userSpaceOnUse">
<stop stop-color="#FF9072"/>
<stop offset="0.2371" stop-color="#FFAA75"/>
<stop offset="0.4937" stop-color="#FFBE78"/>
<stop offset="0.7478" stop-color="#FFCB79"/>
<stop offset="0.9944" stop-color="#FFCF7A"/>
</linearGradient>
<linearGradient id="paint12_linear_248_11509" x1="7.14366" y1="65.4831" x2="7.57451" y2="63.9397" gradientUnits="userSpaceOnUse">
<stop stop-color="#FF9072"/>
<stop offset="0.2371" stop-color="#FFAA75"/>
<stop offset="0.4937" stop-color="#FFBE78"/>
<stop offset="0.7478" stop-color="#FFCB79"/>
<stop offset="0.9944" stop-color="#FFCF7A"/>
</linearGradient>
<linearGradient id="paint13_linear_248_11509" x1="11.1645" y1="43.9318" x2="12.2324" y2="40.9103" gradientUnits="userSpaceOnUse">
<stop stop-color="#FF9072"/>
<stop offset="0.2371" stop-color="#FFAA75"/>
<stop offset="0.4937" stop-color="#FFBE78"/>
<stop offset="0.7478" stop-color="#FFCB79"/>
<stop offset="0.9944" stop-color="#FFCF7A"/>
</linearGradient>
<linearGradient id="paint14_linear_248_11509" x1="5.33666" y1="35.84" x2="6.40451" y2="32.8185" gradientUnits="userSpaceOnUse">
<stop stop-color="#FF9072"/>
<stop offset="0.2371" stop-color="#FFAA75"/>
<stop offset="0.4937" stop-color="#FFBE78"/>
<stop offset="0.7478" stop-color="#FFCB79"/>
<stop offset="0.9944" stop-color="#FFCF7A"/>
</linearGradient>
<linearGradient id="paint15_linear_248_11509" x1="32.7971" y1="37.6421" x2="34.5555" y2="34.963" gradientUnits="userSpaceOnUse">
<stop stop-color="#FF9072"/>
<stop offset="0.2371" stop-color="#FFAA75"/>
<stop offset="0.4937" stop-color="#FFBE78"/>
<stop offset="0.7478" stop-color="#FFCB79"/>
<stop offset="0.9944" stop-color="#FFCF7A"/>
</linearGradient>
<linearGradient id="paint16_linear_248_11509" x1="40.9116" y1="31.6312" x2="42.2317" y2="29.62" gradientUnits="userSpaceOnUse">
<stop stop-color="#FF9072"/>
<stop offset="0.2371" stop-color="#FFAA75"/>
<stop offset="0.4937" stop-color="#FFBE78"/>
<stop offset="0.7478" stop-color="#FFCB79"/>
<stop offset="0.9944" stop-color="#FFCF7A"/>
</linearGradient>
<linearGradient id="paint17_linear_248_11509" x1="25.8203" y1="24.1747" x2="27.1404" y2="22.1634" gradientUnits="userSpaceOnUse">
<stop stop-color="#FF9072"/>
<stop offset="0.2371" stop-color="#FFAA75"/>
<stop offset="0.4937" stop-color="#FFBE78"/>
<stop offset="0.7478" stop-color="#FFCB79"/>
<stop offset="0.9944" stop-color="#FFCF7A"/>
</linearGradient>
<linearGradient id="paint18_linear_248_11509" x1="41.6757" y1="46.444" x2="43.7226" y2="43.9783" gradientUnits="userSpaceOnUse">
<stop stop-color="#FF9072"/>
<stop offset="0.2371" stop-color="#FFAA75"/>
<stop offset="0.4937" stop-color="#FFBE78"/>
<stop offset="0.7478" stop-color="#FFCB79"/>
<stop offset="0.9944" stop-color="#FFCF7A"/>
</linearGradient>
<linearGradient id="paint19_linear_248_11509" x1="27.8152" y1="54.8308" x2="29.5735" y2="52.1518" gradientUnits="userSpaceOnUse">
<stop stop-color="#FF9072"/>
<stop offset="0.2371" stop-color="#FFAA75"/>
<stop offset="0.4937" stop-color="#FFBE78"/>
<stop offset="0.7478" stop-color="#FFCB79"/>
<stop offset="0.9944" stop-color="#FFCF7A"/>
</linearGradient>
<linearGradient id="paint20_linear_248_11509" x1="27.8134" y1="66.478" x2="29.6938" y2="64.5639" gradientUnits="userSpaceOnUse">
<stop stop-color="#FF9072"/>
<stop offset="0.2371" stop-color="#FFAA75"/>
<stop offset="0.4937" stop-color="#FFBE78"/>
<stop offset="0.7478" stop-color="#FFCB79"/>
<stop offset="0.9944" stop-color="#FFCF7A"/>
</linearGradient>
<linearGradient id="paint21_linear_248_11509" x1="18.3524" y1="60.5476" x2="19.7109" y2="58.2337" gradientUnits="userSpaceOnUse">
<stop stop-color="#FF9072"/>
<stop offset="0.2371" stop-color="#FFAA75"/>
<stop offset="0.4937" stop-color="#FFBE78"/>
<stop offset="0.7478" stop-color="#FFCB79"/>
<stop offset="0.9944" stop-color="#FFCF7A"/>
</linearGradient>
<linearGradient id="paint22_linear_248_11509" x1="10.3778" y1="56.8887" x2="11.1362" y2="54.3148" gradientUnits="userSpaceOnUse">
<stop stop-color="#FF9072"/>
<stop offset="0.2371" stop-color="#FFAA75"/>
<stop offset="0.4937" stop-color="#FFBE78"/>
<stop offset="0.7478" stop-color="#FFCB79"/>
<stop offset="0.9944" stop-color="#FFCF7A"/>
</linearGradient>
<linearGradient id="paint23_linear_248_11509" x1="2.78572" y1="52.4009" x2="3.54401" y2="49.8271" gradientUnits="userSpaceOnUse">
<stop stop-color="#FF9072"/>
<stop offset="0.2371" stop-color="#FFAA75"/>
<stop offset="0.4937" stop-color="#FFBE78"/>
<stop offset="0.7478" stop-color="#FFCB79"/>
<stop offset="0.9944" stop-color="#FFCF7A"/>
</linearGradient>
<linearGradient id="paint24_linear_248_11509" x1="54.1888" y1="51.336" x2="56.5969" y2="49.2215" gradientUnits="userSpaceOnUse">
<stop stop-color="#FF9072"/>
<stop offset="0.2371" stop-color="#FFAA75"/>
<stop offset="0.4937" stop-color="#FFBE78"/>
<stop offset="0.7478" stop-color="#FFCB79"/>
<stop offset="0.9944" stop-color="#FFCF7A"/>
</linearGradient>
<linearGradient id="paint25_linear_248_11509" x1="12.0221" y1="73.3385" x2="30.2016" y2="45.64" gradientUnits="userSpaceOnUse">
<stop stop-color="#D44589"/>
<stop offset="1" stop-color="white"/>
</linearGradient>
<linearGradient id="paint26_linear_248_11509" x1="34.7697" y1="59.2939" x2="40.1448" y2="66.7682" gradientUnits="userSpaceOnUse">
<stop/>
<stop offset="0.0863116" stop-color="#1A0C04"/>
<stop offset="0.4275" stop-color="#7B3815"/>
<stop offset="0.7034" stop-color="#C25821"/>
<stop offset="0.9005" stop-color="#EE6C29"/>
<stop offset="1" stop-color="#FF742C"/>
</linearGradient>
</defs>
</svg>
