<svg width="54" height="80" viewBox="0 0 54 80" fill="none" xmlns="http://www.w3.org/2000/svg">
<path fill-rule="evenodd" clip-rule="evenodd" d="M73.2736 17.7732C86.1736 36.1732 80.7736 58.0732 62.3736 70.9732C43.9736 83.8732 20.2736 81.9732 7.37363 63.5732C-5.52637 45.1732 -1.02637 20.7732 17.3736 7.87319C35.7736 -5.02681 60.3736 -0.626818 73.2736 17.7732Z" fill="url(#paint0_linear_248_11632)"/>
<path fill-rule="evenodd" clip-rule="evenodd" d="M72.2739 18.0732C84.4739 35.4732 79.1739 57.9732 61.8739 70.1732C44.4739 82.3732 21.4739 79.4732 9.37386 62.1732C-2.82614 44.7732 -1.32614 22.7732 16.0739 10.5732C33.4739 -1.62678 60.0739 0.673223 72.2739 18.0732Z" fill="url(#paint1_radial_248_11632)"/>
<path fill-rule="evenodd" clip-rule="evenodd" d="M36.3742 40.2731C36.6742 43.1731 15.0742 59.2731 11.1742 59.1731C8.57417 59.0731 0.674165 38.7731 4.57417 34.8731C8.37417 30.9731 36.1742 39.1731 36.3742 40.2731Z" fill="url(#paint2_linear_248_11632)"/>
<path fill-rule="evenodd" clip-rule="evenodd" d="M38.5727 43.5731C39.6727 43.7731 37.9727 59.5731 37.0727 73.9731C36.8727 76.5731 6.47273 64.3731 12.1727 60.6731C19.5727 55.8731 35.4727 43.0731 38.5727 43.5731Z" fill="url(#paint3_linear_248_11632)"/>
<path fill-rule="evenodd" clip-rule="evenodd" d="M41.374 42.8731C43.774 41.2731 67.874 58.2731 68.374 60.7731C69.274 65.0731 46.174 76.8731 41.074 74.6731C36.074 72.5731 38.774 44.5731 41.374 42.8731Z" fill="url(#paint4_linear_248_11632)"/>
<path fill-rule="evenodd" clip-rule="evenodd" d="M43.274 39.5733C42.974 37.8733 69.974 29.2733 74.674 29.9733C80.974 30.8733 73.874 64.2733 68.774 59.5733C63.974 55.0733 43.774 42.5733 43.274 39.5733Z" fill="url(#paint5_linear_248_11632)"/>
<path fill-rule="evenodd" clip-rule="evenodd" d="M42.474 37.0732C41.074 35.6732 48.074 20.1732 50.974 6.07323C51.474 3.47323 80.474 24.9732 71.274 28.3732C62.174 31.7732 44.074 38.6732 42.474 37.0732Z" fill="url(#paint6_linear_248_11632)"/>
<path fill-rule="evenodd" clip-rule="evenodd" d="M39.4728 35.9731C37.7728 36.0731 25.0728 13.6731 23.3728 9.07308C22.4728 6.57308 44.2728 1.27308 47.7728 5.47308C51.3728 9.67308 42.5728 35.8731 39.4728 35.9731Z" fill="url(#paint7_linear_248_11632)"/>
<path fill-rule="evenodd" clip-rule="evenodd" d="M37.5742 38.0731C36.2742 40.6731 19.6742 33.2732 5.97422 31.7732C-0.725778 31.0732 17.6742 6.67316 20.9742 10.2732C26.0742 15.7732 38.9742 35.3731 37.5742 38.0731Z" fill="url(#paint8_linear_248_11632)"/>
<path fill-rule="evenodd" clip-rule="evenodd" d="M46.6738 40.0731C46.6738 40.0731 49.1738 43.1731 51.9738 41.0731C51.9738 41.0731 50.2738 39.1731 46.6738 40.0731Z" fill="url(#paint9_radial_248_11632)"/>
<path fill-rule="evenodd" clip-rule="evenodd" d="M38.1736 32.5732C38.1736 32.5732 34.2736 29.3732 35.8736 26.4732C35.8736 26.3732 39.1736 29.2732 38.1736 32.5732Z" fill="url(#paint10_radial_248_11632)"/>
<path fill-rule="evenodd" clip-rule="evenodd" d="M40.673 33.8732C40.673 33.8732 39.873 30.8732 41.773 30.0732C41.773 30.0732 42.073 32.5732 40.673 33.8732Z" fill="url(#paint11_radial_248_11632)"/>
<path fill-rule="evenodd" clip-rule="evenodd" d="M31.4734 64.9733C31.4734 64.9733 30.0734 62.0732 31.9734 60.5732L31.4734 64.9733Z" fill="url(#paint12_radial_248_11632)"/>
<path fill-rule="evenodd" clip-rule="evenodd" d="M41.5742 15.1732L42.3742 10.5732C42.3742 10.5732 42.7742 13.6732 41.5742 15.1732Z" fill="url(#paint13_radial_248_11632)"/>
<path fill-rule="evenodd" clip-rule="evenodd" d="M39.2744 17.8732L39.1744 16.0732C39.1744 16.0732 38.8744 16.9732 39.2744 17.8732Z" fill="url(#paint14_radial_248_11632)"/>
<path fill-rule="evenodd" clip-rule="evenodd" d="M10.873 30.3732L14.473 31.5732C14.473 31.5732 11.673 29.7732 10.873 30.3732Z" fill="url(#paint15_radial_248_11632)"/>
<path fill-rule="evenodd" clip-rule="evenodd" d="M15.373 55.3733L17.373 53.9733C17.373 53.9733 16.073 53.8733 15.373 55.3733Z" fill="url(#paint16_radial_248_11632)"/>
<defs>
<linearGradient id="paint0_linear_248_11632" x1="61.7731" y1="71.3311" x2="17.3536" y2="7.83273" gradientUnits="userSpaceOnUse">
<stop stop-color="#FFAC0B"/>
<stop offset="1" stop-color="#FF7E2D"/>
</linearGradient>
<radialGradient id="paint1_radial_248_11632" cx="0" cy="0" r="1" gradientUnits="userSpaceOnUse" gradientTransform="translate(40.2779 39.3875) rotate(-34.9742) scale(38.0026 38.0026)">
<stop offset="0.00558659" stop-color="#FFE5C7"/>
<stop offset="0.5197" stop-color="#FFE1C5"/>
<stop offset="1" stop-color="#FFD6C0"/>
</radialGradient>
<linearGradient id="paint2_linear_248_11632" x1="7.29897" y1="26.8086" x2="32.1483" y2="62.0577" gradientUnits="userSpaceOnUse">
<stop stop-color="#FF7E2D"/>
<stop offset="1" stop-color="#FFAC0B"/>
</linearGradient>
<linearGradient id="paint3_linear_248_11632" x1="2.31912" y1="20.7759" x2="26.4725" y2="55.0378" gradientUnits="userSpaceOnUse">
<stop stop-color="#FF7E2D"/>
<stop offset="1" stop-color="#FFAC0B"/>
</linearGradient>
<linearGradient id="paint4_linear_248_11632" x1="30.3141" y1="33.3942" x2="53.2115" y2="65.8744" gradientUnits="userSpaceOnUse">
<stop stop-color="#FF7E2D"/>
<stop offset="1" stop-color="#FFAC0B"/>
</linearGradient>
<linearGradient id="paint5_linear_248_11632" x1="51.638" y1="23.9375" x2="77.2262" y2="60.2349" gradientUnits="userSpaceOnUse">
<stop stop-color="#FF7E2D"/>
<stop offset="1" stop-color="#FFAC0B"/>
</linearGradient>
<linearGradient id="paint6_linear_248_11632" x1="34.0636" y1="-2.93019" x2="66.9627" y2="43.7376" gradientUnits="userSpaceOnUse">
<stop stop-color="#FF7E2D"/>
<stop offset="1" stop-color="#FFAC0B"/>
</linearGradient>
<linearGradient id="paint7_linear_248_11632" x1="35.4525" y1="9.47352" x2="59.1699" y2="43.117" gradientUnits="userSpaceOnUse">
<stop stop-color="#FF7E2D"/>
<stop offset="1" stop-color="#FFAC0B"/>
</linearGradient>
<linearGradient id="paint8_linear_248_11632" x1="22.3491" y1="33.7812" x2="46.517" y2="68.0636" gradientUnits="userSpaceOnUse">
<stop stop-color="#FF7E2D"/>
<stop offset="1" stop-color="#FFAC0B"/>
</linearGradient>
<radialGradient id="paint9_radial_248_11632" cx="0" cy="0" r="1" gradientUnits="userSpaceOnUse" gradientTransform="translate(49.3639 40.5447) rotate(-34.9742) scale(1.90708)">
<stop offset="0.00558659" stop-color="#FFE5C7"/>
<stop offset="0.5197" stop-color="#FFE1C5"/>
<stop offset="1" stop-color="#FFD6C0"/>
</radialGradient>
<radialGradient id="paint10_radial_248_11632" cx="0" cy="0" r="1" gradientUnits="userSpaceOnUse" gradientTransform="translate(37.0071 29.5143) rotate(-34.9741) scale(2.37747 2.37747)">
<stop offset="0.00558659" stop-color="#FFE5C7"/>
<stop offset="0.5197" stop-color="#FFE1C5"/>
<stop offset="1" stop-color="#FFD6C0"/>
</radialGradient>
<radialGradient id="paint11_radial_248_11632" cx="0" cy="0" r="1" gradientUnits="userSpaceOnUse" gradientTransform="translate(41.1945 31.9416) rotate(-34.9742) scale(1.39518)">
<stop offset="0.00558659" stop-color="#FFE5C7"/>
<stop offset="0.5197" stop-color="#FFE1C5"/>
<stop offset="1" stop-color="#FFD6C0"/>
</radialGradient>
<radialGradient id="paint12_radial_248_11632" cx="0" cy="0" r="1" gradientUnits="userSpaceOnUse" gradientTransform="translate(31.6897 62.7273) rotate(-34.9743) scale(1.57658 1.57659)">
<stop offset="0.00558659" stop-color="#FFE5C7"/>
<stop offset="0.5197" stop-color="#FFE1C5"/>
<stop offset="1" stop-color="#FFD6C0"/>
</radialGradient>
<radialGradient id="paint13_radial_248_11632" cx="0" cy="0" r="1" gradientUnits="userSpaceOnUse" gradientTransform="translate(41.979 12.8994) rotate(-34.9741) scale(1.66358 1.66358)">
<stop offset="0.00558659" stop-color="#FFE5C7"/>
<stop offset="0.5197" stop-color="#FFE1C5"/>
<stop offset="1" stop-color="#FFD6C0"/>
</radialGradient>
<radialGradient id="paint14_radial_248_11632" cx="0" cy="0" r="1" gradientUnits="userSpaceOnUse" gradientTransform="translate(39.2512 16.9594) rotate(-34.9743) scale(0.621791)">
<stop offset="0.00558659" stop-color="#FFE5C7"/>
<stop offset="0.5197" stop-color="#FFE1C5"/>
<stop offset="1" stop-color="#FFD6C0"/>
</radialGradient>
<radialGradient id="paint15_radial_248_11632" cx="0" cy="0" r="1" gradientUnits="userSpaceOnUse" gradientTransform="translate(12.6399 30.9929) rotate(-34.9738) scale(1.34168 1.34167)">
<stop offset="0.00558659" stop-color="#FFE5C7"/>
<stop offset="0.5197" stop-color="#FFE1C5"/>
<stop offset="1" stop-color="#FFD6C0"/>
</radialGradient>
<radialGradient id="paint16_radial_248_11632" cx="0" cy="0" r="1" gradientUnits="userSpaceOnUse" gradientTransform="translate(16.2675 54.534) rotate(-34.9741) scale(0.861788 0.861787)">
<stop offset="0.00558659" stop-color="#FFE5C7"/>
<stop offset="0.5197" stop-color="#FFE1C5"/>
<stop offset="1" stop-color="#FFD6C0"/>
</radialGradient>
</defs>
</svg>
