<svg width="116" height="112" viewBox="0 0 116 112" fill="none" xmlns="http://www.w3.org/2000/svg">
<g filter="url(#filter0_d_367_9211)">
<path d="M8.03648 49.8945L10.3325 48.4425L36.811 91.8016L34.5149 93.2536L34.3276 93.0193C33.2815 91.551 32.8757 90.0829 30.9236 89.7233C29.3932 89.4107 27.4878 89.9101 26.3635 89.1446C24.3803 87.7855 26.2551 84.3657 25.053 82.382C23.8976 80.617 20.6804 80.7569 19.6032 78.9295C18.4478 77.1645 19.9633 74.4161 19.1047 72.5419C18.4178 71.0425 16.4814 70.5423 14.9198 69.8705C13.2801 69.2611 11.6405 68.0114 11.9688 66.3404C12.1721 65.1535 13.2967 63.998 13.0627 62.9048C12.7663 61.0931 9.45537 61.436 8.54985 59.9834C6.80127 57.1563 10.7217 54.5334 9.72261 52.6435L8.03648 49.8945Z" fill="#5AA1D6"/>
<path d="M95.7766 41.4473C96.073 43.259 99.3839 42.9161 100.289 44.3687C102.038 47.1958 98.1175 49.8187 99.1167 51.7086L100.022 53.1612L34.4525 93.1755L34.2651 92.9412C33.219 91.473 32.8133 90.0048 30.8612 89.6452C29.3307 89.3326 27.4253 89.832 26.301 89.0665C24.3179 87.7074 26.1926 84.2876 24.9905 82.3039C23.8352 80.5389 20.618 80.6788 19.5407 78.8514C18.3854 77.0864 19.9008 74.338 19.0422 72.4638C18.3554 70.9644 16.4189 70.4642 14.8573 69.7924C13.2176 69.183 11.578 67.9333 11.9063 66.2623C12.1096 65.0754 13.2343 63.9199 13.0002 62.8267C12.7039 61.015 9.39291 61.3579 8.4874 59.9053C6.73881 57.0782 10.6593 54.4553 9.66016 52.5654L8.03648 49.8945L73.6062 9.8802L74.4493 11.2547C75.4953 12.7229 75.9011 14.1911 77.8532 14.5506C79.3836 14.8633 81.2891 14.3639 82.4134 15.1294C84.3965 16.4885 82.5217 19.9083 83.7239 21.892C84.8792 23.657 88.0964 23.517 89.1736 25.3445C90.329 27.1095 88.8135 29.8578 89.6721 31.7321C90.359 33.2315 92.2954 33.7317 93.8571 34.4035C95.4968 35.0129 97.1363 36.2626 96.808 37.9336C96.6672 39.1986 95.605 40.4322 95.7766 41.4473Z" fill="#6EC02C"/>
<path d="M95.7773 41.4472C96.0737 43.2589 99.3846 42.916 100.29 44.3686C102.039 47.1957 98.1182 49.8186 99.1174 51.7085L100.023 53.1611L97.7268 54.6131L71.3109 11.3321L73.6069 9.88009L74.45 11.2546C75.496 12.7228 75.9018 14.1909 77.8539 14.5505C79.3843 14.8632 81.2898 14.3638 82.4141 15.1293C84.3972 16.4884 82.5224 19.9082 83.7246 21.8919C84.8799 23.6569 88.0971 23.5169 89.1743 25.3444C90.3297 27.1094 88.8142 29.8577 89.6728 31.732C90.3597 33.2314 92.2961 33.7315 93.8578 34.4034C95.4975 35.0128 97.137 36.2625 96.8087 37.9335C96.6679 39.1985 95.6057 40.4321 95.7773 41.4472Z" fill="#5AA1D6"/>
<path d="M95.7773 41.4472C96.0737 43.2589 99.3846 42.916 100.29 44.3686C102.039 47.1957 98.1182 49.8186 99.1174 51.7085L100.023 53.1611L97.7268 54.6131L71.3109 11.3321L73.6069 9.88009L74.45 11.2546C75.496 12.7228 75.9018 14.1909 77.8539 14.5505C79.3843 14.8632 81.2898 14.3638 82.4141 15.1293C84.3972 16.4884 82.5224 19.9082 83.7246 21.8919C84.8799 23.6569 88.0971 23.5169 89.1743 25.3444C90.3297 27.1094 88.8142 29.8577 89.6728 31.732C90.3597 33.2314 92.2961 33.7315 93.8578 34.4034C95.4975 35.0128 97.137 36.2625 96.8087 37.9335C96.6679 39.1985 95.6057 40.4321 95.7773 41.4472Z" fill="#5AA1D6"/>
<path d="M95.7773 41.4472C96.0737 43.2589 99.3846 42.916 100.29 44.3686C102.039 47.1957 98.1182 49.8186 99.1174 51.7085L100.023 53.1611L97.7268 54.6131L71.3109 11.3321L73.6069 9.88009L74.45 11.2546C75.496 12.7228 75.9018 14.1909 77.8539 14.5505C79.3843 14.8632 81.2898 14.3638 82.4141 15.1293C84.3972 16.4884 82.5224 19.9082 83.7246 21.8919C84.8799 23.6569 88.0971 23.5169 89.1743 25.3444C90.3297 27.1094 88.8142 29.8577 89.6728 31.732C90.3597 33.2314 92.2961 33.7315 93.8578 34.4034C95.4975 35.0128 97.137 36.2625 96.8087 37.9335C96.6679 39.1985 95.6057 40.4321 95.7773 41.4472Z" fill="#127647"/>
<path d="M10.3325 48.4425L36.811 91.8016L34.5149 93.2536L34.3276 93.0193C33.2815 91.551 32.8757 90.0829 30.9236 89.7233C29.3932 89.4107 27.4878 89.9101 26.3635 89.1446C24.3803 87.7855 26.2551 84.3657 25.053 82.382C23.8976 80.617 20.6804 80.7569 19.6032 78.9295C18.4478 77.1645 19.9633 74.4161 19.1047 72.5419C18.4178 71.0425 16.4814 70.5423 14.9198 69.8705C13.2801 69.2611 11.6405 68.0114 11.9688 66.3404C12.1721 65.1535 13.2967 63.998 13.0627 62.9048C12.7663 61.0931 9.45537 61.436 8.54985 59.9834C6.80127 57.1563 10.7217 54.5334 9.72261 52.6435L8.03648 49.8945L10.3325 48.4425Z" fill="#127647"/>
<path d="M17.4058 52.9372L36.0625 83.4902L90.7678 50.0853L72.1111 19.5322L17.4058 52.9372Z" stroke="white" stroke-miterlimit="10"/>
<path d="M21.8895 50.0846L40.6711 80.7765" stroke="white" stroke-miterlimit="10" stroke-dasharray="4 4"/>
<path d="M67.3895 22.2792L86.1711 52.9711" stroke="white" stroke-miterlimit="10" stroke-dasharray="4 4"/>
<path d="M34.0925 56.6266L32.1307 57.8639L31.4547 56.7356L36.7377 53.3934L37.4137 54.5217L35.4518 55.7591L38.6156 60.6703L37.2563 61.5378L34.0925 56.6266Z" fill="white"/>
<path d="M37.4955 52.8959L38.8547 52.0285L42.6945 58.068L41.3352 58.9355L37.4955 52.8959Z" fill="white"/>
<path d="M45.2226 56.102C44.5824 56.1133 43.8783 56.0476 43.3413 55.7135C42.7274 55.4431 42.2036 54.9682 41.8337 54.3655C41.4638 53.7629 41.2347 53.1734 41.2234 52.5332C41.2121 51.893 41.3416 51.2659 41.7527 50.6651C42.0869 50.1281 42.5618 49.6043 43.1645 49.2344C43.6902 48.9283 44.2797 48.6992 44.7152 48.5978C45.2916 48.5095 45.791 48.4851 46.2641 48.7423L45.8512 50.1241C45.1603 49.9177 44.4431 49.9928 43.8404 50.3627C43.4687 50.5411 43.2247 50.8734 42.9806 51.2057C42.7366 51.538 42.6972 51.9605 42.7347 52.3191C42.7723 52.6776 42.8737 53.1132 43.1291 53.4211C43.3844 53.729 43.6398 54.0369 43.9721 54.2809C44.3044 54.525 44.7268 54.5644 45.0854 54.5268C45.444 54.4892 45.8796 54.3878 46.1875 54.1325C46.7901 53.7626 47.1243 53.2256 47.2669 52.4577L48.6619 52.7299C48.6094 53.2931 48.3522 53.7663 48.095 54.2394C47.8378 54.7125 47.376 55.0956 46.8503 55.4016C46.5293 55.7978 45.9398 56.0269 45.2226 56.102Z" fill="white"/>
<path d="M51.1766 49.343L50.9044 50.7379L51.8995 52.2511L50.5403 53.1186L46.7006 47.079L48.0598 46.2116L49.8586 49.007L50.7783 44.4766L52.2914 43.4815L51.4618 47.8072L56.2081 49.4572L54.618 50.5162L51.1766 49.343Z" fill="white"/>
<path d="M60.8923 44.9228L61.5683 46.0511L56.888 49.0234L53.0482 42.9838L57.6516 40.0754L58.3275 41.2037L55.1604 43.1808L55.964 44.4631L58.7594 42.6643L59.4354 43.7926L56.6399 45.5914L57.5074 46.9506L60.8923 44.9228Z" fill="white"/>
<path d="M60.8933 39.5965L58.9315 40.8339L58.2555 39.7056L63.5385 36.3634L64.2144 37.4917L62.2526 38.7291L65.4164 43.6403L63.9802 44.5716L60.8933 39.5965Z" fill="white"/>
<path d="M71.2351 45.9587L72.2529 48.7523L70.0714 50.8214L72.865 49.8036L75.011 51.9213L73.9163 49.1915L76.034 47.0455L73.3042 48.1402" fill="white"/>
<path d="M72.7072 41.6216L73.3174 43.454L71.9057 44.8847L73.7512 44.1336L75.1819 45.5453L74.4308 43.6998L75.9064 42.3461L73.9971 43.0202" fill="white"/>
<path d="M67.348 44.2467L67.8569 45.6435L66.7662 46.678L68.163 46.1691L69.1975 47.2599L68.6886 45.8631L69.7794 44.8286L68.3826 45.3374" fill="white"/>
<path d="M41.2703 64.966L42.288 67.7596L40.1704 69.9057L42.9771 68.7471L45.0462 70.9286L44.0285 68.135L46.2099 66.0659L43.4163 67.0837" fill="white"/>
<path d="M42.7396 60.6288L43.4906 62.4743L42.015 63.828L43.9244 63.1539L45.2143 64.5525L44.604 62.7202L46.0158 61.2895L44.1703 62.0406" fill="white"/>
<path d="M37.3804 63.2539L37.9663 64.5868L36.8755 65.6214L38.2723 65.1125L39.3069 66.2033L38.798 64.8065L39.8888 63.7719L38.492 64.2808" fill="white"/>
<path d="M49.7064 65.1136C48.9892 65.1887 48.3621 65.0592 47.8251 64.7251C47.2882 64.3909 46.6874 63.9798 46.3175 63.3771C45.9476 62.7745 45.7185 62.185 45.7072 61.5448C45.6959 60.9046 45.8254 60.2775 46.2365 59.6767C46.5707 59.1397 47.0456 58.6159 47.7253 58.1821C48.3279 57.8122 48.9944 57.5193 49.6346 57.508C50.2748 57.4967 50.9789 57.5624 51.5158 57.8965C52.1298 58.1669 52.6536 58.6418 53.0235 59.2445C53.3934 59.8471 53.6225 60.4366 53.6338 61.0768C53.6451 61.717 53.5156 62.3441 53.1045 62.9449C52.6933 63.5457 52.2953 64.0057 51.6157 64.4395C50.9361 64.8732 50.3466 65.1023 49.7064 65.1136ZM51.7358 62.3912C51.916 61.9819 52.0192 61.6364 51.9816 61.2778C51.9441 60.9192 51.8427 60.4837 51.5873 60.1758C51.4089 59.804 51.0766 59.56 50.7443 59.3159C50.412 59.0719 49.9895 59.0325 49.6309 59.0701C49.2723 59.1076 48.8368 59.209 48.5289 59.4644C48.1572 59.6428 47.9131 59.9751 47.6691 60.3074C47.4888 60.7167 47.3856 61.0622 47.4232 61.4208C47.4607 61.7794 47.5622 62.2149 47.8175 62.5228C47.9959 62.8945 48.3282 63.1386 48.6605 63.3826C48.9929 63.6267 49.4153 63.6661 49.7739 63.6285C50.1325 63.5909 50.568 63.4895 50.8759 63.2342C51.2477 63.0558 51.5555 62.8005 51.7358 62.3912Z" fill="white"/>
<path d="M57.6754 52.0085L61.5151 58.048L60.3099 58.7878L54.9365 57.0083L57.2966 60.6373L56.0012 61.5817L52.1615 55.5422L53.3668 54.8024L58.7402 56.5819L56.38 52.9529L57.6754 52.0085Z" fill="white"/>
<path d="M66.9548 53.016L67.6308 54.1443L62.9505 57.1166L59.1107 51.0771L63.7141 48.1686L64.39 49.2969L61.2229 51.2741L62.0903 52.6333L64.8858 50.8345L65.5617 51.9629L62.7663 53.7616L63.6337 55.1209L66.9548 53.016Z" fill="white"/>
</g>
<defs>
<filter id="filter0_d_367_9211" x="7.03125" y="9.88013" width="108.715" height="101.374" filterUnits="userSpaceOnUse" color-interpolation-filters="sRGB">
<feFlood flood-opacity="0" result="BackgroundImageFix"/>
<feColorMatrix in="SourceAlpha" type="matrix" values="0 0 0 0 0 0 0 0 0 0 0 0 0 0 0 0 0 0 127 0" result="hardAlpha"/>
<feOffset dx="7" dy="10"/>
<feGaussianBlur stdDeviation="4"/>
<feComposite in2="hardAlpha" operator="out"/>
<feColorMatrix type="matrix" values="0 0 0 0 0 0 0 0 0 0 0 0 0 0 0 0 0 0 0.25 0"/>
<feBlend mode="normal" in2="BackgroundImageFix" result="effect1_dropShadow_367_9211"/>
<feBlend mode="normal" in="SourceGraphic" in2="effect1_dropShadow_367_9211" result="shape"/>
</filter>
</defs>
</svg>
