<svg width="125" height="128" viewBox="0 0 125 128" fill="none" xmlns="http://www.w3.org/2000/svg">
<g filter="url(#filter0_d_367_9206)">
<path d="M89.1563 89.7096L59.2514 102.73C45.999 108.5 30.5664 102.429 24.7965 89.1769L11.7671 59.2511C5.99714 45.9987 12.0676 30.5661 25.32 24.7961L55.2458 11.7668C68.4982 5.99682 83.9308 12.0672 89.7008 25.3197L102.73 55.2455C108.5 68.4974 102.43 83.9303 89.1563 89.7096Z" fill="white" stroke="#0087FD" stroke-width="2"/>
<path fill-rule="evenodd" clip-rule="evenodd" d="M58.2907 18.817L28.3857 31.8372C19.0457 35.9038 14.7326 46.8245 18.8083 56.1855L31.8377 86.1114C35.9042 95.4515 46.825 99.7645 56.186 95.6888L86.1119 82.6595C95.4519 78.5929 99.765 67.6721 95.6893 58.3111L82.6599 28.3853C78.5633 19.0334 67.6517 14.7413 58.2907 18.817ZM84.9483 61.7919L78.5975 64.6566C78.5975 64.6566 77.3548 65.5215 74.9949 65.0792C71.8963 64.4852 67.7955 61.1886 66.2826 62.52C64.7487 63.8604 66.4801 67.6654 66.4801 67.6654C66.4801 67.6654 66.8566 68.473 66.6293 69.0952C66.3992 69.7683 65.5771 70.2259 65.5771 70.2259L62.729 71.4659C62.729 71.4659 56.5896 74.5873 48.5235 71.2236C39.7269 67.5552 28.9433 57.378 28.9433 57.378C28.9433 57.378 28.2736 56.698 28.4355 56.1542C28.6209 55.5503 29.6288 55.0617 29.6288 55.0617L36.4376 52.0474C36.4376 52.0474 37.1324 51.8694 37.739 52.0039C38.2345 52.112 38.6719 52.5444 38.6719 52.5444C38.6719 52.5444 40.9945 54.8464 43.5427 56.7512C48.5335 60.4325 50.3479 60.938 51.0833 59.995C52.149 58.6093 49.0313 52.5928 49.0313 52.5928C49.0313 52.5928 48.0766 50.343 46.906 49.6569C46.0032 49.1282 44.814 49.372 44.3259 49.5097C43.9307 49.632 44.1669 48.4579 44.8104 47.7045C45.7815 46.5592 47.9294 45.5991 50.5144 44.4986C52.513 43.6533 53.154 43.5237 54.011 43.3748C56.6026 42.919 56.7642 45.4644 59.0528 50.7208C59.7822 52.3961 60.5075 54.9203 62.0804 55.1572C62.7499 55.2643 63.8997 54.4149 64.7423 47.5959C65.1286 44.3636 64.9674 40.8465 64.9674 40.8465C64.9674 40.8465 64.9816 40.1926 65.2583 39.7981C65.5559 39.3945 66.1068 39.2294 66.1068 39.2294L73.2716 36.0601C73.2716 36.0601 75.3192 34.8697 76.0946 35.678C76.9184 36.54 76.7641 39.4471 75.5373 44.6397C73.5198 53.166 72.7109 52.7957 78.3247 54.7609C83.677 56.6406 85.2296 58.0323 85.4673 58.1779C88.1868 60.1328 84.9483 61.7919 84.9483 61.7919Z" fill="#0087FD"/>
</g>
<defs>
<filter id="filter0_d_367_9206" x="7.58496" y="8.58496" width="117.326" height="119.327" filterUnits="userSpaceOnUse" color-interpolation-filters="sRGB">
<feFlood flood-opacity="0" result="BackgroundImageFix"/>
<feColorMatrix in="SourceAlpha" type="matrix" values="0 0 0 0 0 0 0 0 0 0 0 0 0 0 0 0 0 0 127 0" result="hardAlpha"/>
<feOffset dx="9" dy="12"/>
<feGaussianBlur stdDeviation="5"/>
<feComposite in2="hardAlpha" operator="out"/>
<feColorMatrix type="matrix" values="0 0 0 0 0 0 0 0 0 0 0 0 0 0 0 0 0 0 0.25 0"/>
<feBlend mode="normal" in2="BackgroundImageFix" result="effect1_dropShadow_367_9206"/>
<feBlend mode="normal" in="SourceGraphic" in2="effect1_dropShadow_367_9206" result="shape"/>
</filter>
</defs>
</svg>
